SplineFontDB: 3.0
FontName: Merriweather
FullName: Merriweather
FamilyName: Merriweather
Weight: Light
Copyright: Copyright (c) 2011, Sorkin Type Co (www.sorkintype.com)\nwith Reserved Font Name "Merriweather".\n\nThis Font Software is licensed under the SIL Open Font License,\nVersion 1.1. This license is available with a FAQ at:\nhttp://scripts.sil.org/OFL
Version: 1.287
ItalicAngle: 0
UnderlinePosition: -120
UnderlineWidth: 147
Ascent: 1638
Descent: 410
LayerCount: 2
Layer: 0 1 "Back"  1
Layer: 1 1 "Fore"  0
XUID: [1021 631 1661839179 16200297]
FSType: 0
OS2Version: 3
OS2_WeightWidthSlopeOnly: 0
OS2_UseTypoMetrics: 1
CreationTime: 1311380220
ModificationTime: 1311367198
PfmFamily: 17
TTFWeight: 250
TTFWidth: 5
LineGap: 0
VLineGap: 0
Panose: 2 6 5 3 5 4 6 3 7 4
OS2TypoAscent: 282
OS2TypoAOffset: 1
OS2TypoDescent: -226
OS2TypoDOffset: 1
OS2TypoLinegap: 0
OS2WinAscent: 0
OS2WinAOffset: 1
OS2WinDescent: 0
OS2WinDOffset: 1
HheadAscent: 0
HheadAOffset: 1
HheadDescent: 0
HheadDOffset: 1
OS2SubXSize: 1434
OS2SubYSize: 1331
OS2SubXOff: 0
OS2SubYOff: 287
OS2SupXSize: 1434
OS2SupYSize: 1331
OS2SupXOff: 0
OS2SupYOff: 977
OS2StrikeYSize: 147
OS2StrikeYPos: 800
OS2FamilyClass: 768
OS2Vendor: 'eye '
OS2CodePages: 00000001.00000000
OS2UnicodeRanges: 800000a7.50000000.00000000.00000000
Lookup: 4 0 0 "'dlig' Discretionary Ligatures in Latin lookup 0"  {"'dlig' Discretionary Ligatures in Latin lookup 0 subtable"  } ['dlig' ('latn' <'dflt' > ) ]
Lookup: 258 0 0 "'kern' Horizontal Kerning in Latin lookup 0"  {"'kern' Horizontal Kerning in Latin lookup 0 subtable"  } ['kern' ('latn' <'dflt' > ) ]
DEI: 91125
TtTable: prep
PUSHW_1
 511
SCANCTRL
PUSHB_1
 4
SCANTYPE
EndTTInstrs
ShortTable: maxp 16
  1
  0
  320
  133
  7
  0
  0
  1
  0
  0
  0
  0
  0
  0
  0
  0
EndShort

StartChar: .notdef
Encoding: 65536 -1 0
Width: 1770
Flags: W
LayerCount: 2
Fore
SplineSet
177 1416 m 1,0,-1
 1593 1416 l 1,1,-1
 1593 0 l 1,2,-1
 177 0 l 1,3,-1
 177 1416 l 1,0,-1
559 252 m 1,4,-1
 883 605 l 1,5,-1
 1220 252 l 1,6,-1
 1333 365 l 1,7,-1
 985 708 l 1,8,-1
 1333 1042 l 1,9,-1
 1214 1158 l 1,10,-1
 886 807 l 1,11,-1
 553 1159 l 1,12,-1
 439 1043 l 1,13,-1
 783 705 l 1,14,-1
 440 387 l 1,15,-1
 559 252 l 1,4,-1
EndSplineSet
Validated: 1
EndChar

StartChar: quotesingle
Encoding: 39 39 4
Width: 820
Flags: W
LayerCount: 2
Fore
SplineSet
300 1782 m 1,0,-1
 520 1782 l 1,1,-1
 478 966 l 1,2,-1
 342 966 l 1,3,-1
 300 1782 l 1,0,-1
EndSplineSet
Validated: 1
EndChar

StartChar: quotedbl
Encoding: 34 34 5
Width: 1260
Flags: W
LayerCount: 2
Fore
SplineSet
740 1782 m 1,0,-1
 960 1782 l 1,1,-1
 918 966 l 1,2,-1
 782 966 l 1,3,-1
 740 1782 l 1,0,-1
300 1782 m 1,4,-1
 520 1782 l 1,5,-1
 478 966 l 1,6,-1
 342 966 l 1,7,-1
 300 1782 l 1,4,-1
EndSplineSet
Validated: 1
EndChar

StartChar: quotesinglbase
Encoding: 8218 8218 6
Width: 774
Flags: W
LayerCount: 2
Fore
SplineSet
235 120 m 1,0,-1
 357 275 l 1,1,2
 416 260 416 260 457.5 223 c 128,-1,3
 499 186 499 186 525 139.5 c 128,-1,4
 551 93 551 93 562.5 43 c 128,-1,5
 574 -7 574 -7 574 -47 c 0,6,7
 574 -132 574 -132 545 -207.5 c 128,-1,8
 516 -283 516 -283 470 -345 c 128,-1,9
 424 -407 424 -407 367.5 -452.5 c 128,-1,10
 311 -498 311 -498 256 -522 c 1,11,-1
 200 -470 l 1,12,-1
 200 -434 l 1,13,14
 231 -422 231 -422 264 -390 c 128,-1,15
 297 -358 297 -358 324.5 -315 c 128,-1,16
 352 -272 352 -272 370 -222 c 128,-1,17
 388 -172 388 -172 388 -124 c 0,18,19
 388 -86 388 -86 375 -51.5 c 128,-1,20
 362 -17 362 -17 340.5 10 c 128,-1,21
 319 37 319 37 291.5 54.5 c 128,-1,22
 264 72 264 72 235 75 c 1,23,-1
 235 120 l 1,0,-1
EndSplineSet
Validated: 1
EndChar

StartChar: quoteleft
Encoding: 8216 8216 7
Width: 774
Flags: W
LayerCount: 2
Fore
SplineSet
417 940 m 1,0,1
 358 955 358 955 316.5 992 c 128,-1,2
 275 1029 275 1029 249 1075.5 c 128,-1,3
 223 1122 223 1122 211.5 1171.5 c 128,-1,4
 200 1221 200 1221 200 1262 c 0,5,6
 200 1347 200 1347 229 1423 c 128,-1,7
 258 1499 258 1499 304 1560.5 c 128,-1,8
 350 1622 350 1622 406.5 1667.5 c 128,-1,9
 463 1713 463 1713 518 1737 c 1,10,-1
 574 1685 l 1,11,-1
 574 1649 l 1,12,13
 543 1637 543 1637 510 1605 c 128,-1,14
 477 1573 477 1573 449.5 1530 c 128,-1,15
 422 1487 422 1487 404 1437 c 128,-1,16
 386 1387 386 1387 386 1339 c 0,17,18
 386 1301 386 1301 399 1266.5 c 128,-1,19
 412 1232 412 1232 433.5 1205 c 128,-1,20
 455 1178 455 1178 482.5 1160.5 c 128,-1,21
 510 1143 510 1143 539 1140 c 1,22,-1
 539 1095 l 1,23,-1
 417 940 l 1,0,1
EndSplineSet
Validated: 1
EndChar

StartChar: quoteright
Encoding: 8217 8217 8
Width: 774
Flags: W
LayerCount: 2
Fore
SplineSet
200 981 m 1,0,-1
 200 1017 l 1,1,2
 231 1029 231 1029 264 1061 c 128,-1,3
 297 1093 297 1093 324.5 1136 c 128,-1,4
 352 1179 352 1179 370 1229 c 128,-1,5
 388 1279 388 1279 388 1327 c 0,6,7
 388 1365 388 1365 375 1399.5 c 128,-1,8
 362 1434 362 1434 340.5 1461 c 128,-1,9
 319 1488 319 1488 291.5 1505.5 c 128,-1,10
 264 1523 264 1523 235 1526 c 1,11,-1
 235 1571 l 1,12,-1
 357 1726 l 1,13,14
 416 1711 416 1711 457.5 1674 c 128,-1,15
 499 1637 499 1637 525 1590.5 c 128,-1,16
 551 1544 551 1544 562.5 1494 c 128,-1,17
 574 1444 574 1444 574 1404 c 0,18,19
 574 1319 574 1319 545 1243 c 128,-1,20
 516 1167 516 1167 470 1105.5 c 128,-1,21
 424 1044 424 1044 367.5 998.5 c 128,-1,22
 311 953 311 953 256 929 c 1,23,-1
 200 981 l 1,0,-1
EndSplineSet
Validated: 1
EndChar

StartChar: quotedblleft
Encoding: 8220 8220 9
Width: 1305
Flags: W
LayerCount: 2
Fore
SplineSet
948 809 m 1,0,1
 889 824 889 824 847.5 861 c 128,-1,2
 806 898 806 898 780 944.5 c 128,-1,3
 754 991 754 991 742.5 1040.5 c 128,-1,4
 731 1090 731 1090 731 1131 c 0,5,6
 731 1216 731 1216 760 1292 c 128,-1,7
 789 1368 789 1368 835 1429.5 c 128,-1,8
 881 1491 881 1491 937.5 1536.5 c 128,-1,9
 994 1582 994 1582 1049 1606 c 1,10,-1
 1105 1554 l 1,11,-1
 1105 1518 l 1,12,13
 1074 1506 1074 1506 1041 1474 c 128,-1,14
 1008 1442 1008 1442 980.5 1399 c 128,-1,15
 953 1356 953 1356 935 1306 c 128,-1,16
 917 1256 917 1256 917 1208 c 0,17,18
 917 1170 917 1170 930 1135.5 c 128,-1,19
 943 1101 943 1101 964.5 1074 c 128,-1,20
 986 1047 986 1047 1013.5 1029.5 c 128,-1,21
 1041 1012 1041 1012 1070 1009 c 1,22,-1
 1070 964 l 1,23,-1
 948 809 l 1,0,1
417 809 m 1,24,25
 358 824 358 824 316.5 861 c 128,-1,26
 275 898 275 898 249 944.5 c 128,-1,27
 223 991 223 991 211.5 1040.5 c 128,-1,28
 200 1090 200 1090 200 1131 c 0,29,30
 200 1216 200 1216 229 1292 c 128,-1,31
 258 1368 258 1368 304 1429.5 c 128,-1,32
 350 1491 350 1491 406.5 1536.5 c 128,-1,33
 463 1582 463 1582 518 1606 c 1,34,-1
 574 1554 l 1,35,-1
 574 1518 l 1,36,37
 543 1506 543 1506 510 1474 c 128,-1,38
 477 1442 477 1442 449.5 1399 c 128,-1,39
 422 1356 422 1356 404 1306 c 128,-1,40
 386 1256 386 1256 386 1208 c 0,41,42
 386 1170 386 1170 399 1135.5 c 128,-1,43
 412 1101 412 1101 433.5 1074 c 128,-1,44
 455 1047 455 1047 482.5 1029.5 c 128,-1,45
 510 1012 510 1012 539 1009 c 1,46,-1
 539 964 l 1,47,-1
 417 809 l 1,24,25
EndSplineSet
Validated: 1
EndChar

StartChar: quotedblright
Encoding: 8221 8221 10
Width: 1325
Flags: W
LayerCount: 2
Fore
SplineSet
751 981 m 1,0,-1
 751 1017 l 1,1,2
 782 1029 782 1029 815 1061 c 128,-1,3
 848 1093 848 1093 875.5 1136 c 128,-1,4
 903 1179 903 1179 921 1229 c 128,-1,5
 939 1279 939 1279 939 1327 c 0,6,7
 939 1365 939 1365 926 1399.5 c 128,-1,8
 913 1434 913 1434 891.5 1461 c 128,-1,9
 870 1488 870 1488 842.5 1505.5 c 128,-1,10
 815 1523 815 1523 786 1526 c 1,11,-1
 786 1571 l 1,12,-1
 908 1726 l 1,13,14
 967 1711 967 1711 1008.5 1674 c 128,-1,15
 1050 1637 1050 1637 1076 1590.5 c 128,-1,16
 1102 1544 1102 1544 1113.5 1494 c 128,-1,17
 1125 1444 1125 1444 1125 1404 c 0,18,19
 1125 1319 1125 1319 1096 1243 c 128,-1,20
 1067 1167 1067 1167 1021 1105.5 c 128,-1,21
 975 1044 975 1044 918.5 998.5 c 128,-1,22
 862 953 862 953 807 929 c 1,23,-1
 751 981 l 1,0,-1
200 981 m 1,24,-1
 200 1017 l 1,25,26
 231 1029 231 1029 264 1061 c 128,-1,27
 297 1093 297 1093 324.5 1136 c 128,-1,28
 352 1179 352 1179 370 1229 c 128,-1,29
 388 1279 388 1279 388 1327 c 0,30,31
 388 1365 388 1365 375 1399.5 c 128,-1,32
 362 1434 362 1434 340.5 1461 c 128,-1,33
 319 1488 319 1488 291.5 1505.5 c 128,-1,34
 264 1523 264 1523 235 1526 c 1,35,-1
 235 1571 l 1,36,-1
 357 1726 l 1,37,38
 416 1711 416 1711 457.5 1674 c 128,-1,39
 499 1637 499 1637 525 1590.5 c 128,-1,40
 551 1544 551 1544 562.5 1494 c 128,-1,41
 574 1444 574 1444 574 1404 c 0,42,43
 574 1319 574 1319 545 1243 c 128,-1,44
 516 1167 516 1167 470 1105.5 c 128,-1,45
 424 1044 424 1044 367.5 998.5 c 128,-1,46
 311 953 311 953 256 929 c 1,47,-1
 200 981 l 1,24,-1
EndSplineSet
Validated: 1
EndChar

StartChar: quotedblbase
Encoding: 8222 8222 11
Width: 1305
Flags: W
LayerCount: 2
Fore
SplineSet
766 120 m 1,0,-1
 888 275 l 1,1,2
 947 260 947 260 988.5 223 c 128,-1,3
 1030 186 1030 186 1056 139.5 c 128,-1,4
 1082 93 1082 93 1093.5 43 c 128,-1,5
 1105 -7 1105 -7 1105 -47 c 0,6,7
 1105 -132 1105 -132 1076 -208 c 128,-1,8
 1047 -284 1047 -284 1001 -345.5 c 128,-1,9
 955 -407 955 -407 898.5 -452.5 c 128,-1,10
 842 -498 842 -498 787 -522 c 1,11,-1
 731 -470 l 1,12,-1
 731 -434 l 1,13,14
 762 -422 762 -422 795 -390 c 128,-1,15
 828 -358 828 -358 855.5 -315 c 128,-1,16
 883 -272 883 -272 901 -222 c 128,-1,17
 919 -172 919 -172 919 -124 c 0,18,19
 919 -86 919 -86 906 -51.5 c 128,-1,20
 893 -17 893 -17 871.5 10 c 128,-1,21
 850 37 850 37 822.5 54.5 c 128,-1,22
 795 72 795 72 766 75 c 1,23,-1
 766 120 l 1,0,-1
235 120 m 1,24,-1
 357 275 l 1,25,26
 416 260 416 260 457.5 223 c 128,-1,27
 499 186 499 186 525 139.5 c 128,-1,28
 551 93 551 93 562.5 43 c 128,-1,29
 574 -7 574 -7 574 -47 c 0,30,31
 574 -132 574 -132 545 -208 c 128,-1,32
 516 -284 516 -284 470 -345.5 c 128,-1,33
 424 -407 424 -407 367.5 -452.5 c 128,-1,34
 311 -498 311 -498 256 -522 c 1,35,-1
 200 -470 l 1,36,-1
 200 -434 l 1,37,38
 231 -422 231 -422 264 -390 c 128,-1,39
 297 -358 297 -358 324.5 -315 c 128,-1,40
 352 -272 352 -272 370 -222 c 128,-1,41
 388 -172 388 -172 388 -124 c 0,42,43
 388 -86 388 -86 375 -51.5 c 128,-1,44
 362 -17 362 -17 340.5 10 c 128,-1,45
 319 37 319 37 291.5 54.5 c 128,-1,46
 264 72 264 72 235 75 c 1,47,-1
 235 120 l 1,24,-1
EndSplineSet
Validated: 1
EndChar

StartChar: guilsinglright
Encoding: 8250 8250 12
Width: 1189
Flags: W
LayerCount: 2
Fore
SplineSet
245 246 m 1,0,-1
 761 615 l 1,1,-1
 245 986 l 1,2,-1
 296 1075 l 1,3,-1
 944 749 l 1,4,-1
 944 506 l 1,5,-1
 296 163 l 1,6,-1
 245 246 l 1,0,-1
EndSplineSet
Validated: 1
EndChar

StartChar: guilsinglleft
Encoding: 8249 8249 13
Width: 1189
Flags: W
LayerCount: 2
Fore
SplineSet
245 732 m 1,0,-1
 893 1075 l 1,1,-1
 944 992 l 1,2,-1
 427 623 l 1,3,-1
 944 252 l 1,4,-1
 893 163 l 1,5,-1
 245 489 l 1,6,-1
 245 732 l 1,0,-1
EndSplineSet
Validated: 1
EndChar

StartChar: guillemotright
Encoding: 187 187 14
Width: 1897
Flags: HW
LayerCount: 2
Fore
SplineSet
1469 615 m 1,0,-1
 953 986 l 1,1,-1
 1004 1075 l 1,2,-1
 1652 749 l 1,3,-1
 1652 506 l 1,4,-1
 1004 163 l 1,5,-1
 953 246 l 1,6,-1
 1469 615 l 1,0,-1
245 246 m 1,7,-1
 761 615 l 1,8,-1
 245 986 l 1,9,-1
 296 1075 l 1,10,-1
 944 749 l 1,11,-1
 944 506 l 1,12,-1
 296 163 l 1,13,-1
 245 246 l 1,7,-1
EndSplineSet
Validated: 1
EndChar

StartChar: guillemotleft
Encoding: 171 171 15
Width: 1897
Flags: HW
LayerCount: 2
Fore
SplineSet
953 732 m 1,0,-1
 1601 1075 l 1,1,-1
 1652 992 l 1,2,-1
 1135 623 l 1,3,-1
 1652 252 l 1,4,-1
 1601 163 l 1,5,-1
 953 489 l 1,6,-1
 953 732 l 1,0,-1
245 732 m 1,7,-1
 893 1075 l 1,8,-1
 944 992 l 1,9,-1
 427 623 l 1,10,-1
 944 252 l 1,11,-1
 893 163 l 1,12,-1
 245 489 l 1,13,-1
 245 732 l 1,7,-1
EndSplineSet
Validated: 1
EndChar

StartChar: dagger
Encoding: 8224 8224 16
Width: 923
Flags: W
LayerCount: 2
Fore
SplineSet
369 1000 m 1,0,-1
 374 1135 l 1,1,-1
 92 1131 l 1,2,-1
 93 1278 l 1,3,-1
 394 1274 l 1,4,-1
 374 1473 l 1,5,-1
 369 1648 l 1,6,-1
 567 1648 l 1,7,-1
 562 1473 l 1,8,-1
 542 1274 l 1,9,-1
 831 1278 l 1,10,-1
 831 1131 l 1,11,-1
 560 1135 l 1,12,-1
 567 1000 l 1,13,-1
 523 283 l 1,14,-1
 416 283 l 1,15,-1
 369 1000 l 1,0,-1
EndSplineSet
Validated: 1
EndChar

StartChar: parenleft
Encoding: 40 40 17
Width: 843
Flags: W
LayerCount: 2
Fore
SplineSet
612 -320 m 1,0,1
 589 -306 589 -306 544 -269.5 c 128,-1,2
 499 -233 499 -233 445.5 -172.5 c 128,-1,3
 392 -112 392 -112 336 -26.5 c 128,-1,4
 280 59 280 59 234 170.5 c 128,-1,5
 188 282 188 282 159 420.5 c 128,-1,6
 130 559 130 559 130 725 c 0,7,8
 130 870 130 870 159 998 c 128,-1,9
 188 1126 188 1126 234 1234.5 c 128,-1,10
 280 1343 280 1343 336 1430.5 c 128,-1,11
 392 1518 392 1518 445.5 1582 c 128,-1,12
 499 1646 499 1646 544 1685.5 c 128,-1,13
 589 1725 589 1725 612 1738 c 1,14,-1
 700 1686 l 1,15,16
 679 1672 679 1672 643.5 1636.5 c 128,-1,17
 608 1601 608 1601 566.5 1544.5 c 128,-1,18
 525 1488 525 1488 481.5 1411 c 128,-1,19
 438 1334 438 1334 402.5 1237 c 128,-1,20
 367 1140 367 1140 342.5 1024 c 128,-1,21
 318 908 318 908 314 774 c 0,22,23
 309 625 309 625 330 495.5 c 128,-1,24
 351 366 351 366 387.5 257.5 c 128,-1,25
 424 149 424 149 470 61.5 c 128,-1,26
 516 -26 516 -26 561.5 -91 c 128,-1,27
 607 -156 607 -156 647.5 -198 c 128,-1,28
 688 -240 688 -240 713 -258 c 1,29,-1
 612 -320 l 1,0,1
EndSplineSet
Validated: 33
EndChar

StartChar: parenright
Encoding: 41 41 18
Width: 843
Flags: W
LayerCount: 2
Fore
SplineSet
143 -257 m 1,0,1
 164 -243 164 -243 199.5 -207.5 c 128,-1,2
 235 -172 235 -172 276.5 -115.5 c 128,-1,3
 318 -59 318 -59 361.5 18 c 128,-1,4
 405 95 405 95 440.5 192 c 128,-1,5
 476 289 476 289 500.5 404.5 c 128,-1,6
 525 520 525 520 529 655 c 0,7,8
 533 804 533 804 512.5 933.5 c 128,-1,9
 492 1063 492 1063 455.5 1171.5 c 128,-1,10
 419 1280 419 1280 373 1367.5 c 128,-1,11
 327 1455 327 1455 281.5 1520 c 128,-1,12
 236 1585 236 1585 195.5 1627 c 128,-1,13
 155 1669 155 1669 130 1687 c 1,14,-1
 231 1749 l 1,15,16
 254 1735 254 1735 299 1698.5 c 128,-1,17
 344 1662 344 1662 397.5 1601.5 c 128,-1,18
 451 1541 451 1541 507 1455.5 c 128,-1,19
 563 1370 563 1370 609 1258.5 c 128,-1,20
 655 1147 655 1147 684 1008.5 c 128,-1,21
 713 870 713 870 713 704 c 0,22,23
 713 559 713 559 684 431 c 128,-1,24
 655 303 655 303 609 194.5 c 128,-1,25
 563 86 563 86 507 -1.5 c 128,-1,26
 451 -89 451 -89 397.5 -153 c 128,-1,27
 344 -217 344 -217 299 -256.5 c 128,-1,28
 254 -296 254 -296 231 -309 c 1,29,-1
 143 -257 l 1,0,1
EndSplineSet
Validated: 33
EndChar

StartChar: braceleft
Encoding: 123 123 19
Width: 1035
Flags: HW
LayerCount: 2
Fore
SplineSet
330 579 m 2,0,1
 330 599 330 599 307 619 c 128,-1,2
 284 639 284 639 248 657 c 128,-1,3
 212 675 212 675 167.5 689.5 c 128,-1,4
 123 704 123 704 80 714 c 1,5,-1
 80 840 l 1,6,7
 122 850 122 850 166.5 863.5 c 128,-1,8
 211 877 211 877 247 893 c 128,-1,9
 283 909 283 909 306.5 927.5 c 128,-1,10
 330 946 330 946 330 967 c 2,11,-1
 330 1486 l 2,12,13
 330 1560 330 1560 338 1608.5 c 128,-1,14
 346 1657 346 1657 367 1685.5 c 128,-1,15
 388 1714 388 1714 425 1725.5 c 128,-1,16
 462 1737 462 1737 520 1737 c 0,17,18
 561 1737 561 1737 595.5 1733 c 128,-1,19
 630 1729 630 1729 661.5 1723 c 128,-1,20
 693 1717 693 1717 723 1709 c 2,21,-1
 785 1693 l 1,22,23
 785 1671 785 1671 784.5 1650 c 128,-1,24
 784 1629 784 1629 784 1607 c 1,25,-1
 493 1607 l 1,26,-1
 493 971 l 2,27,28
 493 929 493 929 472.5 900.5 c 128,-1,29
 452 872 452 872 418 849 c 0,30,31
 387 829 387 829 349.5 812 c 2,32,-1
 272 776 l 1,33,34
 320 755 320 755 363.5 733 c 128,-1,35
 407 711 407 711 439 683 c 0,36,37
 464 661 464 661 478.5 634.5 c 128,-1,38
 493 608 493 608 493 575 c 2,39,-1
 493 -59 l 1,40,-1
 784 -59 l 1,41,42
 784 -81 784 -81 784.5 -103 c 128,-1,43
 785 -125 785 -125 785 -147 c 1,44,45
 723 -164 l 2,46,47
 693 -172 693 -172 661.5 -178 c 128,-1,48
 630 -184 630 -184 595.5 -187.5 c 128,-1,49
 561 -191 561 -191 520 -191 c 0,50,51
 462 -191 462 -191 425 -179.5 c 128,-1,52
 388 -168 388 -168 367 -139.5 c 128,-1,53
 346 -111 346 -111 338 -62.5 c 128,-1,54
 330 -14 330 -14 330 60 c 2,55,-1
 330 579 l 2,0,1
EndSplineSet
Validated: 524289
EndChar

StartChar: braceright
Encoding: 125 125 20
Width: 958
Flags: HW
LayerCount: 2
Fore
SplineSet
465 -59 m 1,0,-1
 465 575 l 2,1,2
 465 608 465 608 479.5 634.5 c 128,-1,3
 494 661 494 661 519 683 c 0,4,5
 551 711 551 711 594 733 c 128,-1,6
 637 755 637 755 685 776 c 1,7,8
 607.5 812 l 2,9,10
 570 829 570 829 540 849 c 0,11,12
 506 872 506 872 485.5 900.5 c 128,-1,13
 465 929 465 929 465 971 c 2,14,-1
 465 1607 l 1,15,-1
 174 1607 l 1,16,17
 174 1629 174 1629 173.5 1650 c 128,-1,18
 173 1671 173 1671 173 1693 c 1,19,-1
 235 1709 l 2,20,21
 265 1717 265 1717 296.5 1723 c 128,-1,22
 328 1729 328 1729 362.5 1733 c 128,-1,23
 397 1737 397 1737 438 1737 c 0,24,25
 496 1737 496 1737 533 1725.5 c 128,-1,26
 570 1714 570 1714 591 1685.5 c 128,-1,27
 612 1657 612 1657 620 1608.5 c 128,-1,28
 628 1560 628 1560 628 1486 c 2,29,-1
 628 967 l 2,30,31
 628 946 628 946 651.5 927.5 c 128,-1,32
 675 909 675 909 711 893 c 128,-1,33
 747 877 747 877 791.5 863.5 c 128,-1,34
 836 850 836 850 878 840 c 1,35,-1
 878 714 l 1,36,37
 835 704 835 704 790.5 689.5 c 128,-1,38
 746 675 746 675 710 657 c 128,-1,39
 674 639 674 639 651 619 c 128,-1,40
 628 599 628 599 628 579 c 2,41,-1
 628 60 l 2,42,43
 628 -14 628 -14 620 -62.5 c 128,-1,44
 612 -111 612 -111 591 -139.5 c 128,-1,45
 570 -168 570 -168 533 -179.5 c 128,-1,46
 496 -191 496 -191 438 -191 c 0,47,48
 397 -191 397 -191 362.5 -187.5 c 128,-1,49
 328 -184 328 -184 296.5 -178 c 128,-1,50
 265 -172 265 -172 235 -164 c 2,51,-1
 173 -147 l 1,52,53
 173 -125 173 -125 173.5 -103 c 128,-1,54
 174 -81 174 -81 174 -59 c 1,55,-1
 465 -59 l 1,0,-1
EndSplineSet
Validated: 524289
EndChar

StartChar: bracketleft
Encoding: 91 91 21
Width: 839
Flags: HW
LayerCount: 2
Fore
SplineSet
164 1486 m 2,0,1
 164 1560 164 1560 172 1608.5 c 128,-1,2
 180 1657 180 1657 201 1685.5 c 128,-1,3
 222 1714 222 1714 259 1725.5 c 128,-1,4
 296 1737 296 1737 354 1737 c 0,5,6
 395 1737 395 1737 429.5 1733 c 128,-1,7
 464 1729 464 1729 495.5 1723 c 128,-1,8
 527 1717 527 1717 557 1709 c 2,9,-1
 619 1693 l 1,10,11
 619 1671 619 1671 618.5 1650 c 128,-1,12
 618 1629 618 1629 618 1607 c 1,13,-1
 327 1607 l 1,14,-1
 327 -59 l 1,15,-1
 618 -61 l 1,16,17
 618 -83 618 -83 618.5 -104 c 128,-1,18
 619 -125 619 -125 619 -147 c 1,19,20
 557 -164 l 2,21,22
 527 -172 527 -172 495.5 -178 c 128,-1,23
 464 -184 464 -184 429.5 -187.5 c 128,-1,24
 395 -191 395 -191 354 -191 c 0,25,26
 296 -191 296 -191 259 -179.5 c 128,-1,27
 222 -168 222 -168 201 -139.5 c 128,-1,28
 180 -111 180 -111 172 -62.5 c 128,-1,29
 164 -14 164 -14 164 60 c 2,30,-1
 164 1486 l 2,0,1
EndSplineSet
Validated: 524289
EndChar

StartChar: bracketright
Encoding: 93 93 22
Width: 839
Flags: HW
LayerCount: 2
Fore
SplineSet
516 -59 m 1,0,-1
 516 1607 l 1,1,-1
 225 1607 l 1,2,3
 225 1629 225 1629 224.5 1650 c 128,-1,4
 224 1671 224 1671 224 1693 c 1,5,6
 286 1709 l 2,7,8
 316 1717 316 1717 347.5 1723 c 128,-1,9
 379 1729 379 1729 413.5 1733 c 128,-1,10
 448 1737 448 1737 489 1737 c 0,11,12
 547 1737 547 1737 584 1725.5 c 128,-1,13
 621 1714 621 1714 642 1685.5 c 128,-1,14
 663 1657 663 1657 671 1608.5 c 128,-1,15
 679 1560 679 1560 679 1486 c 2,16,-1
 679 60 l 2,17,18
 679 -14 679 -14 671 -62.5 c 128,-1,19
 663 -111 663 -111 642 -139.5 c 128,-1,20
 621 -168 621 -168 584 -179.5 c 128,-1,21
 547 -191 547 -191 489 -191 c 0,22,23
 448 -191 448 -191 413.5 -187.5 c 128,-1,24
 379 -184 379 -184 347.5 -178 c 128,-1,25
 316 -172 316 -172 286 -164 c 2,26,-1
 224 -147 l 1,27,28
 224 -125 224 -125 224.5 -104 c 128,-1,29
 225 -83 225 -83 225 -61 c 1,30,-1
 516 -59 l 1,0,-1
EndSplineSet
Validated: 524289
EndChar

StartChar: zero
Encoding: 48 48 23
Width: 1368
Flags: HW
LayerCount: 2
Fore
SplineSet
151 632 m 0,0,1
 153 777 153 777 198.5 892 c 128,-1,2
 244 1007 244 1007 320 1086.5 c 128,-1,3
 396 1166 396 1166 494.5 1208.5 c 128,-1,4
 593 1251 593 1251 701 1252 c 1,5,6
 706.88 1252 l 2,7,8
 849 1252 849 1252 946 1204.5 c 0,9,10
 1045 1156 1045 1156 1105.5 1071 c 128,-1,11
 1166 986 1166 986 1191.5 870.5 c 0,12,13
 1216.04 759.359 1216.04 759.359 1216.04 632.939 c 0,14,15
 1216.04 628.209 1216.04 628.209 1216 623 c 0,16,17
 1214.95 478.87 1214.95 478.87 1172.5 359 c 128,-1,18
 1130 239 1130 239 1057 153.5 c 128,-1,19
 984 68 984 68 886 20 c 128,-1,20
 788 -28 788 -28 676 -28 c 0,21,22
 581 -28 581 -28 504.5 -3 c 128,-1,23
 428 22 428 22 369.5 66.5 c 128,-1,24
 311 111 311 111 269 173 c 128,-1,25
 227 235 227 235 200.5 308.5 c 128,-1,26
 174 382 174 382 162 464 c 0,27,28
 150.923 539.692 150.923 539.692 150.923 618.793 c 0,29,30
 150.923 625.385 150.923 625.385 151 632 c 0,0,1
684 77 m 0,31,32
 688.737 76.8947 688.737 76.8947 693.398 76.8947 c 0,33,34
 777.289 76.8947 777.289 76.8947 836.5 111 c 0,35,36
 899 147 899 147 937.5 216.5 c 128,-1,37
 976 286 976 286 993.5 386.5 c 128,-1,38
 1011 487 1011 487 1011 614 c 0,39,40
 1011 726 1011 726 992.5 822.5 c 128,-1,41
 974 919 974 919 934.5 990.5 c 128,-1,42
 895 1062 895 1062 834 1103 c 128,-1,43
 773 1144 773 1144 688 1146 c 1,44,45
 682.879 1146 l 2,46,47
 596.2 1146 596.2 1146 535 1113 c 0,48,49
 472 1079 472 1079 432 1014 c 128,-1,50
 392 949 392 949 374 854.5 c 128,-1,51
 356 760 356 760 356 641 c 0,52,53
 356 534 356 534 375.5 433.5 c 128,-1,54
 395 333 395 333 435.5 254.5 c 128,-1,55
 476 176 476 176 537.5 127.5 c 128,-1,56
 599 79 599 79 684 77 c 0,31,32
EndSplineSet
Validated: 524289
EndChar

StartChar: one
Encoding: 49 49 24
Width: 933
Flags: HW
LayerCount: 2
Fore
SplineSet
100 85 m 1,0,-1
 391 112 l 1,1,-1
 391 1024 l 1,2,-1
 119 971 l 1,3,-1
 99 1070 l 1,4,5
 129 1079 129 1079 170 1094 c 128,-1,6
 211 1109 211 1109 255.5 1127 c 128,-1,7
 300 1145 300 1145 345 1165.5 c 2,8,-1
 428 1204.5 l 2,9,10
 466 1223 466 1223 494.5 1238.5 c 128,-1,11
 523 1254 523 1254 535 1264 c 1,12,-1
 587 1249 l 1,13,-1
 584 111 l 1,14,-1
 852 85 l 1,15,-1
 852 0 l 1,16,-1
 100 0 l 1,17,-1
 100 85 l 1,0,-1
EndSplineSet
Validated: 524289
EndChar

StartChar: two
Encoding: 50 50 25
Width: 1221
Flags: HW
LayerCount: 2
Fore
SplineSet
144 79 m 1,0,1
 271 161 271 161 385 256 c 128,-1,2
 499 351 499 351 584.5 451.5 c 128,-1,3
 670 552 670 552 720.5 654 c 128,-1,4
 771 756 771 756 771 852 c 0,5,6
 771 900 771 900 758 949.5 c 128,-1,7
 745 999 745 999 715 1039 c 128,-1,8
 685 1079 685 1079 637 1104.5 c 128,-1,9
 589 1130 589 1130 519 1130 c 0,10,11
 469 1130 469 1130 422 1115.5 c 128,-1,12
 375 1101 375 1101 333 1079 c 128,-1,13
 291 1057 291 1057 256.5 1031.5 c 128,-1,14
 222 1006 222 1006 198 984 c 1,15,-1
 151 1060 l 1,16,17
 179 1096 179 1096 223.5 1132.5 c 128,-1,18
 268 1169 268 1169 324 1198 c 128,-1,19
 380 1227 380 1227 447 1245 c 128,-1,20
 514 1263 514 1263 587 1263 c 0,21,22
 688 1263 688 1263 762 1233.5 c 128,-1,23
 836 1204 836 1204 884 1155.5 c 128,-1,24
 932 1107 932 1107 955.5 1045 c 128,-1,25
 979 983 979 983 979 918 c 0,26,27
 979 814 979 814 934 706 c 128,-1,28
 889 598 889 598 809.5 494 c 128,-1,29
 730 390 730 390 621.5 294 c 128,-1,30
 513 198 513 198 385 119 c 1,31,-1
 939 161 l 1,32,-1
 1035 303 l 1,33,-1
 1121 275 l 1,34,-1
 1056 0 l 1,35,-1
 173 0 l 1,36,-1
 144 79 l 1,0,1
EndSplineSet
Validated: 524289
EndChar

StartChar: three
Encoding: 51 51 26
Width: 1063
Flags: HW
LayerCount: 2
Fore
SplineSet
134 -208 m 1,0,1
 196.25 -219.25 196.25 -219.25 255.406 -219.25 c 0,2,3
 275.125 -219.25 275.125 -219.25 294.5 -218 c 0,4,5
 372 -213 372 -213 440 -191.5 c 128,-1,6
 508 -170 508 -170 564.5 -133 c 128,-1,7
 621 -96 621 -96 661.5 -48.5 c 128,-1,8
 702 -1 702 -1 724.5 55.5 c 128,-1,9
 747 112 747 112 747 174 c 0,10,11
 747 246 747 246 730.5 302 c 128,-1,12
 714 358 714 358 675 396.5 c 128,-1,13
 636 435 636 435 572 455.5 c 128,-1,14
 508 476 508 476 414 476 c 1,15,-1
 270 442 l 1,16,-1
 270 576 l 1,17,18
 349 592 349 592 420 620.5 c 128,-1,19
 491 649 491 649 545 688.5 c 128,-1,20
 599 728 599 728 631 776.5 c 128,-1,21
 663 825 663 825 664 882 c 0,22,23
 664.051 885.538 664.051 885.538 664.051 889.022 c 0,24,25
 664.051 953.462 664.051 953.462 646.5 999 c 0,26,27
 628 1047 628 1047 596.5 1076.5 c 128,-1,28
 565 1106 565 1106 522.5 1119 c 128,-1,29
 480 1132 480 1132 434 1132 c 0,30,31
 379 1132 379 1132 335 1123 c 128,-1,32
 291 1114 291 1114 254.5 1098.5 c 128,-1,33
 218 1083 218 1083 187.5 1063 c 128,-1,34
 157 1043 157 1043 129 1021 c 1,35,-1
 76 1109 l 1,36,37
 98 1133 98 1133 137.5 1161 c 128,-1,38
 177 1189 177 1189 230.5 1213 c 128,-1,39
 284 1237 284 1237 351.5 1253 c 128,-1,40
 419 1269 419 1269 499 1269 c 0,41,42
 568 1269 568 1269 634 1251 c 128,-1,43
 700 1233 700 1233 752.5 1194 c 128,-1,44
 805 1155 805 1155 837 1092.5 c 128,-1,45
 869 1030 869 1030 869 942 c 0,46,47
 869 882 869 882 841 819.5 c 128,-1,48
 813 757 813 757 767 702.5 c 128,-1,49
 721 648 721 648 662.5 606.5 c 128,-1,50
 604 565 604 565 543 546 c 1,51,52
 647 546 647 546 724.5 522 c 128,-1,53
 802 498 802 498 853 454 c 128,-1,54
 904 410 904 410 929 348.5 c 128,-1,55
 954 287 954 287 954 214 c 0,56,57
 954 137 954 137 927 61.5 c 128,-1,58
 900 -14 900 -14 849.5 -80.5 c 128,-1,59
 799 -147 799 -147 726.5 -200.5 c 128,-1,60
 654 -254 654 -254 563 -287.5 c 128,-1,61
 472 -321 472 -321 364 -330.5 c 0,62,63
 331.429 -333.365 331.429 -333.365 297.675 -333.365 c 0,64,65
 219.508 -333.365 219.508 -333.365 135 -318 c 1,66,67
 135 -290 135 -290 134.5 -263 c 128,-1,68
 134 -236 134 -236 134 -208 c 1,0,1
EndSplineSet
Validated: 524289
EndChar

StartChar: four
Encoding: 52 52 27
Width: 1256
Flags: HW
LayerCount: 2
Fore
SplineSet
86 94 m 1,0,1
 241 371.5 l 1,2,-1
 394.5 648.5 l 1,3,-1
 547.5 943 l 1,4,5
 624 1096 624 1096 702 1273 c 1,6,-1
 765 1273 l 1,7,-1
 883 1185 l 1,8,-1
 329 219 l 1,9,-1
 257 117 l 1,10,-1
 751 146 l 1,11,-1
 754 614 l 1,12,-1
 930 654 l 1,13,-1
 930 156 l 1,14,-1
 1157 170 l 1,15,-1
 1157 0 l 1,16,-1
 930 0 l 1,17,-1
 930 -376 l 1,18,-1
 749 -376 l 1,19,-1
 751 0 l 1,20,-1
 117 0 l 1,21,-1
 86 94 l 1,0,1
EndSplineSet
Validated: 524289
EndChar

StartChar: five
Encoding: 53 53 28
Width: 1079
Flags: HW
LayerCount: 2
Fore
SplineSet
160 -227 m 1,0,1
 192.4 -231.05 192.4 -231.05 225.104 -231.05 c 0,2,3
 265.075 -231.05 265.075 -231.05 305.5 -225 c 0,4,5
 379 -214 379 -214 448 -187.5 c 128,-1,6
 517 -161 517 -161 576.5 -119 c 128,-1,7
 636 -77 636 -77 681 -22.5 c 128,-1,8
 726 32 726 32 751.5 97 c 128,-1,9
 777 162 777 162 777 236 c 0,10,11
 777 325 777 325 755 389 c 128,-1,12
 733 453 733 453 693 495 c 128,-1,13
 653 537 653 537 598 558.5 c 128,-1,14
 543 580 543 580 477 583.5 c 0,15,16
 462.562 584.266 462.562 584.266 447.742 584.266 c 0,17,18
 394.812 584.266 394.812 584.266 337 574.5 c 0,19,20
 263 562 263 562 186 536 c 1,21,-1
 151 566 l 1,22,-1
 230 1237 l 1,23,-1
 791 1237 l 1,24,-1
 902 1249 l 1,25,-1
 853 1072 l 1,26,-1
 376 1072 l 1,27,-1
 304 657 l 1,28,29
 432.224 701.879 432.224 701.879 546.608 701.878 c 0,30,31
 557.112 701.878 557.112 701.878 567.5 701.5 c 0,32,33
 691 697 691 697 783 644.5 c 128,-1,34
 875 592 875 592 928.5 494 c 128,-1,35
 982 396 982 396 982 259 c 0,36,37
 982 189 982 189 958 116.5 c 128,-1,38
 934 44 934 44 889.5 -24 c 128,-1,39
 845 -92 845 -92 781 -151.5 c 128,-1,40
 717 -211 717 -211 637 -255.5 c 128,-1,41
 557 -300 557 -300 462.5 -325.5 c 128,-1,42
 368 -351 368 -351 262 -351 c 0,43,44
 237 -351 237 -351 211 -348 c 128,-1,45
 185 -345 185 -345 159 -337 c 1,46,47
 159 -309 159 -309 159.5 -282 c 128,-1,48
 160 -255 160 -255 160 -227 c 1,0,1
EndSplineSet
Validated: 524289
EndChar

StartChar: six
Encoding: 54 54 29
Width: 1251
Flags: HW
LayerCount: 2
Fore
SplineSet
127 563 m 0,0,1
 127 692 127 692 162.5 808.5 c 128,-1,2
 198 925 198 925 260 1026.5 c 128,-1,3
 322 1128 322 1128 405.5 1213 c 128,-1,4
 489 1298 489 1298 584.5 1363 c 128,-1,5
 680 1428 680 1428 783 1471.5 c 128,-1,6
 886 1515 886 1515 987 1534 c 1,7,-1
 1028 1450 l 1,8,9
 865 1397 865 1397 737.5 1311 c 128,-1,10
 610 1225 610 1225 521.5 1119.5 c 128,-1,11
 433 1014 433 1014 385 897.5 c 128,-1,12
 337.059 781.143 337.059 781.143 333 667 c 0,13,14
 332 638.879 332 638.879 332 611.875 c 0,15,16
 332 529.75 332 529.75 341 451 c 0,17,18
 353 346 353 346 390.5 264 c 128,-1,19
 428 182 428 182 494.5 132.5 c 128,-1,20
 561 83 561 83 666 83 c 0,21,22
 742 83 742 83 797 116.5 c 128,-1,23
 852 150 852 150 887.5 203 c 128,-1,24
 923 256 923 256 940 321 c 128,-1,25
 957 386 957 386 957 449 c 0,26,27
 957 544 957 544 938 617 c 128,-1,28
 919 690 919 690 886 739 c 128,-1,29
 853 788 853 788 808 813 c 128,-1,30
 763 838 763 838 710 838 c 0,31,32
 678 838 678 838 647.5 832.5 c 128,-1,33
 617 827 617 827 590.5 818.5 c 128,-1,34
 564 810 564 810 543 799 c 128,-1,35
 522 788 522 788 509 778 c 1,36,-1
 465 857 l 1,37,38
 484 879 484 879 515 899 c 128,-1,39
 546 919 546 919 585 934.5 c 128,-1,40
 624 950 624 950 669 959 c 128,-1,41
 714 968 714 968 762 968 c 0,42,43
 858 968 858 968 929.5 929 c 128,-1,44
 1001 890 1001 890 1048.5 828 c 128,-1,45
 1096 766 1096 766 1119.5 687.5 c 128,-1,46
 1143 609 1143 609 1143 530 c 0,47,48
 1143 466 1143 466 1128 400 c 128,-1,49
 1113 334 1113 334 1083 273 c 128,-1,50
 1053 212 1053 212 1009.5 158.5 c 128,-1,51
 966 105 966 105 909.5 65 c 128,-1,52
 853 25 853 25 783.5 2 c 128,-1,53
 714 -21 714 -21 633 -21 c 0,54,55
 514 -21 514 -21 420 26 c 128,-1,56
 326 73 326 73 261 153 c 128,-1,57
 196 233 196 233 161.5 339 c 128,-1,58
 127 445 127 445 127 563 c 0,0,1
EndSplineSet
Validated: 524289
EndChar

StartChar: seven
Encoding: 55 55 30
Width: 1256
Flags: HW
LayerCount: 2
Fore
SplineSet
959 1111 m 1,0,-1
 341 1096 l 1,1,-1
 247 917 l 1,2,-1
 148 927 l 1,3,-1
 196 1253 l 1,4,-1
 1089 1253 l 1,5,-1
 1124 1214 l 1,6,-1
 545 -324 l 1,7,-1
 347 -254 l 1,8,-1
 959 1111 l 1,0,-1
EndSplineSet
Validated: 1
EndChar

StartChar: eight
Encoding: 56 56 31
Width: 1241
Flags: HW
LayerCount: 2
Fore
SplineSet
122 373 m 0,0,1
 122 429 122 429 141.5 485.5 c 128,-1,2
 161 542 161 542 200 595 c 128,-1,3
 239 648 239 648 298 696.5 c 128,-1,4
 357 745 357 745 435 784 c 1,5,6
 385 818 385 818 342 857 c 128,-1,7
 299 896 299 896 267.5 942.5 c 128,-1,8
 236 989 236 989 217.5 1044 c 128,-1,9
 199 1099 199 1099 199 1165 c 0,10,11
 199 1264 199 1264 238 1337 c 128,-1,12
 277 1410 277 1410 340.5 1457.5 c 128,-1,13
 404 1505 404 1505 485 1528 c 128,-1,14
 566 1551 566 1551 649 1551 c 0,15,16
 735 1551 735 1551 809.5 1526.5 c 128,-1,17
 884 1502 884 1502 939.5 1457 c 128,-1,18
 995 1412 995 1412 1026.5 1348 c 128,-1,19
 1058 1284 1058 1284 1058 1206 c 0,20,21
 1058 1150 1058 1150 1038.5 1089.5 c 128,-1,22
 1019 1029 1019 1029 982.5 972 c 128,-1,23
 946 915 946 915 895 866.5 c 128,-1,24
 844 818 844 818 781 786 c 1,25,26
 847 746 847 746 908.5 704 c 128,-1,27
 970 662 970 662 1017.5 615.5 c 128,-1,28
 1065 569 1065 569 1094 516.5 c 128,-1,29
 1123 464 1123 464 1124 403 c 1,30,31
 1124 397.938 l 2,32,33
 1124 288.18 1124 288.18 1081.5 209 c 0,34,35
 1038 128 1038 128 966.5 75 c 128,-1,36
 895 22 895 22 805 -3 c 128,-1,37
 715 -28 715 -28 625 -28 c 0,38,39
 567 -28 567 -28 507 -17.5 c 128,-1,40
 447 -7 447 -7 391 14 c 128,-1,41
 335 35 335 35 286 67.5 c 128,-1,42
 237 100 237 100 200.5 145 c 128,-1,43
 164 190 164 190 143 246.5 c 128,-1,44
 122 303 122 303 122 373 c 0,0,1
676 850 m 1,45,46
 718 861 718 861 757 891.5 c 128,-1,47
 796 922 796 922 825.5 962.5 c 128,-1,48
 855 1003 855 1003 873.5 1050 c 128,-1,49
 892 1097 892 1097 894 1142 c 0,50,51
 894.409 1151.55 894.409 1151.55 894.409 1160.87 c 0,52,53
 894.409 1219.91 894.409 1219.91 878 1270 c 0,54,55
 859 1328 859 1328 824.5 1369 c 128,-1,56
 790 1410 790 1410 741.5 1432.5 c 128,-1,57
 693 1455 693 1455 638 1455 c 0,58,59
 585 1455 585 1455 535 1437 c 128,-1,60
 485 1419 485 1419 445 1385.5 c 128,-1,61
 405 1352 405 1352 381 1304.5 c 128,-1,62
 357 1257 357 1257 357 1198 c 0,63,64
 357 1145 357 1145 383 1098 c 128,-1,65
 409 1051 409 1051 453.5 1009 c 128,-1,66
 498 967 498 967 555.5 927.5 c 128,-1,67
 613 888 613 888 676 850 c 1,45,46
306 420 m 0,68,69
 306 349 306 349 330 286 c 128,-1,70
 354 223 354 223 399 176 c 128,-1,71
 444 129 444 129 509 101.5 c 128,-1,72
 574 74 574 74 657 74 c 0,73,74
 709 74 709 74 761.5 92.5 c 128,-1,75
 814 111 814 111 856 144.5 c 128,-1,76
 898 178 898 178 924 226 c 128,-1,77
 950 274 950 274 950 333 c 0,78,79
 950 400 950 400 913 452.5 c 128,-1,80
 876 505 876 505 816 550.5 c 128,-1,81
 756 596 756 596 681 637 c 1,82,-1
 530 723 l 1,83,84
 485 702 485 702 444.5 671 c 128,-1,85
 404 640 404 640 373.5 601.5 c 128,-1,86
 343 563 343 563 324.5 517 c 128,-1,87
 306 471 306 471 306 420 c 0,68,69
EndSplineSet
Validated: 524289
EndChar

StartChar: nine
Encoding: 57 57 32
Width: 1266
Flags: HW
LayerCount: 2
Fore
SplineSet
244 -319 m 1,0,1
 353 -284 353 -284 444.5 -227.5 c 128,-1,2
 536 -171 536 -171 610.5 -99.5 c 128,-1,3
 685 -28 685 -28 742 54.5 c 128,-1,4
 799 137 799 137 838 224 c 128,-1,5
 877 311 877 311 898.5 398 c 128,-1,6
 920 485 920 485 923 566 c 0,7,8
 924.185 598.889 924.185 598.889 924.185 631.251 c 0,9,10
 924.185 708.111 924.185 708.111 917.5 782 c 0,11,12
 908 887 908 887 873.5 969 c 128,-1,13
 839 1051 839 1051 775 1100.5 c 128,-1,14
 711 1150 711 1150 606 1150 c 0,15,16
 530 1150 530 1150 475 1116.5 c 128,-1,17
 420 1083 420 1083 384.5 1030 c 128,-1,18
 349 977 349 977 332 912 c 128,-1,19
 315 847 315 847 315 784 c 0,20,21
 315 689 315 689 334 616 c 128,-1,22
 353 543 353 543 386 494 c 128,-1,23
 419 445 419 445 464 420 c 128,-1,24
 509 395 509 395 562 395 c 0,25,26
 594 395 594 395 624.5 400.5 c 128,-1,27
 655 406 655 406 681.5 414.5 c 128,-1,28
 708 423 708 423 729 433.5 c 128,-1,29
 750 444 750 444 763 455 c 1,30,-1
 807 376 l 1,31,32
 788 354 788 354 757 334 c 128,-1,33
 726 314 726 314 687 298.5 c 128,-1,34
 648 283 648 283 603 274 c 128,-1,35
 558 265 558 265 510 265 c 0,36,37
 414 265 414 265 342.5 304 c 128,-1,38
 271 343 271 343 223.5 405 c 128,-1,39
 176 467 176 467 152.5 545.5 c 128,-1,40
 129 624 129 624 129 703 c 0,41,42
 129 767 129 767 144 833 c 128,-1,43
 159 899 159 899 189 960 c 128,-1,44
 219 1021 219 1021 262.5 1074.5 c 128,-1,45
 306 1128 306 1128 362.5 1168 c 128,-1,46
 419 1208 419 1208 488.5 1231 c 128,-1,47
 558 1254 558 1254 639 1254 c 0,48,49
 758 1254 758 1254 849.5 1206.5 c 128,-1,50
 941 1159 941 1159 1002.5 1078.5 c 128,-1,51
 1064 998 1064 998 1095.5 892.5 c 128,-1,52
 1127 787 1127 787 1127 670 c 0,53,54
 1127 534 1127 534 1092.5 406.5 c 128,-1,55
 1058 279 1058 279 997.5 166 c 128,-1,56
 937 53 937 53 856 -43.5 c 128,-1,57
 775 -140 775 -140 681 -214 c 128,-1,58
 587 -288 587 -288 485 -337 c 128,-1,59
 383 -386 383 -386 282 -405 c 1,60,-1
 280 -405 l 1,61,-1
 244 -319 l 1,0,1
EndSplineSet
Validated: 524289
EndChar

StartChar: percent
Encoding: 37 37 33
Width: 2111
Flags: W
LayerCount: 2
Fore
SplineSet
1255 1601 m 1,0,-1
 1414 1601 l 1,1,-1
 868 0 l 1,2,-1
 709 0 l 1,3,-1
 1255 1601 l 1,0,-1
577 692 m 0,4,5
 506 690 506 690 450 719 c 128,-1,6
 394 748 394 748 355 797.5 c 128,-1,7
 316 847 316 847 295 913.5 c 128,-1,8
 274 980 274 980 274 1053 c 0,9,10
 274 1143 274 1143 301 1211.5 c 128,-1,11
 328 1280 328 1280 374 1327.5 c 128,-1,12
 420 1375 420 1375 480 1400 c 128,-1,13
 540 1425 540 1425 605 1427 c 0,14,15
 684 1430 684 1430 741 1401.5 c 128,-1,16
 798 1373 798 1373 835 1323 c 128,-1,17
 872 1273 872 1273 889.5 1205.5 c 128,-1,18
 907 1138 907 1138 907 1062 c 0,19,20
 907 973 907 973 880 904.5 c 128,-1,21
 853 836 853 836 807 789.5 c 128,-1,22
 761 743 761 743 701.5 718.5 c 128,-1,23
 642 694 642 694 577 692 c 0,4,5
589 795 m 0,24,25
 667 795 667 795 707.5 864 c 128,-1,26
 748 933 748 933 748 1055 c 0,27,28
 748 1116 748 1116 737.5 1165.5 c 128,-1,29
 727 1215 727 1215 707.5 1250.5 c 128,-1,30
 688 1286 688 1286 659 1305.5 c 128,-1,31
 630 1325 630 1325 593 1325 c 0,32,33
 554 1325 554 1325 524.5 1306.5 c 128,-1,34
 495 1288 495 1288 475 1253.5 c 128,-1,35
 455 1219 455 1219 444.5 1170.5 c 128,-1,36
 434 1122 434 1122 434 1061 c 0,37,38
 434 1004 434 1004 444.5 955.5 c 128,-1,39
 455 907 455 907 474.5 871.5 c 128,-1,40
 494 836 494 836 523 815.5 c 128,-1,41
 552 795 552 795 589 795 c 0,24,25
1224 525 m 0,42,43
 1224 615 1224 615 1251 683.5 c 128,-1,44
 1278 752 1278 752 1324 799.5 c 128,-1,45
 1370 847 1370 847 1430 872 c 128,-1,46
 1490 897 1490 897 1555 899 c 0,47,48
 1634 902 1634 902 1691 873.5 c 128,-1,49
 1748 845 1748 845 1785 795 c 128,-1,50
 1822 745 1822 745 1839.5 677.5 c 128,-1,51
 1857 610 1857 610 1857 534 c 0,52,53
 1857 445 1857 445 1830 376.5 c 128,-1,54
 1803 308 1803 308 1757 261.5 c 128,-1,55
 1711 215 1711 215 1651.5 190.5 c 128,-1,56
 1592 166 1592 166 1527 164 c 0,57,58
 1456 162 1456 162 1400 191 c 128,-1,59
 1344 220 1344 220 1305 269.5 c 128,-1,60
 1266 319 1266 319 1245 385.5 c 128,-1,61
 1224 452 1224 452 1224 525 c 0,42,43
1384 533 m 0,62,63
 1384 476 1384 476 1394.5 427.5 c 128,-1,64
 1405 379 1405 379 1424.5 343.5 c 128,-1,65
 1444 308 1444 308 1473 287.5 c 128,-1,66
 1502 267 1502 267 1539 267 c 0,67,68
 1617 267 1617 267 1657.5 336 c 128,-1,69
 1698 405 1698 405 1698 527 c 0,70,71
 1698 588 1698 588 1687.5 637.5 c 128,-1,72
 1677 687 1677 687 1657.5 722.5 c 128,-1,73
 1638 758 1638 758 1609 777.5 c 128,-1,74
 1580 797 1580 797 1543 797 c 0,75,76
 1504 797 1504 797 1474.5 778.5 c 128,-1,77
 1445 760 1445 760 1425 725.5 c 128,-1,78
 1405 691 1405 691 1394.5 642.5 c 128,-1,79
 1384 594 1384 594 1384 533 c 0,62,63
EndSplineSet
Validated: 33
EndChar

StartChar: plus
Encoding: 43 43 34
Width: 1233
Flags: HW
LayerCount: 2
Fore
SplineSet
532 561 m 1,0,-1
 539 719 l 1,1,-1
 380 710 l 1,2,-1
 160 710 l 1,3,-1
 160 883 l 1,4,-1
 380 883 l 1,5,-1
 539 871 l 1,6,-1
 532 1032 l 1,7,-1
 532 1260 l 1,8,-1
 699 1260 l 1,9,-1
 699 1032 l 1,10,-1
 692 871 l 1,11,-1
 822 883 l 1,12,-1
 1073 883 l 1,13,-1
 1073 710 l 1,14,-1
 822 710 l 1,15,-1
 692 719 l 1,16,-1
 699 561 l 1,17,-1
 699 321 l 1,18,-1
 532 321 l 1,19,-1
 532 561 l 1,0,-1
EndSplineSet
Validated: 1
EndChar

StartChar: equal
Encoding: 61 61 35
Width: 1205
Flags: HW
LayerCount: 2
Fore
SplineSet
160 1039 m 1,0,-1
 1045 1039 l 1,1,-1
 1045 892 l 1,2,-1
 160 892 l 1,3,-1
 160 1039 l 1,0,-1
160 702 m 1,4,-1
 1045 702 l 1,5,-1
 1045 555 l 1,6,-1
 160 555 l 1,7,-1
 160 702 l 1,4,-1
EndSplineSet
Validated: 1
EndChar

StartChar: less
Encoding: 60 60 36
Width: 1519
Flags: HW
LayerCount: 2
Fore
SplineSet
200 818 m 1,0,-1
 1169 1313 l 1,1,-1
 1169 1130 l 1,2,-1
 370 751 l 1,3,-1
 1169 374 l 1,4,-1
 1169 190 l 1,5,-1
 200 684 l 1,6,-1
 200 818 l 1,0,-1
EndSplineSet
Validated: 1
EndChar

StartChar: greater
Encoding: 62 62 37
Width: 1519
Flags: HW
LayerCount: 2
Fore
SplineSet
350 373 m 1,0,-1
 1149 751 l 1,1,-1
 350 1129 l 1,2,-1
 350 1313 l 1,3,-1
 1319 819 l 1,4,-1
 1319 685 l 1,5,-1
 350 190 l 1,6,-1
 350 373 l 1,0,-1
EndSplineSet
Validated: 1
EndChar

StartChar: numbersign
Encoding: 35 35 38
Width: 1431
Flags: W
LayerCount: 2
Fore
SplineSet
371 365 m 1,0,-1
 150 365 l 1,1,-1
 150 493 l 1,2,-1
 376 493 l 1,3,-1
 407 898 l 1,4,-1
 172 898 l 1,5,-1
 172 1025 l 1,6,-1
 414 1025 l 1,7,-1
 441 1355 l 1,8,-1
 606 1355 l 1,9,-1
 581 1025 l 1,10,-1
 895 1025 l 1,11,-1
 922 1355 l 1,12,-1
 1087 1355 l 1,13,-1
 1062 1025 l 1,14,-1
 1281 1025 l 1,15,-1
 1281 898 l 1,16,-1
 1055 898 l 1,17,-1
 1023 493 l 1,18,-1
 1246 493 l 1,19,20
 1246 461 1246 461 1246.5 429 c 128,-1,21
 1247 397 1247 397 1247 365 c 1,22,-1
 1018 365 l 1,23,-1
 988 0 l 1,24,-1
 828 0 l 1,25,-1
 852 365 l 1,26,-1
 537 365 l 1,27,-1
 505 0 l 1,28,-1
 343 0 l 1,29,-1
 371 365 l 1,0,-1
857 493 m 1,30,-1
 888 898 l 1,31,-1
 574 898 l 1,32,-1
 542 493 l 1,33,-1
 857 493 l 1,30,-1
EndSplineSet
Validated: 1
EndChar

StartChar: ampersand
Encoding: 38 38 39
Width: 1569
Flags: W
LayerCount: 2
Fore
SplineSet
177 368 m 0,0,1
 177 439 177 439 200.5 498 c 128,-1,2
 224 557 224 557 266 606.5 c 128,-1,3
 308 656 308 656 366.5 697.5 c 128,-1,4
 425 739 425 739 495 776 c 1,5,6
 464 820 464 820 432.5 867 c 128,-1,7
 401 914 401 914 376 964 c 128,-1,8
 351 1014 351 1014 335 1068 c 128,-1,9
 319 1122 319 1122 319 1180 c 0,10,11
 319 1272 319 1272 348.5 1343.5 c 128,-1,12
 378 1415 378 1415 430 1464 c 128,-1,13
 482 1513 482 1513 552 1538.5 c 128,-1,14
 622 1564 622 1564 702 1564 c 0,15,16
 792 1564 792 1564 856 1536.5 c 128,-1,17
 920 1509 920 1509 961.5 1462.5 c 128,-1,18
 1003 1416 1003 1416 1022.5 1356 c 128,-1,19
 1042 1296 1042 1296 1042 1231 c 0,20,21
 1042 1156 1042 1156 1012.5 1089 c 128,-1,22
 983 1022 983 1022 936 965 c 128,-1,23
 889 908 889 908 831 861.5 c 128,-1,24
 773 815 773 815 717 779 c 1,25,26
 740 749 740 749 773 709 c 128,-1,27
 806 669 806 669 843.5 624.5 c 128,-1,28
 881 580 881 580 921 534 c 128,-1,29
 961 488 961 488 999.5 445 c 128,-1,30
 1038 402 1038 402 1072.5 365 c 128,-1,31
 1107 328 1107 328 1134 303 c 1,32,33
 1144 328 1144 328 1149 354.5 c 128,-1,34
 1154 381 1154 381 1156.5 406.5 c 128,-1,35
 1159 432 1159 432 1159 455 c 2,36,-1
 1159 499 l 2,37,38
 1159 551 1159 551 1154.5 592.5 c 128,-1,39
 1150 634 1150 634 1144 664.5 c 128,-1,40
 1138 695 1138 695 1131.5 713.5 c 128,-1,41
 1125 732 1125 732 1121 738 c 1,42,-1
 1306 738 l 1,43,44
 1317 700 1317 700 1326 652 c 128,-1,45
 1335 604 1335 604 1335 543 c 0,46,47
 1335 505 1335 505 1330.5 462.5 c 128,-1,48
 1326 420 1326 420 1315.5 376.5 c 128,-1,49
 1305 333 1305 333 1287.5 290.5 c 128,-1,50
 1270 248 1270 248 1243 210 c 1,51,52
 1303 165 1303 165 1359 137 c 128,-1,53
 1415 109 1415 109 1469 101 c 1,54,-1
 1469 16 l 1,55,56
 1405 -4 1405 -4 1326 10 c 0,57,58
 1278 18 1278 18 1227.5 38 c 128,-1,59
 1177 58 1177 58 1123 93 c 1,60,61
 1086 61 1086 61 1038.5 38 c 128,-1,62
 991 15 991 15 940 -1 c 128,-1,63
 889 -17 889 -17 836.5 -24.5 c 128,-1,64
 784 -32 784 -32 736 -32 c 0,65,66
 683 -32 683 -32 621.5 -25.5 c 128,-1,67
 560 -19 560 -19 498 -2 c 128,-1,68
 436 15 436 15 378 43.5 c 128,-1,69
 320 72 320 72 275.5 116.5 c 128,-1,70
 231 161 231 161 204 223 c 128,-1,71
 177 285 177 285 177 368 c 0,0,1
359 394 m 0,72,73
 359 320 359 320 390 263 c 128,-1,74
 421 206 421 206 473.5 167 c 128,-1,75
 526 128 526 128 596 107.5 c 128,-1,76
 666 87 666 87 745 87 c 0,77,78
 788 87 788 87 829 90.5 c 128,-1,79
 870 94 870 94 906 102.5 c 128,-1,80
 942 111 942 111 973.5 126 c 128,-1,81
 1005 141 1005 141 1030 164 c 1,82,83
 995 194 995 194 953 235 c 128,-1,84
 911 276 911 276 866.5 322.5 c 128,-1,85
 822 369 822 369 777 419 c 128,-1,86
 732 469 732 469 690.5 518 c 128,-1,87
 649 567 649 567 613.5 611.5 c 128,-1,88
 578 656 578 656 552 693 c 1,89,90
 504 661 504 661 467.5 631 c 128,-1,91
 431 601 431 601 407 566.5 c 128,-1,92
 383 532 383 532 371 490.5 c 128,-1,93
 359 449 359 449 359 394 c 0,72,73
654 857 m 1,94,95
 703 883 703 883 744 917 c 128,-1,96
 785 951 785 951 815 993.5 c 128,-1,97
 845 1036 845 1036 861.5 1087.5 c 128,-1,98
 878 1139 878 1139 878 1201 c 0,99,100
 878 1240 878 1240 870 1286 c 128,-1,101
 862 1332 862 1332 840 1371.5 c 128,-1,102
 818 1411 818 1411 779.5 1438 c 128,-1,103
 741 1465 741 1465 681 1465 c 0,104,105
 651 1465 651 1465 617 1454 c 128,-1,106
 583 1443 583 1443 554.5 1417.5 c 128,-1,107
 526 1392 526 1392 507 1350 c 128,-1,108
 488 1308 488 1308 488 1245 c 0,109,110
 488 1175 488 1175 504.5 1116.5 c 128,-1,111
 521 1058 521 1058 546 1010 c 128,-1,112
 571 962 571 962 600 924 c 128,-1,113
 629 886 629 886 654 857 c 1,94,95
EndSplineSet
Validated: 33
EndChar

StartChar: asterisk
Encoding: 42 42 40
Width: 1295
Flags: HW
LayerCount: 2
Fore
SplineSet
584 1126 m 1,0,-1
 611 1231 l 1,1,-1
 547 1160 l 1,2,-1
 251 927 l 1,3,-1
 151 1068 l 1,4,-1
 494 1248 l 1,5,-1
 586 1278 l 1,6,-1
 496 1308 l 1,7,-1
 150 1482 l 1,8,-1
 248 1626 l 1,9,-1
 543 1396 l 1,10,-1
 611 1327 l 1,11,-1
 584 1441 l 1,12,-1
 550 1786 l 1,13,14
 596 1786 596 1786 641.5 1785.5 c 128,-1,15
 687 1785 687 1785 733 1785 c 1,16,-1
 702 1441 l 1,17,-1
 670 1327 l 1,18,-1
 756 1409 l 1,19,-1
 1032 1624 l 1,20,-1
 1145 1481 l 1,21,-1
 794 1314 l 1,22,-1
 694 1278 l 1,23,-1
 794 1245 l 1,24,-1
 1144 1066 l 1,25,-1
 1030 929 l 1,26,-1
 741 1162 l 1,27,-1
 671 1231 l 1,28,-1
 699 1126 l 1,29,-1
 733 768 l 1,30,-1
 550 768 l 1,31,-1
 584 1126 l 1,0,-1
EndSplineSet
Validated: 1
EndChar

StartChar: at
Encoding: 64 64 41
Width: 2133
Flags: HW
LayerCount: 2
Fore
SplineSet
223 416 m 0,0,1
 223 572 223 572 259.5 708.5 c 128,-1,2
 296 845 296 845 361.5 958.5 c 128,-1,3
 427 1072 427 1072 518 1161 c 128,-1,4
 609 1250 609 1250 718 1311.5 c 128,-1,5
 827 1373 827 1373 950 1405.5 c 128,-1,6
 1073 1438 1073 1438 1203 1438 c 0,7,8
 1347 1438 1347 1438 1472 1395 c 128,-1,9
 1597 1352 1597 1352 1689.5 1271.5 c 128,-1,10
 1782 1191 1782 1191 1835 1075 c 128,-1,11
 1888 959 1888 959 1888 812 c 0,12,13
 1888 675 1888 675 1863.5 564 c 128,-1,14
 1839 453 1839 453 1797 367 c 128,-1,15
 1755 281 1755 281 1700.5 219 c 128,-1,16
 1646 157 1646 157 1586 116.5 c 128,-1,17
 1526 76 1526 76 1464 57 c 128,-1,18
 1402 38 1402 38 1347 38 c 0,19,20
 1324 38 1324 38 1303.5 46.5 c 128,-1,21
 1283 55 1283 55 1267 73.5 c 128,-1,22
 1251 92 1251 92 1240.5 121.5 c 128,-1,23
 1230 151 1230 151 1226 194 c 0,24,25
 1223.5 214 1223.5 214 1223.5 239.875 c 128,-1,26
 1223.5 265.75 1223.5 265.75 1226 297.5 c 0,27,28
 1231 361 1231 361 1248 465 c 1,29,30
 1216 384 1216 384 1173 305 c 128,-1,31
 1130 226 1130 226 1079 164 c 128,-1,32
 1028 102 1028 102 972 63.5 c 128,-1,33
 916 25 916 25 858 25 c 0,34,35
 812 25 812 25 766.5 52.5 c 128,-1,36
 721 80 721 80 685 132.5 c 128,-1,37
 649 185 649 185 626.5 260 c 128,-1,38
 604 335 604 335 604 430 c 0,39,40
 604 494 604 494 617.5 565.5 c 128,-1,41
 631 637 631 637 658 706 c 128,-1,42
 685 775 685 775 723.5 838 c 128,-1,43
 762 901 762 901 813 949 c 128,-1,44
 864 997 864 997 925.5 1025.5 c 128,-1,45
 987 1054 987 1054 1059 1054 c 0,46,47
 1084 1054 1084 1054 1117.5 1051 c 128,-1,48
 1151 1048 1151 1048 1186 1042 c 128,-1,49
 1221 1036 1221 1036 1255 1026.5 c 128,-1,50
 1289 1017 1289 1017 1315 1003 c 1,51,52
 1321 1021 1321 1021 1331 1037 c 128,-1,53
 1341 1053 1341 1053 1360 1049 c 1,54,55
 1417 1030 l 1,56,-1
 1478 1009 l 1,57,58
 1466 955 1466 955 1454 879 c 128,-1,59
 1442 803 1442 803 1431.5 720 c 128,-1,60
 1421 637 1421 637 1411.5 553 c 2,61,-1
 1394 398 l 2,62,63
 1388 344.723 1388 344.723 1387.5 300.5 c 0,64,65
 1387.45 296.05 1387.45 296.05 1387.45 291.725 c 0,66,67
 1387.45 252.8 1387.45 252.8 1391.5 224 c 0,68,69
 1396 192 1396 192 1404.5 174 c 128,-1,70
 1413 156 1413 156 1425 156 c 0,71,72
 1454 156 1454 156 1489.5 176.5 c 128,-1,73
 1525 197 1525 197 1561 234.5 c 128,-1,74
 1597 272 1597 272 1631 324.5 c 128,-1,75
 1665 377 1665 377 1691 441.5 c 128,-1,76
 1717 506 1717 506 1733 580 c 128,-1,77
 1749 654 1749 654 1749 735 c 0,78,79
 1749 842 1749 842 1724.5 926 c 128,-1,80
 1700 1010 1700 1010 1656.5 1073.5 c 128,-1,81
 1613 1137 1613 1137 1553.5 1181.5 c 128,-1,82
 1494 1226 1494 1226 1424.5 1254 c 128,-1,83
 1355 1282 1355 1282 1278.5 1294.5 c 128,-1,84
 1202 1307 1202 1307 1124 1307 c 0,85,86
 1025 1307 1025 1307 930 1283 c 128,-1,87
 835 1259 835 1259 751.5 1212.5 c 128,-1,88
 668 1166 668 1166 598 1096 c 128,-1,89
 528 1026 528 1026 477 934.5 c 128,-1,90
 426 843 426 843 398 729.5 c 128,-1,91
 370 616 370 616 370 482 c 256,92,93
 370 348 370 348 396.5 242 c 128,-1,94
 423 136 423 136 470.5 56 c 128,-1,95
 518 -24 518 -24 584 -80.5 c 128,-1,96
 650 -137 650 -137 730 -172.5 c 128,-1,97
 810 -208 810 -208 900.5 -224.5 c 128,-1,98
 991 -241 991 -241 1088 -241 c 0,99,100
 1132 -241 1132 -241 1182.5 -235.5 c 128,-1,101
 1233 -230 1233 -230 1280.5 -221 c 128,-1,102
 1328 -212 1328 -212 1368.5 -200.5 c 128,-1,103
 1409 -189 1409 -189 1434 -177 c 1,104,-1
 1471 -262 l 1,105,106
 1438 -288 1438 -288 1386 -309.5 c 128,-1,107
 1334 -331 1334 -331 1272.5 -346 c 128,-1,108
 1211 -361 1211 -361 1143.5 -369.5 c 128,-1,109
 1076 -378 1076 -378 1012 -378 c 0,110,111
 841 -378 841 -378 696.5 -322.5 c 128,-1,112
 552 -267 552 -267 447 -164 c 128,-1,113
 342 -61 342 -61 282.5 86 c 128,-1,114
 223 233 223 233 223 416 c 0,0,1
761 506 m 0,115,116
 761 481 761 481 763 448 c 128,-1,117
 765 415 765 415 770 380 c 128,-1,118
 775 345 775 345 784.5 311.5 c 128,-1,119
 794 278 794 278 809.5 251.5 c 128,-1,120
 825 225 825 225 847 209 c 128,-1,121
 869 193 869 193 900 193 c 0,122,123
 933 193 933 193 972 225 c 128,-1,124
 1011 257 1011 257 1050.5 310 c 128,-1,125
 1090 363 1090 363 1127 431.5 c 128,-1,126
 1164 500 1164 500 1195 572 c 128,-1,127
 1226 644 1226 644 1247.5 714 c 128,-1,128
 1269 784 1269 784 1276 841 c 1,129,130
 1261 857 1261 857 1234.5 869.5 c 128,-1,131
 1208 882 1208 882 1177.5 890.5 c 128,-1,132
 1147 899 1147 899 1116.5 903 c 128,-1,133
 1086 907 1086 907 1062 907 c 0,134,135
 979 907 979 907 921.5 874.5 c 128,-1,136
 864 842 864 842 828.5 786.5 c 128,-1,137
 793 731 793 731 777 658.5 c 128,-1,138
 761 586 761 586 761 506 c 0,115,116
EndSplineSet
Validated: 524289
EndChar

StartChar: period
Encoding: 46 46 42
Width: 706
Flags: HW
LayerCount: 2
Fore
SplineSet
215 101 m 0,0,1
 215 132 215 132 228.5 159 c 128,-1,2
 242 186 242 186 263 205.5 c 128,-1,3
 284 225 284 225 310.5 236 c 128,-1,4
 337 247 337 247 364 247 c 0,5,6
 430 247 430 247 460.5 210.5 c 128,-1,7
 491 174 491 174 491 123 c 0,8,9
 491 90 491 90 478 63 c 128,-1,10
 465 36 465 36 444 17.5 c 128,-1,11
 423 -0.999998 423 -0.999998 396 -11.5 c 128,-1,12
 369 -22 369 -22 341 -22 c 0,13,14
 317 -22 317 -22 294 -13.5 c 128,-1,15
 271 -5 271 -5 253.5 10.5 c 128,-1,16
 236 26 236 26 225.5 49 c 128,-1,17
 215 72 215 72 215 101 c 0,0,1
EndSplineSet
Validated: 524289
EndChar

StartChar: bullet
Encoding: 8226 8226 43
Width: 841
Flags: W
LayerCount: 2
Fore
SplineSet
411 509 m 0,0,1
 369 509 369 509 332.5 526.5 c 128,-1,2
 296 544 296 544 269 573.5 c 128,-1,3
 242 603 242 603 227.5 642 c 128,-1,4
 213 681 213 681 216 724 c 0,5,6
 219 769 219 769 237.5 808 c 128,-1,7
 256 847 256 847 285 876 c 128,-1,8
 314 905 314 905 351.5 921.5 c 128,-1,9
 389 938 389 938 430 938 c 256,10,11
 471 938 471 938 508 921.5 c 128,-1,12
 545 905 545 905 572 876 c 128,-1,13
 599 847 599 847 613.5 808 c 128,-1,14
 628 769 628 769 625 724 c 256,15,16
 622 679 622 679 603.5 640 c 128,-1,17
 585 601 585 601 556 572 c 128,-1,18
 527 543 527 543 489.5 526 c 128,-1,19
 452 509 452 509 411 509 c 0,0,1
EndSplineSet
Validated: 33
EndChar

StartChar: comma
Encoding: 44 44 44
Width: 733
Flags: HW
LayerCount: 2
Fore
SplineSet
185 80 m 1,0,-1
 307 235 l 1,1,2
 366 220 366 220 407.5 183 c 128,-1,3
 449 146 449 146 475 99.5 c 128,-1,4
 501 53 501 53 512.5 3 c 128,-1,5
 524 -47 524 -47 524 -87 c 0,6,7
 524 -172 524 -172 495 -247.5 c 128,-1,8
 466 -323 466 -323 420 -385 c 128,-1,9
 374 -447 374 -447 317.5 -492.5 c 128,-1,10
 261 -538 261 -538 206 -562 c 1,11,-1
 150 -510 l 1,12,-1
 150 -474 l 1,13,14
 181 -462 181 -462 214 -430 c 128,-1,15
 247 -398 247 -398 274.5 -355 c 128,-1,16
 302 -312 302 -312 320 -262 c 128,-1,17
 338 -212 338 -212 338 -164 c 0,18,19
 338 -126 338 -126 325 -91.5 c 128,-1,20
 312 -57 312 -57 290.5 -30 c 128,-1,21
 269 -3 269 -3 241.5 14.5 c 128,-1,22
 214 32 214 32 185 35 c 1,23,-1
 185 80 l 1,0,-1
EndSplineSet
Validated: 524289
EndChar

StartChar: colon
Encoding: 58 58 45
Width: 706
Flags: HW
LayerCount: 2
Fore
SplineSet
341 788 m 0,0,1
 317 788 317 788 294 796.5 c 128,-1,2
 271 805 271 805 253.5 820.5 c 128,-1,3
 236 836 236 836 225.5 859 c 128,-1,4
 215 882 215 882 215 911 c 0,5,6
 215 942 215 942 228.5 969 c 128,-1,7
 242 996 242 996 263 1015.5 c 128,-1,8
 284 1035 284 1035 310.5 1046 c 128,-1,9
 337 1057 337 1057 364 1057 c 0,10,11
 430 1057 430 1057 460.5 1020.5 c 128,-1,12
 491 984 491 984 491 933 c 0,13,14
 491 900 491 900 478 873 c 128,-1,15
 465 846 465 846 444 827.5 c 128,-1,16
 423 809 423 809 396 798.5 c 128,-1,17
 369 788 369 788 341 788 c 0,0,1
215 101 m 0,18,19
 215 132 215 132 228.5 159 c 128,-1,20
 242 186 242 186 263 205.5 c 128,-1,21
 284 225 284 225 310.5 236 c 128,-1,22
 337 247 337 247 364 247 c 0,23,24
 430 247 430 247 460.5 210.5 c 128,-1,25
 491 174 491 174 491 123 c 0,26,27
 491 90 491 90 478 63 c 128,-1,28
 465 36 465 36 444 17.5 c 128,-1,29
 423 -0.999998 423 -0.999998 396 -11.5 c 128,-1,30
 369 -22 369 -22 341 -22 c 0,31,32
 317 -22 317 -22 294 -13.5 c 128,-1,33
 271 -5 271 -5 253.5 10.5 c 128,-1,34
 236 26 236 26 225.5 49 c 128,-1,35
 215 72 215 72 215 101 c 0,18,19
EndSplineSet
Validated: 524289
EndChar

StartChar: semicolon
Encoding: 59 59 46
Width: 772
Flags: HW
LayerCount: 2
Fore
SplineSet
341 788 m 0,0,1
 317 788 317 788 294 796.5 c 128,-1,2
 271 805 271 805 253.5 820.5 c 128,-1,3
 236 836 236 836 225.5 859 c 128,-1,4
 215 882 215 882 215 911 c 0,5,6
 215 942 215 942 228.5 969 c 128,-1,7
 242 996 242 996 263 1015.5 c 128,-1,8
 284 1035 284 1035 310.5 1046 c 128,-1,9
 337 1057 337 1057 364 1057 c 0,10,11
 430 1057 430 1057 460.5 1020.5 c 128,-1,12
 491 984 491 984 491 933 c 0,13,14
 491 900 491 900 478 873 c 128,-1,15
 465 846 465 846 444 827.5 c 128,-1,16
 423 809 423 809 396 798.5 c 128,-1,17
 369 788 369 788 341 788 c 0,0,1
224 80 m 1,18,-1
 346 235 l 1,19,20
 405 220 405 220 446.5 183 c 128,-1,21
 488 146 488 146 514 99.5 c 128,-1,22
 540 53 540 53 551.5 3 c 128,-1,23
 563 -47 563 -47 563 -87 c 0,24,25
 563 -172 563 -172 534 -247.5 c 128,-1,26
 505 -323 505 -323 459 -385 c 128,-1,27
 413 -447 413 -447 356.5 -492.5 c 128,-1,28
 300 -538 300 -538 245 -562 c 1,29,-1
 189 -510 l 1,30,-1
 189 -474 l 1,31,32
 220 -462 220 -462 253 -430 c 128,-1,33
 286 -398 286 -398 313.5 -355 c 128,-1,34
 341 -312 341 -312 359 -262 c 128,-1,35
 377 -212 377 -212 377 -164 c 0,36,37
 377 -126 377 -126 364 -91.5 c 128,-1,38
 351 -57 351 -57 329.5 -30 c 128,-1,39
 308 -3 308 -3 280.5 14.5 c 128,-1,40
 253 32 253 32 224 35 c 1,41,-1
 224 80 l 1,18,-1
EndSplineSet
Validated: 524289
EndChar

StartChar: question
Encoding: 63 63 47
Width: 1012
Flags: HW
LayerCount: 2
Fore
SplineSet
502 490 m 1,0,1
 478 508 478 508 447.5 548 c 128,-1,2
 417 588 417 588 389 636.5 c 128,-1,3
 361 685 361 685 341 736.5 c 0,4,5
 317.887 796.015 317.887 796.015 317.887 834.709 c 0,6,7
 317.887 873.944 317.887 873.944 349.5 906.5 c 0,8,9
 383 941 383 941 435 970.5 c 128,-1,10
 487 1000 487 1000 548.5 1025.5 c 2,11,-1
 665 1075 l 2,12,13
 720 1099 720 1099 759.5 1122 c 128,-1,14
 799 1145 799 1145 807 1169 c 1,15,16
 807.781 1181.68 807.781 1181.68 807.781 1194.25 c 0,17,18
 807.781 1246.1 807.781 1246.1 794.5 1296 c 0,19,20
 778 1358 778 1358 746.5 1412.5 c 128,-1,21
 715 1467 715 1467 669.5 1512.5 c 128,-1,22
 624 1558 624 1558 569 1590.5 c 128,-1,23
 514 1623 514 1623 452 1641 c 128,-1,24
 390 1659 390 1659 325 1659 c 0,25,26
 306 1659 306 1659 283 1658 c 128,-1,27
 260 1657 260 1657 237.5 1654.5 c 128,-1,28
 215 1652 215 1652 194.5 1647.5 c 128,-1,29
 174 1643 174 1643 160 1637 c 1,30,-1
 160 1789 l 1,31,32
 168 1799 168 1799 187.5 1807.5 c 128,-1,33
 207 1816 207 1816 233 1822 c 128,-1,34
 259 1828 259 1828 289.5 1831.5 c 128,-1,35
 320 1835 320 1835 350 1835 c 0,36,37
 475 1835 475 1835 571 1805 c 128,-1,38
 667 1775 667 1775 737 1724 c 128,-1,39
 807 1673 807 1673 853 1606.5 c 128,-1,40
 899 1540 899 1540 924.5 1467.5 c 128,-1,41
 950 1395 950 1395 956.5 1321.5 c 0,42,43
 959.226 1290.68 959.226 1290.68 959.226 1261.35 c 0,44,45
 959.226 1220.74 959.226 1220.74 954 1183 c 1,46,47
 954 1146 954 1146 924 1115 c 128,-1,48
 894 1084 894 1084 848 1056 c 128,-1,49
 802 1028 802 1028 747.5 1002.5 c 128,-1,50
 693 977 693 977 643.5 951 c 128,-1,51
 594 925 594 925 557.5 897.5 c 128,-1,52
 521 870 521 870 511 839 c 1,53,54
 508.333 820.778 508.333 820.778 508.333 802.358 c 0,55,56
 508.333 779.333 508.333 779.333 512.5 756 c 0,57,58
 520 714 520 714 535.5 670 c 128,-1,59
 551 626 551 626 570.5 581 c 128,-1,60
 590 536 590 536 607 490 c 1,61,-1
 502 490 l 1,0,1
448 101 m 0,62,63
 448 132 448 132 461.5 159 c 128,-1,64
 475 186 475 186 496 205.5 c 128,-1,65
 517 225 517 225 543.5 236 c 128,-1,66
 570 247 570 247 597 247 c 0,67,68
 663 247 663 247 693.5 210.5 c 128,-1,69
 724 174 724 174 724 123 c 0,70,71
 724 90 724 90 711 63 c 128,-1,72
 698 36 698 36 677 17.5 c 128,-1,73
 656 -0.999998 656 -0.999998 629 -11.5 c 128,-1,74
 602 -22 602 -22 574 -22 c 0,75,76
 550 -22 550 -22 527 -13.5 c 128,-1,77
 504 -4.99999 504 -4.99999 486.5 10.5 c 128,-1,78
 469 26 469 26 458.5 49 c 128,-1,79
 448 72 448 72 448 101 c 0,62,63
EndSplineSet
Validated: 524289
EndChar

StartChar: questiondown
Encoding: 191 191 48
Width: 1012
Flags: HW
LayerCount: 2
Fore
SplineSet
409 1171 m 0,0,1
 385 1171 385 1171 362 1179.5 c 128,-1,2
 339 1188 339 1188 321.5 1203.5 c 128,-1,3
 304 1219 304 1219 293.5 1242 c 128,-1,4
 283 1265 283 1265 283 1294 c 0,5,6
 283 1325 283 1325 296.5 1352 c 128,-1,7
 310 1379 310 1379 331 1398.5 c 128,-1,8
 352 1418 352 1418 378.5 1429 c 128,-1,9
 405 1440 405 1440 432 1440 c 0,10,11
 498 1440 498 1440 528.5 1403.5 c 128,-1,12
 559 1367 559 1367 559 1316 c 0,13,14
 559 1283 559 1283 546 1256 c 128,-1,15
 533 1229 533 1229 512 1210.5 c 128,-1,16
 491 1192 491 1192 464 1181.5 c 128,-1,17
 437 1171 437 1171 409 1171 c 0,0,1
58 235 m 1,18,19
 58 272 58 272 88 303 c 128,-1,20
 118 334 118 334 164 362 c 128,-1,21
 210 390 210 390 264.5 415.5 c 128,-1,22
 319 441 319 441 368.5 467 c 128,-1,23
 418 493 418 493 454.5 520 c 128,-1,24
 491 547 491 547 501 579 c 1,25,26
 503.667 596.778 503.667 596.778 503.667 615.049 c 0,27,28
 503.667 637.889 503.667 637.889 499.5 661.5 c 0,29,30
 492 704 492 704 476.5 748 c 128,-1,31
 461 792 461 792 441.5 837 c 128,-1,32
 422 882 422 882 405 928 c 1,33,-1
 510 928 l 1,34,35
 534 910 534 910 564.5 870 c 128,-1,36
 595 830 595 830 623 781.5 c 128,-1,37
 651 733 651 733 671 681.5 c 0,38,39
 694.113 621.985 694.113 621.985 694.113 583.291 c 0,40,41
 694.113 544.056 694.113 544.056 662.5 511.5 c 0,42,43
 629 477 629 477 577 447.5 c 128,-1,44
 525 418 525 418 463.5 392.5 c 2,45,-1
 347 343 l 2,46,47
 292 319 292 319 252 296 c 128,-1,48
 212 273 212 273 205 249 c 1,49,50
 204.22 236.317 204.22 236.317 204.22 223.748 c 0,51,52
 204.22 171.902 204.22 171.902 217.5 122 c 0,53,54
 234 60 234 60 265.5 5.5 c 128,-1,55
 297 -49 297 -49 342.5 -94.5 c 128,-1,56
 388 -140 388 -140 443 -172.5 c 128,-1,57
 498 -205 498 -205 560 -223 c 128,-1,58
 622 -241 622 -241 687 -241 c 0,59,60
 706 -241 706 -241 729 -240 c 128,-1,61
 752 -239 752 -239 774.5 -236.5 c 128,-1,62
 797 -234 797 -234 817.5 -229.5 c 128,-1,63
 838 -225 838 -225 852 -219 c 1,64,-1
 852 -371 l 1,65,66
 844 -381 844 -381 824.5 -389.5 c 128,-1,67
 805 -398 805 -398 779 -404 c 128,-1,68
 753 -410 753 -410 722.5 -413.5 c 128,-1,69
 692 -417 692 -417 662 -417 c 0,70,71
 537 -417 537 -417 441 -387 c 128,-1,72
 345 -357 345 -357 275 -306 c 128,-1,73
 205 -255 205 -255 159 -188.5 c 128,-1,74
 113 -122 113 -122 87.5 -49.5 c 128,-1,75
 62 23 62 23 55.5 96.5 c 0,76,77
 52.7742 127.323 52.7742 127.323 52.7742 156.65 c 0,78,79
 52.7742 197.258 52.7742 197.258 58 235 c 1,18,19
EndSplineSet
Validated: 524289
EndChar

StartChar: exclam
Encoding: 33 33 49
Width: 706
Flags: W
LayerCount: 2
Fore
SplineSet
215 1780 m 1,0,-1
 471 1780 l 1,1,-1
 398 490 l 1,2,-1
 280 490 l 1,3,-1
 215 1780 l 1,0,-1
215 101 m 0,4,5
 215 132 215 132 228.5 159 c 128,-1,6
 242 186 242 186 263 205.5 c 128,-1,7
 284 225 284 225 310.5 236 c 128,-1,8
 337 247 337 247 364 247 c 0,9,10
 430 247 430 247 460.5 210.5 c 128,-1,11
 491 174 491 174 491 123 c 0,12,13
 491 90 491 90 478 63 c 128,-1,14
 465 36 465 36 444 17.5 c 128,-1,15
 423 -1 423 -1 396 -11.5 c 128,-1,16
 369 -22 369 -22 341 -22 c 0,17,18
 317 -22 317 -22 294 -13.5 c 128,-1,19
 271 -5 271 -5 253.5 10.5 c 128,-1,20
 236 26 236 26 225.5 49 c 128,-1,21
 215 72 215 72 215 101 c 0,4,5
EndSplineSet
Validated: 1
EndChar

StartChar: exclamdown
Encoding: 161 161 50
Width: 706
Flags: HW
LayerCount: 2
Fore
SplineSet
348 1169 m 0,0,1
 324 1169 324 1169 301 1177.5 c 128,-1,2
 278 1186 278 1186 260.5 1201.5 c 128,-1,3
 243 1217 243 1217 232.5 1240 c 128,-1,4
 222 1263 222 1263 222 1292 c 0,5,6
 222 1323 222 1323 235.5 1350 c 128,-1,7
 249 1377 249 1377 270 1396.5 c 128,-1,8
 291 1416 291 1416 317.5 1427 c 128,-1,9
 344 1438 344 1438 371 1438 c 0,10,11
 437 1438 437 1438 467.5 1401.5 c 128,-1,12
 498 1365 498 1365 498 1314 c 0,13,14
 498 1281 498 1281 485 1254 c 128,-1,15
 472 1227 472 1227 451 1208.5 c 128,-1,16
 430 1190 430 1190 403 1179.5 c 128,-1,17
 376 1169 376 1169 348 1169 c 0,0,1
288 922 m 1,18,-1
 406 922 l 1,19,-1
 471 -408 l 1,20,-1
 215 -408 l 1,21,-1
 288 922 l 1,18,-1
EndSplineSet
Validated: 1
EndChar

StartChar: uni00AD
Encoding: 173 173 51
Width: 892
Flags: HW
LayerCount: 2
Fore
SplineSet
79 705 m 1,0,-1
 811 705 l 1,1,-1
 811 532 l 1,2,-1
 79 532 l 1,3,-1
 79 705 l 1,0,-1
EndSplineSet
Validated: 1
EndChar

StartChar: endash
Encoding: 8211 8211 52
Width: 1344
Flags: W
LayerCount: 2
Fore
SplineSet
160 874 m 1,0,-1
 1184 874 l 1,1,-1
 1184 727 l 1,2,-1
 160 727 l 1,3,-1
 160 874 l 1,0,-1
EndSplineSet
Validated: 1
EndChar

StartChar: emdash
Encoding: 8212 8212 53
Width: 2368
Flags: W
LayerCount: 2
Fore
SplineSet
160 874 m 1,0,-1
 2208 874 l 1,1,-1
 2208 727 l 1,2,-1
 160 727 l 1,3,-1
 160 874 l 1,0,-1
EndSplineSet
Validated: 1
EndChar

StartChar: underscore
Encoding: 95 95 54
Width: 1415
Flags: HW
LayerCount: 2
Fore
SplineSet
1432 -192 m 1,0,-1
 1432 -339 l 1,1,-1
 -20 -339 l 1,2,-1
 -20 -192 l 1,3,-1
 1432 -192 l 1,0,-1
EndSplineSet
Validated: 1
EndChar

StartChar: slash
Encoding: 47 47 55
Width: 816
Flags: HW
LayerCount: 2
Fore
SplineSet
603 1599 m 1,0,-1
 786 1599 l 1,1,-1
 213 -363 l 1,2,-1
 30 -363 l 1,3,-1
 603 1599 l 1,0,-1
EndSplineSet
Validated: 1
EndChar

StartChar: backslash
Encoding: 92 92 56
Width: 816
Flags: HW
LayerCount: 2
Fore
SplineSet
30 1599 m 1,0,-1
 213 1599 l 1,1,-1
 786 -363 l 1,2,-1
 603 -363 l 1,3,-1
 30 1599 l 1,0,-1
EndSplineSet
Validated: 1
EndChar

StartChar: bar
Encoding: 124 124 57
Width: 873
Flags: HW
LayerCount: 2
Fore
SplineSet
358 1780 m 1,0,-1
 531 1780 l 1,1,-1
 531 -186 l 1,2,-1
 358 -186 l 1,3,-1
 358 1780 l 1,0,-1
EndSplineSet
Validated: 1
EndChar

StartChar: A
Encoding: 65 65 58
Width: 1502
Flags: HW
LayerCount: 2
Fore
SplineSet
2 85 m 1,0,-1
 145 114 l 1,1,-1
 654 1553 l 1,2,-1
 822 1553 l 1,3,-1
 1322 115 l 1,4,-1
 1481 85 l 1,5,-1
 1481 0 l 1,6,-1
 953 0 l 1,7,-1
 953 85 l 1,8,-1
 1118 115 l 1,9,-1
 1010 437 l 1,10,-1
 417 437 l 1,11,-1
 313 115 l 1,12,-1
 480 85 l 1,13,-1
 480 0 l 1,14,-1
 2 0 l 1,15,-1
 2 85 l 1,0,-1
971 554 m 1,16,-1
 807 1042 l 1,17,-1
 712 1343 l 1,18,-1
 455 554 l 1,19,-1
 971 554 l 1,16,-1
EndSplineSet
Validated: 1
EndChar

StartChar: B
Encoding: 66 66 59
Width: 1415
Flags: HW
LayerCount: 2
Fore
SplineSet
102 85 m 1,0,-1
 271 115 l 1,1,-1
 271 1438 l 1,2,-1
 106 1455 l 1,3,-1
 106 1553 l 1,4,-1
 359 1553 l 1,5,6
 425 1555 425 1555 515.5 1561.5 c 0,7,8
 593.933 1567.13 593.933 1567.13 695.276 1567.13 c 0,9,10
 710.867 1567.13 710.867 1567.13 727 1567 c 0,11,12
 847 1566 847 1566 939.5 1541.5 c 128,-1,13
 1032 1517 1032 1517 1094 1471.5 c 128,-1,14
 1156 1426 1156 1426 1188 1361.5 c 128,-1,15
 1220 1297 1220 1297 1220 1217 c 0,16,17
 1220 1148 1220 1148 1202.5 1086 c 128,-1,18
 1185 1024 1185 1024 1149 974 c 128,-1,19
 1113 924 1113 924 1058 888 c 128,-1,20
 1003 852 1003 852 928 835 c 1,21,22
 1010 834 1010 834 1082 806.5 c 128,-1,23
 1154 779 1154 779 1207 729.5 c 128,-1,24
 1260 680 1260 680 1291 610.5 c 128,-1,25
 1322 541 1322 541 1322 456 c 0,26,27
 1322 355 1322 355 1282.5 269 c 128,-1,28
 1243 183 1243 183 1162.5 120 c 128,-1,29
 1082 57 1082 57 960.5 21.5 c 128,-1,30
 839 -14 839 -14 674 -14 c 0,31,32
 631 -14 631 -14 586 -12.5 c 128,-1,33
 541 -11 541 -11 499 -9 c 128,-1,34
 457 -7 457 -7 420 -4.5 c 128,-1,35
 383 -2 383 -2 357 0 c 1,36,-1
 102 0 l 1,37,-1
 102 85 l 1,0,-1
466 879 m 1,38,39
 491 874 491 874 522.5 872.5 c 128,-1,40
 554 871 554 871 586.5 871 c 128,-1,41
 619 871 619 871 650.5 871.5 c 128,-1,42
 682 872 682 872 707 872 c 0,43,44
 783 872 783 872 844 891.5 c 128,-1,45
 905 911 905 911 947.5 950 c 128,-1,46
 990 989 990 989 1013 1046.5 c 128,-1,47
 1036 1104 1036 1104 1036 1180 c 0,48,49
 1036 1250 1036 1250 1009.5 1302.5 c 128,-1,50
 983 1355 983 1355 936 1390 c 128,-1,51
 889 1425 889 1425 825.5 1442.5 c 128,-1,52
 762 1460 762 1460 687 1460 c 0,53,54
 668 1460 668 1460 638 1460.5 c 0,55,56
 628 1460.67 628 1460.67 617.722 1460.67 c 0,57,58
 597.167 1460.67 597.167 1460.67 575.5 1460 c 0,59,60
 543 1459 543 1459 514 1455.5 c 128,-1,61
 485 1452 485 1452 468 1445 c 1,62,-1
 466 879 l 1,38,39
466 135 m 1,63,64
 479 127 479 127 508.5 119.5 c 128,-1,65
 538 112 538 112 574 107 c 128,-1,66
 610 102 610 102 648.5 99 c 128,-1,67
 687 96 687 96 719 96 c 0,68,69
 801 96 801 96 873 113 c 128,-1,70
 945 130 945 130 998.5 168 c 128,-1,71
 1052 206 1052 206 1083 267.5 c 128,-1,72
 1114 329 1114 329 1114 418 c 0,73,74
 1114 591 1114 591 1019.5 670.5 c 128,-1,75
 925 750 925 750 737 750 c 0,76,77
 702 750 702 750 665.5 750.5 c 0,78,79
 647.25 750.75 647.25 750.75 629.25 750.75 c 128,-1,80
 611.25 750.75 611.25 750.75 593.5 750.5 c 0,81,82
 558 750 558 750 525.5 749 c 128,-1,83
 493 748 493 748 466 745 c 1,84,-1
 466 135 l 1,63,64
EndSplineSet
Validated: 524289
EndChar

StartChar: C
Encoding: 67 67 60
Width: 1441
Flags: HW
LayerCount: 2
Fore
SplineSet
110 724 m 0,0,1
 110 853 110 853 140 965.5 c 128,-1,2
 170 1078 170 1078 224 1172 c 128,-1,3
 278 1266 278 1266 353 1339 c 128,-1,4
 428 1412 428 1412 517.5 1463 c 128,-1,5
 607 1514 607 1514 708 1540.5 c 128,-1,6
 809 1567 809 1567 916 1567 c 0,7,8
 988 1567 988 1567 1050 1558.5 c 128,-1,9
 1112 1550 1112 1550 1164 1538.5 c 128,-1,10
 1216 1527 1216 1527 1258 1515 c 128,-1,11
 1300 1503 1300 1503 1333 1496 c 1,12,-1
 1317 1206 l 1,13,-1
 1211 1206 l 1,14,-1
 1159 1373 l 1,15,16
 1127 1394 1127 1394 1095 1409 c 128,-1,17
 1063 1424 1063 1424 1026.5 1433.5 c 128,-1,18
 990 1443 990 1443 947.5 1447 c 128,-1,19
 905 1451 905 1451 853 1451 c 0,20,21
 746 1451 746 1451 648.5 1407 c 128,-1,22
 551 1363 551 1363 476.5 1278 c 128,-1,23
 402 1193 402 1193 358 1069 c 128,-1,24
 314 945 314 945 314 786 c 0,25,26
 314 644 314 644 349.5 515.5 c 128,-1,27
 385 387 385 387 455.5 289.5 c 128,-1,28
 526 192 526 192 630 134.5 c 128,-1,29
 734 77 734 77 871 77 c 0,30,31
 992 77 992 77 1069 108.5 c 128,-1,32
 1146 140 1146 140 1191 197 c 1,33,-1
 1249 351 l 1,34,35
 1272 351 1272 351 1291.5 350.5 c 128,-1,36
 1311 350 1311 350 1334 350 c 1,37,-1
 1334 63 l 1,38,39
 1298 61 1298 61 1254.5 47 c 128,-1,40
 1211 33 1211 33 1151 16 c 128,-1,41
 1091 -1 1091 -1 1011.5 -14.5 c 128,-1,42
 932 -28 932 -28 825 -28 c 0,43,44
 670 -28 670 -28 539 27 c 128,-1,45
 408 82 408 82 312.5 181.5 c 128,-1,46
 217 281 217 281 163.5 419 c 128,-1,47
 110 557 110 557 110 724 c 0,0,1
EndSplineSet
Validated: 524289
EndChar

StartChar: D
Encoding: 68 68 61
Width: 1576
Flags: HW
LayerCount: 2
Fore
SplineSet
102 85 m 1,0,-1
 271 115 l 1,1,-1
 271 1437 l 1,2,-1
 106 1455 l 1,3,-1
 106 1553 l 1,4,-1
 369 1553 l 2,5,6
 432 1553 432 1553 480 1555 c 128,-1,7
 528 1557 528 1557 569 1559.5 c 2,8,-1
 649 1564.5 l 2,9,10
 688 1567 688 1567 733 1567 c 0,11,12
 930 1567 930 1567 1072.5 1515 c 128,-1,13
 1215 1463 1215 1463 1307.5 1366.5 c 128,-1,14
 1400 1270 1400 1270 1444.5 1131 c 128,-1,15
 1489 992 1489 992 1489 817 c 0,16,17
 1489 620 1489 620 1428 465.5 c 128,-1,18
 1367 311 1367 311 1260.5 204 c 128,-1,19
 1154 97 1154 97 1009.5 42 c 0,20,21
 872.474 -10.1552 872.474 -10.1552 716.115 -10.1552 c 0,22,23
 707.586 -10.1552 707.586 -10.1552 699 -10 c 0,24,25
 627 -8 627 -8 548 -3.5 c 128,-1,26
 469 0.999997 469 0.999997 372 1 c 0,27,28
 304 1 304 1 237 0.5 c 128,-1,29
 170 0 170 0 102 0 c 1,30,-1
 102 85 l 1,0,-1
466 132 m 1,31,32
 528 114 528 114 593.5 106 c 0,33,34
 645.9 99.6 645.9 99.6 704.38 99.6 c 0,35,36
 719 99.6 719 99.6 734 100 c 0,37,38
 844 103 844 103 943.5 147 c 128,-1,39
 1043 191 1043 191 1119 275 c 128,-1,40
 1195 359 1195 359 1239.5 482.5 c 128,-1,41
 1284 606 1284 606 1284 768 c 0,42,43
 1284 945 1284 945 1242 1075.5 c 128,-1,44
 1200 1206 1200 1206 1121 1291.5 c 128,-1,45
 1042 1377 1042 1377 928.5 1418 c 0,46,47
 825.089 1455.36 825.089 1455.36 698.019 1455.36 c 0,48,49
 686.053 1455.36 686.053 1455.36 673 1455 c 0,50,51
 632.391 1453.89 632.391 1453.89 610.5 1453 c 0,52,53
 586 1452 586 1452 565 1449.5 c 128,-1,54
 544 1447 544 1447 521.5 1444 c 128,-1,55
 499 1441 499 1441 466 1435 c 1,56,-1
 466 132 l 1,31,32
EndSplineSet
Validated: 524321
EndChar

StartChar: E
Encoding: 69 69 62
Width: 1319
Flags: HW
LayerCount: 2
Fore
SplineSet
102 85 m 1,0,-1
 271 115 l 1,1,-1
 271 1437 l 1,2,-1
 106 1455 l 1,3,-1
 106 1553 l 1,4,-1
 1120 1553 l 1,5,-1
 1149 1267 l 1,6,-1
 1039 1267 l 1,7,-1
 993 1435 l 1,8,-1
 465 1448 l 1,9,-1
 465 865 l 1,10,-1
 833 872 l 1,11,-1
 863 1029 l 1,12,-1
 965 1029 l 1,13,-1
 965 599 l 1,14,-1
 863 599 l 1,15,-1
 833 752 l 1,16,-1
 465 758 l 1,17,-1
 465 108 l 1,18,-1
 1035 127 l 1,19,-1
 1135 334 l 1,20,-1
 1232 310 l 1,21,-1
 1187 0 l 1,22,-1
 102 0 l 1,23,-1
 102 85 l 1,0,-1
EndSplineSet
Validated: 1
EndChar

StartChar: F
Encoding: 70 70 63
Width: 1232
Flags: HW
LayerCount: 2
Fore
SplineSet
100 85 m 1,0,-1
 271 114 l 1,1,-1
 271 1438 l 1,2,-1
 106 1455 l 1,3,-1
 106 1553 l 1,4,-1
 1159 1553 l 1,5,-1
 1178 1268 l 1,6,-1
 1078 1266 l 1,7,-1
 1032 1429 l 1,8,-1
 465 1443 l 1,9,-1
 465 847 l 1,10,-1
 884 856 l 1,11,-1
 924 1001 l 1,12,-1
 1022 1001 l 1,13,-1
 1022 581 l 1,14,-1
 911 581 l 1,15,-1
 885 732 l 1,16,-1
 465 740 l 1,17,-1
 465 115 l 1,18,-1
 754 95 l 1,19,-1
 754 0 l 1,20,-1
 100 0 l 1,21,-1
 100 85 l 1,0,-1
EndSplineSet
Validated: 1
EndChar

StartChar: G
Encoding: 71 71 64
Width: 1545
Flags: HW
LayerCount: 2
Fore
SplineSet
85 724 m 0,0,1
 85 853 85 853 114 965.5 c 128,-1,2
 143 1078 143 1078 196 1172 c 128,-1,3
 249 1266 249 1266 322.5 1339 c 128,-1,4
 396 1412 396 1412 485 1463 c 128,-1,5
 574 1514 574 1514 676 1540.5 c 128,-1,6
 778 1567 778 1567 887 1567 c 0,7,8
 981 1567 981 1567 1054.5 1559.5 c 128,-1,9
 1128 1552 1128 1552 1184 1541.5 c 128,-1,10
 1240 1531 1240 1531 1280 1520 c 128,-1,11
 1320 1509 1320 1509 1346 1503 c 1,12,-1
 1330 1213 l 1,13,-1
 1224 1213 l 1,14,-1
 1172 1380 l 1,15,16
 1164 1390 1164 1390 1138.5 1402.5 c 128,-1,17
 1113 1415 1113 1415 1070 1426.5 c 128,-1,18
 1027 1438 1027 1438 965.5 1445 c 0,19,20
 911.688 1451.12 911.688 1451.12 843.711 1451.12 c 0,21,22
 834 1451.12 834 1451.12 824 1451 c 0,23,24
 717 1449 717 1449 620 1403.5 c 128,-1,25
 523 1358 523 1358 449.5 1273 c 128,-1,26
 376 1188 376 1188 332.5 1065 c 128,-1,27
 289 942 289 942 289 786 c 0,28,29
 289 695 289 695 303.5 607.5 c 128,-1,30
 318 520 318 520 347 441.5 c 128,-1,31
 376 363 376 363 420.5 296 c 128,-1,32
 465 229 465 229 524.5 180.5 c 128,-1,33
 584 132 584 132 659.5 104.5 c 128,-1,34
 735 77 735 77 826 77 c 0,35,36
 869 77 869 77 915 81.5 c 128,-1,37
 961 86 961 86 1005 97.5 c 128,-1,38
 1049 109 1049 109 1088 129.5 c 128,-1,39
 1127 150 1127 150 1157 183 c 1,40,-1
 1157 593 l 1,41,-1
 914 610 l 1,42,-1
 914 708 l 1,43,-1
 1475 708 l 1,44,-1
 1475 610 l 1,45,-1
 1352 592 l 1,46,-1
 1352 81 l 1,47,48
 1319 79 1319 79 1259.5 62 c 128,-1,49
 1200 45 1200 45 1123.5 25 c 128,-1,50
 1047 5 1047 5 959 -11.5 c 128,-1,51
 871 -28 871 -28 780 -28 c 0,52,53
 625 -28 625 -28 497 28.5 c 128,-1,54
 369 85 369 85 277.5 185.5 c 128,-1,55
 186 286 186 286 135.5 423.5 c 128,-1,56
 85 561 85 561 85 724 c 0,0,1
EndSplineSet
Validated: 524289
EndChar

StartChar: H
Encoding: 72 72 65
Width: 1698
Flags: HW
LayerCount: 2
Fore
SplineSet
102 85 m 1,0,-1
 271 115 l 1,1,-1
 271 1437 l 1,2,-1
 106 1455 l 1,3,-1
 106 1553 l 1,4,-1
 629 1553 l 1,5,-1
 629 1455 l 1,6,-1
 466 1438 l 1,7,-1
 466 814 l 1,8,-1
 1233 814 l 1,9,-1
 1233 1438 l 1,10,-1
 1068 1455 l 1,11,-1
 1068 1553 l 1,12,-1
 1591 1553 l 1,13,-1
 1591 1455 l 1,14,-1
 1427 1438 l 1,15,-1
 1427 115 l 1,16,-1
 1599 85 l 1,17,-1
 1599 0 l 1,18,-1
 1061 0 l 1,19,-1
 1061 85 l 1,20,-1
 1233 114 l 1,21,-1
 1233 696 l 1,22,-1
 466 696 l 1,23,-1
 466 115 l 1,24,-1
 638 85 l 1,25,-1
 638 0 l 1,26,-1
 102 0 l 1,27,-1
 102 85 l 1,0,-1
EndSplineSet
Validated: 1
EndChar

StartChar: I
Encoding: 73 73 66
Width: 763
Flags: HW
LayerCount: 2
Fore
SplineSet
105 85 m 1,0,-1
 284 114 l 1,1,-1
 284 1438 l 1,2,-1
 109 1455 l 1,3,-1
 109 1553 l 1,4,-1
 652 1553 l 1,5,-1
 652 1455 l 1,6,-1
 479 1437 l 1,7,-1
 479 115 l 1,8,-1
 661 85 l 1,9,-1
 661 0 l 1,10,-1
 105 0 l 1,11,-1
 105 85 l 1,0,-1
EndSplineSet
Validated: 1
EndChar

StartChar: J
Encoding: 74 74 67
Width: 720
Flags: HW
LayerCount: 2
Fore
SplineSet
238 -59 m 1,0,1
 253 -15 253 -15 262 33.5 c 128,-1,2
 271 82 271 82 276 138.5 c 128,-1,3
 281 195 281 195 282.5 259.5 c 128,-1,4
 284 324 284 324 284 401 c 2,5,-1
 284 1438 l 1,6,-1
 119 1455 l 1,7,-1
 119 1553 l 1,8,-1
 642 1553 l 1,9,-1
 642 1455 l 1,10,-1
 479 1437 l 1,11,-1
 479 550 l 2,12,13
 479 479 479 479 479.5 411.5 c 0,14,15
 479.667 389 479.667 389 479.667 366.944 c 0,16,17
 479.667 322.833 479.667 322.833 479 280.5 c 0,18,19
 478 217 478 217 474 159 c 128,-1,20
 470 101 470 101 460 49 c 0,21,22
 440 -50 440 -50 390 -126 c 128,-1,23
 340 -202 340 -202 272 -257 c 128,-1,24
 204 -312 204 -312 124.5 -345 c 128,-1,25
 45 -378 45 -378 -34 -390 c 1,26,-1
 -86 -319 l 1,27,28
 -30 -301 -30 -301 20.5 -276 c 128,-1,29
 71 -251 71 -251 113 -219 c 128,-1,30
 155 -187 155 -187 187 -147 c 128,-1,31
 219 -107 219 -107 238 -59 c 1,0,1
EndSplineSet
Validated: 524289
EndChar

StartChar: K
Encoding: 75 75 68
Width: 1436
Flags: HW
LayerCount: 2
Fore
SplineSet
102 85 m 1,0,-1
 271 114 l 1,1,-1
 271 1438 l 1,2,-1
 106 1455 l 1,3,-1
 106 1553 l 1,4,-1
 629 1553 l 1,5,-1
 629 1455 l 1,6,-1
 466 1437 l 1,7,-1
 466 741 l 1,8,-1
 1061 1438 l 1,9,-1
 900 1455 l 1,10,11
 900 1480 900 1480 899.5 1504 c 128,-1,12
 899 1528 899 1528 899 1553 c 1,13,-1
 1398 1553 l 1,14,-1
 1398 1455 l 1,15,-1
 1252 1437 l 1,16,-1
 745 878 l 1,17,-1
 761 881 l 1,18,19
 783 859 783 859 816 814 c 128,-1,20
 849 769 849 769 887.5 710.5 c 2,21,-1
 969 585 l 1,22,-1
 1054.5 451.5 l 1,23,-1
 1137.5 323.5 l 2,24,25
 1178 262 1178 262 1212 215 c 128,-1,26
 1246 168 1246 168 1271.5 141 c 128,-1,27
 1297 114 1297 114 1310 115 c 1,28,-1
 1423 85 l 1,29,-1
 1423 0 l 1,30,-1
 1158 0 l 2,31,32
 1145 0 1145 0 1122.5 26 c 128,-1,33
 1100 52 1100 52 1070.5 96.5 c 1,34,-1
 1005.5 199 l 1,35,-1
 932.5 321.5 l 1,36,-1
 856 452 l 1,37,-1
 779.5 578 l 2,38,39
 742 638 742 638 707.5 687.5 c 128,-1,40
 673 737 673 737 645 769 c 1,41,-1
 466 571 l 1,42,-1
 466 114 l 1,43,-1
 688 85 l 1,44,-1
 688 0 l 1,45,-1
 102 0 l 1,46,-1
 102 85 l 1,0,-1
EndSplineSet
Validated: 524289
EndChar

StartChar: L
Encoding: 76 76 69
Width: 1240
Flags: HW
LayerCount: 2
Fore
SplineSet
102 85 m 1,0,-1
 271 115 l 1,1,-1
 271 1427 l 1,2,-1
 106 1444 l 1,3,-1
 106 1553 l 1,4,-1
 644 1553 l 1,5,-1
 644 1444 l 1,6,-1
 467 1427 l 1,7,-1
 465 112 l 1,8,-1
 1000 136 l 1,9,-1
 1123 374 l 1,10,-1
 1210 331 l 1,11,-1
 1145 0 l 1,12,-1
 102 0 l 1,13,-1
 102 85 l 1,0,-1
EndSplineSet
Validated: 1
EndChar

StartChar: M
Encoding: 77 77 70
Width: 1977
Flags: HW
LayerCount: 2
Fore
SplineSet
77 85 m 1,0,-1
 249 114 l 1,1,-1
 337 1427 l 1,2,-1
 142 1444 l 1,3,-1
 142 1553 l 1,4,-1
 607 1553 l 1,5,-1
 971 463 l 1,6,-1
 1014 314 l 1,7,-1
 1067 467 l 1,8,-1
 1421 1553 l 1,9,-1
 1846 1553 l 1,10,-1
 1846 1444 l 1,11,-1
 1659 1427 l 1,12,-1
 1762 115 l 1,13,-1
 1934 85 l 1,14,-1
 1934 0 l 1,15,-1
 1414 0 l 1,16,-1
 1414 85 l 1,17,-1
 1578 114 l 1,18,-1
 1506 1050 l 1,19,-1
 1496 1396 l 1,20,-1
 1455 1233 l 1,21,-1
 1024 -15 l 1,22,-1
 957 -15 l 1,23,-1
 561 1079 l 1,24,25
 505 1242 l 1,26,-1
 450 1406 l 1,27,-1
 442 1064 l 1,28,-1
 404 116 l 1,29,-1
 595 85 l 1,30,-1
 595 0 l 1,31,-1
 77 0 l 1,32,-1
 77 85 l 1,0,-1
EndSplineSet
Validated: 1
EndChar

StartChar: N
Encoding: 78 78 71
Width: 1658
Flags: HW
LayerCount: 2
Fore
SplineSet
100 85 m 1,0,-1
 271 115 l 1,1,-1
 271 1427 l 1,2,-1
 106 1444 l 1,3,-1
 106 1553 l 1,4,-1
 464 1553 l 1,5,-1
 1134 458 l 1,6,-1
 1272 186 l 1,7,-1
 1272 1428 l 1,8,-1
 1108 1445 l 1,9,-1
 1108 1553 l 1,10,-1
 1581 1553 l 1,11,-1
 1581 1445 l 1,12,-1
 1415 1428 l 1,13,-1
 1415 0 l 1,14,-1
 1210 0 l 1,15,16
 1060 235.5 l 1,17,-1
 905 481 l 1,18,-1
 737.5 746 l 1,19,-1
 550 1040 l 1,20,-1
 414 1318 l 1,21,-1
 414 115 l 1,22,-1
 608 85 l 1,23,-1
 608 0 l 1,24,-1
 100 0 l 1,25,-1
 100 85 l 1,0,-1
EndSplineSet
Validated: 524289
EndChar

StartChar: O
Encoding: 79 79 72
Width: 1554
Flags: HW
LayerCount: 2
Fore
SplineSet
87 752 m 0,0,1
 91 943 91 943 148.5 1093 c 128,-1,2
 206 1243 206 1243 303 1347 c 128,-1,3
 400 1451 400 1451 528 1507 c 128,-1,4
 656 1563 656 1563 801 1567 c 0,5,6
 811.146 1567.26 811.146 1567.26 821.162 1567.26 c 0,7,8
 965.13 1567.26 965.13 1567.26 1082 1513.5 c 0,9,10
 1207 1456 1207 1456 1293.5 1351.5 c 128,-1,11
 1380 1247 1380 1247 1425 1102.5 c 0,12,13
 1467.19 967.031 1467.19 967.031 1467.19 809.15 c 0,14,15
 1467.19 798.625 1467.19 798.625 1467 788 c 0,16,17
 1463 597 1463 597 1407.5 446.5 c 128,-1,18
 1352 296 1352 296 1258 191.5 c 128,-1,19
 1164 87 1164 87 1038.5 31 c 128,-1,20
 913 -25 913 -25 771 -28 c 0,21,22
 763.165 -28.1488 763.165 -28.1488 755.404 -28.1488 c 0,23,24
 606.653 -28.1488 606.653 -28.1488 485 26.5 c 0,25,26
 357 84 357 84 267.5 189 c 128,-1,27
 178 294 178 294 131 438 c 0,28,29
 86.82 573.36 86.82 573.36 86.82 731.694 c 0,30,31
 86.82 741.8 86.82 741.8 87 752 c 0,0,1
788 77 m 0,32,33
 898 77 898 77 984 125.5 c 128,-1,34
 1070 174 1070 174 1129.5 265.5 c 128,-1,35
 1189 357 1189 357 1220 488.5 c 128,-1,36
 1251 620 1251 620 1251 787 c 0,37,38
 1251 874 1251 874 1237.5 958 c 128,-1,39
 1224 1042 1224 1042 1197.5 1116.5 c 128,-1,40
 1171 1191 1171 1191 1132 1254.5 c 128,-1,41
 1093 1318 1093 1318 1041 1363.5 c 128,-1,42
 989 1409 989 1409 924.5 1435 c 128,-1,43
 860 1461 860 1461 784 1461 c 0,44,45
 674 1461 674 1461 585 1413 c 128,-1,46
 496 1365 496 1365 433.5 1274 c 128,-1,47
 371 1183 371 1183 337 1051.5 c 128,-1,48
 303 920 303 920 303 753 c 0,49,50
 303 622 303 622 335.5 500.5 c 128,-1,51
 368 379 368 379 430 284.5 c 128,-1,52
 492 190 492 190 582 133.5 c 128,-1,53
 672 77 672 77 788 77 c 0,32,33
EndSplineSet
Validated: 524289
EndChar

StartChar: P
Encoding: 80 80 73
Width: 1304
Flags: HW
LayerCount: 2
Fore
SplineSet
82 85 m 1,0,-1
 271 115 l 1,1,-1
 271 1427 l 1,2,-1
 106 1444 l 1,3,-1
 106 1553 l 1,4,-1
 369 1553 l 2,5,6
 393 1553 393 1553 433 1555 c 128,-1,7
 473 1557 473 1557 521.5 1560 c 128,-1,8
 570 1563 570 1563 622.5 1565 c 128,-1,9
 675 1567 675 1567 725 1567 c 0,10,11
 840 1567 840 1567 936 1545 c 128,-1,12
 1032 1523 1032 1523 1101 1469.5 c 128,-1,13
 1170 1416 1170 1416 1208.5 1327 c 128,-1,14
 1247 1238 1247 1238 1247 1103 c 0,15,16
 1247 1022 1247 1022 1224.5 952 c 128,-1,17
 1202 882 1202 882 1162 825 c 128,-1,18
 1122 768 1122 768 1067 724 c 128,-1,19
 1012 680 1012 680 948 651 c 128,-1,20
 884 622 884 622 812.5 607.5 c 0,21,22
 749.667 594.758 749.667 594.758 685.675 594.758 c 0,23,24
 677.214 594.758 677.214 594.758 668 595 c 0,25,26
 617.333 596.333 617.333 596.333 579.556 596.333 c 0,27,28
 560.667 596.333 560.667 596.333 545 596 c 0,29,30
 498 595 498 595 466 590 c 1,31,-1
 466 115 l 1,32,-1
 733 85 l 1,33,-1
 733 0 l 1,34,-1
 82 0 l 1,35,-1
 82 85 l 1,0,-1
466 708 m 1,36,37
 523 700 523 700 571.5 698.5 c 128,-1,38
 620 697 620 697 665 697 c 0,39,40
 713 697 713 697 760.5 703.5 c 128,-1,41
 808 710 808 710 850.5 726.5 c 128,-1,42
 893 743 893 743 929.5 771.5 c 128,-1,43
 966 800 966 800 992.5 845 c 128,-1,44
 1019 890 1019 890 1034 952.5 c 128,-1,45
 1049 1015 1049 1015 1049 1100 c 0,46,47
 1049 1284 1049 1284 945.5 1373 c 0,48,49
 848.537 1456.38 848.537 1456.38 673.022 1456.38 c 0,50,51
 661.19 1456.38 661.19 1456.38 649 1456 c 0,52,53
 600 1454 600 1454 555.5 1450.5 c 128,-1,54
 511 1447 511 1447 466 1436 c 1,55,-1
 466 708 l 1,36,37
EndSplineSet
Validated: 524289
EndChar

StartChar: Q
Encoding: 81 81 74
Width: 1554
Flags: HW
LayerCount: 2
Fore
SplineSet
87 752 m 0,0,1
 91 943 91 943 148.5 1093 c 128,-1,2
 206 1243 206 1243 303 1347 c 128,-1,3
 400 1451 400 1451 528 1507 c 128,-1,4
 656 1563 656 1563 801 1567 c 0,5,6
 811.146 1567.26 811.146 1567.26 821.162 1567.26 c 0,7,8
 965.13 1567.26 965.13 1567.26 1082 1513.5 c 0,9,10
 1207 1456 1207 1456 1293.5 1351.5 c 128,-1,11
 1380 1247 1380 1247 1425 1102.5 c 0,12,13
 1467.19 967.031 1467.19 967.031 1467.19 809.15 c 0,14,15
 1467.19 798.688 1467.19 798.688 1467 788 c 0,16,17
 1463.98 616 1463.98 616 1418 477 c 128,-1,18
 1372 338 1372 338 1294 235.5 c 128,-1,19
 1216 133 1216 133 1110.5 69 c 128,-1,20
 1005 5 1005 5 883 -17 c 1,21,22
 908 -74 908 -74 953.5 -108 c 128,-1,23
 999 -142 999 -142 1054 -160.5 c 128,-1,24
 1109 -179 1109 -179 1167.5 -184.5 c 128,-1,25
 1226 -190 1226 -190 1276 -190 c 0,26,27
 1313 -190 1313 -190 1351 -182 c 128,-1,28
 1389 -174 1389 -174 1415 -157 c 1,29,-1
 1433 -280 l 1,30,31
 1413 -310 1413 -310 1354 -333 c 128,-1,32
 1295 -356 1295 -356 1210 -356 c 0,33,34
 1138 -356 1138 -356 1070 -341.5 c 128,-1,35
 1002 -327 1002 -327 943.5 -290.5 c 128,-1,36
 885 -254 885 -254 840 -190.5 c 128,-1,37
 795 -127 795 -127 769 -28 c 1,38,39
 761.229 -28.1475 761.229 -28.1475 753.533 -28.1475 c 0,40,41
 604.729 -28.1475 604.729 -28.1475 483.5 27 c 0,42,43
 356 85 356 85 266.5 189.5 c 128,-1,44
 177 294 177 294 130.5 438 c 0,45,46
 86.8182 573.273 86.8182 573.273 86.8182 731.489 c 0,47,48
 86.8182 741.697 86.8182 741.697 87 752 c 0,0,1
788 77 m 0,49,50
 898 77 898 77 984 125.5 c 128,-1,51
 1070 174 1070 174 1129.5 265.5 c 128,-1,52
 1189 357 1189 357 1220 488.5 c 128,-1,53
 1251 620 1251 620 1251 787 c 0,54,55
 1251 874 1251 874 1237.5 958 c 128,-1,56
 1224 1042 1224 1042 1197.5 1116.5 c 128,-1,57
 1171 1191 1171 1191 1132 1254.5 c 128,-1,58
 1093 1318 1093 1318 1041 1363.5 c 128,-1,59
 989 1409 989 1409 924.5 1435 c 128,-1,60
 860 1461 860 1461 784 1461 c 0,61,62
 674 1461 674 1461 585 1413 c 128,-1,63
 496 1365 496 1365 433.5 1274 c 128,-1,64
 371 1183 371 1183 337 1051.5 c 128,-1,65
 303 920 303 920 303 753 c 0,66,67
 303 622 303 622 335.5 500.5 c 128,-1,68
 368 379 368 379 430 284.5 c 128,-1,69
 492 190 492 190 582 133.5 c 128,-1,70
 672 77 672 77 788 77 c 0,49,50
EndSplineSet
Validated: 524289
EndChar

StartChar: R
Encoding: 82 82 75
Width: 1415
Flags: HW
LayerCount: 2
Fore
SplineSet
82 85 m 1,0,-1
 271 115 l 1,1,-1
 271 1427 l 1,2,-1
 106 1444 l 1,3,-1
 106 1553 l 1,4,-1
 369 1553 l 2,5,6
 417 1553 417 1553 493 1560 c 128,-1,7
 569 1567 569 1567 669 1567 c 0,8,9
 784 1567 784 1567 880.5 1548 c 128,-1,10
 977 1529 977 1529 1047 1481.5 c 128,-1,11
 1117 1434 1117 1434 1156 1354 c 128,-1,12
 1195 1274 1195 1274 1195 1153 c 0,13,14
 1195 1075 1195 1075 1170.5 1006 c 128,-1,15
 1146 937 1146 937 1102 880.5 c 128,-1,16
 1058 824 1058 824 996.5 781 c 128,-1,17
 935 738 935 738 860 712 c 1,18,-1
 880 704 l 1,19,20
 927 680 927 680 971 629.5 c 128,-1,21
 1015 579 1015 579 1055.5 516 c 128,-1,22
 1096 453 1096 453 1133 385 c 1,23,-1
 1203.5 259.5 l 1,24,25
 1237 202 1237 202 1266.5 162 c 128,-1,26
 1296 122 1296 122 1322 115 c 2,27,-1
 1429 85 l 1,28,-1
 1429 0 l 1,29,-1
 1140 0 l 2,30,31
 1121 0 1121 0 1098.5 30 c 128,-1,32
 1076 60 1076 60 1050 108.5 c 128,-1,33
 1024 157 1024 157 994.5 219.5 c 1,34,-1
 932.5 346 l 1,35,36
 900 410 900 410 864.5 471 c 128,-1,37
 829 532 829 532 790.5 578.5 c 128,-1,38
 752 625 752 625 711 651 c 0,39,40
 676 674 676 674 639 674 c 1,41,42
 567 672 567 672 466 672 c 1,43,-1
 466 114 l 1,44,-1
 673 85 l 1,45,-1
 673 0 l 1,46,-1
 82 0 l 1,47,-1
 82 85 l 1,0,-1
466 785 m 1,48,49
 478 783 478 783 501.5 782 c 128,-1,50
 525 781 525 781 551 780.5 c 2,51,-1
 602 779.5 l 2,52,53
 627 779 627 779 643 779 c 0,54,55
 723 779 723 779 787.5 799 c 128,-1,56
 852 819 852 819 897 861.5 c 128,-1,57
 942 904 942 904 966.5 970.5 c 128,-1,58
 991 1037 991 1037 991 1130 c 0,59,60
 991 1207 991 1207 974 1269.5 c 128,-1,61
 957 1332 957 1332 917 1375.5 c 128,-1,62
 877 1419 877 1419 810 1441.5 c 0,63,64
 753.113 1460.6 753.113 1460.6 672.437 1460.6 c 0,65,66
 658.094 1460.6 658.094 1460.6 643 1460 c 0,67,68
 587.949 1457.8 587.949 1457.8 549 1456.5 c 0,69,70
 504 1455 504 1455 466 1444 c 1,71,-1
 466 785 l 1,48,49
EndSplineSet
Validated: 524289
EndChar

StartChar: S
Encoding: 83 83 76
Width: 1221
Flags: HW
LayerCount: 2
Fore
SplineSet
150 383 m 1,0,-1
 238 383 l 1,1,-1
 301 184 l 1,2,3
 331 153 331 153 370 132.5 c 128,-1,4
 409 112 409 112 452.5 100 c 128,-1,5
 496 88 496 88 542.5 83 c 128,-1,6
 589 78 589 78 633 78 c 0,7,8
 688 78 688 78 742.5 93 c 128,-1,9
 797 108 797 108 840.5 140.5 c 128,-1,10
 884 173 884 173 911 223 c 128,-1,11
 938 273 938 273 938 343 c 0,12,13
 938 407 938 407 907 459 c 128,-1,14
 876 511 876 511 824.5 555.5 c 128,-1,15
 773 600 773 600 707 640 c 1,16,-1
 571 720 l 1,17,18
 487.125 767.928 487.125 767.928 421.5 809 c 0,19,20
 348 855 348 855 290 909.5 c 128,-1,21
 232 964 232 964 196 1030.5 c 128,-1,22
 160 1097 160 1097 160 1181 c 0,23,24
 160 1251 160 1251 182 1307 c 128,-1,25
 204 1363 204 1363 240.5 1405.5 c 128,-1,26
 277 1448 277 1448 325.5 1479 c 128,-1,27
 374 1510 374 1510 427.5 1529.5 c 128,-1,28
 481 1549 481 1549 536 1558 c 128,-1,29
 591 1567 591 1567 641 1567 c 0,30,31
 714 1567 714 1567 775.5 1560 c 128,-1,32
 837 1553 837 1553 886 1541.5 c 128,-1,33
 935 1530 935 1530 970.5 1516.5 c 128,-1,34
 1006 1503 1006 1503 1028 1490 c 1,35,-1
 1028 1213 l 1,36,-1
 943 1213 l 1,37,-1
 865 1405 l 1,38,39
 847 1421 847 1421 821.5 1433 c 128,-1,40
 796 1445 796 1445 764.5 1453 c 128,-1,41
 733 1461 733 1461 697.5 1464.5 c 128,-1,42
 662 1468 662 1468 626 1468 c 0,43,44
 585 1468 585 1468 535.5 1455.5 c 128,-1,45
 486 1443 486 1443 443 1413.5 c 128,-1,46
 400 1384 400 1384 370.5 1335.5 c 128,-1,47
 341 1287 341 1287 341 1214 c 0,48,49
 341 1157 341 1157 368.5 1109.5 c 128,-1,50
 396 1062 396 1062 442.5 1021 c 128,-1,51
 489 980 489 980 549.5 943 c 0,52,53
 608.242 907.076 608.242 907.076 676 870 c 2,54,-1
 782.5 810.5 l 2,55,56
 836 780 836 780 885.5 747 c 128,-1,57
 935 714 935 714 978.5 677 c 128,-1,58
 1022 640 1022 640 1053.5 597.5 c 128,-1,59
 1085 555 1085 555 1103.5 505 c 128,-1,60
 1122 455 1122 455 1122 397 c 0,61,62
 1122 285 1122 285 1080 205.5 c 128,-1,63
 1038 126 1038 126 967 75 c 128,-1,64
 896 24 896 24 802.5 0.5 c 128,-1,65
 709 -23 709 -23 606 -23 c 0,66,67
 531 -23 531 -23 458.5 -15 c 128,-1,68
 386 -7 386 -7 324.5 5.5 c 128,-1,69
 263 18 263 18 217 33 c 128,-1,70
 171 48 171 48 150 61 c 1,71,-1
 150 383 l 1,0,-1
EndSplineSet
Validated: 524289
EndChar

StartChar: T
Encoding: 84 84 77
Width: 1270
Flags: HW
LayerCount: 2
Fore
SplineSet
309 85 m 1,0,-1
 551 115 l 1,1,-1
 551 1442 l 1,2,-1
 191 1422 l 1,3,-1
 121 1251 l 1,4,-1
 30 1249 l 1,5,-1
 55 1553 l 1,6,-1
 1246 1553 l 1,7,-1
 1244 1246 l 1,8,-1
 1162 1237 l 1,9,-1
 1110 1423 l 1,10,-1
 746 1442 l 1,11,-1
 746 115 l 1,12,-1
 1010 85 l 1,13,-1
 1010 0 l 1,14,-1
 309 0 l 1,15,-1
 309 85 l 1,0,-1
EndSplineSet
Validated: 1
EndChar

StartChar: U
Encoding: 85 85 78
Width: 1558
Flags: HW
LayerCount: 2
Fore
SplineSet
188 661 m 0,0,1
 188 856 188 856 188.5 1049 c 128,-1,2
 189 1242 189 1242 189 1437 c 1,3,-1
 30 1455 l 1,4,-1
 30 1553 l 1,5,-1
 563 1553 l 1,6,-1
 563 1455 l 1,7,-1
 384 1436 l 1,8,-1
 384 656 l 2,9,10
 384 487 384 487 418.5 375 c 128,-1,11
 453 263 453 263 514 196.5 c 128,-1,12
 575 130 575 130 658 102.5 c 128,-1,13
 741 75 741 75 839 75 c 0,14,15
 944 75 944 75 1019 118 c 128,-1,16
 1094 161 1094 161 1141.5 241 c 128,-1,17
 1189 321 1189 321 1211.5 433.5 c 128,-1,18
 1234 546 1234 546 1234 686 c 2,19,-1
 1234 1436 l 1,20,-1
 1052 1455 l 1,21,-1
 1052 1553 l 1,22,-1
 1542 1553 l 1,23,-1
 1542 1455 l 1,24,-1
 1384 1436 l 1,25,-1
 1384 687 l 2,26,27
 1384 501 1384 501 1342 366.5 c 128,-1,28
 1300 232 1300 232 1223.5 144 c 128,-1,29
 1147 56 1147 56 1040.5 14 c 128,-1,30
 934 -28 934 -28 806 -28 c 0,31,32
 636 -28 636 -28 518 16.5 c 128,-1,33
 400 61 400 61 326.5 148 c 128,-1,34
 253 235 253 235 220.5 363.5 c 128,-1,35
 188 492 188 492 188 661 c 0,0,1
EndSplineSet
Validated: 524289
EndChar

StartChar: V
Encoding: 86 86 79
Width: 1425
Flags: HW
LayerCount: 2
Fore
SplineSet
137 1439 m 1,0,-1
 5 1455 l 1,1,-1
 5 1553 l 1,2,-1
 542 1553 l 1,3,-1
 542 1455 l 1,4,-1
 362 1437 l 1,5,-1
 701 413 l 1,6,-1
 770 195 l 1,7,-1
 830 415 l 1,8,-1
 1129 1438 l 1,9,-1
 969 1455 l 1,10,-1
 969 1552 l 1,11,-1
 1420 1552 l 1,12,-1
 1420 1455 l 1,13,-1
 1299 1439 l 1,14,-1
 815 -20 l 1,15,-1
 665 -20 l 1,16,-1
 137 1439 l 1,0,-1
EndSplineSet
Validated: 1
EndChar

StartChar: W
Encoding: 87 87 80
Width: 2101
Flags: HW
LayerCount: 2
Fore
SplineSet
135 1438 m 1,0,-1
 5 1454 l 1,1,-1
 5 1553 l 1,2,-1
 540 1553 l 1,3,-1
 540 1454 l 1,4,-1
 351 1437 l 1,5,-1
 664 408 l 1,6,7
 694 311 l 1,8,-1
 725 214 l 1,9,-1
 787 396 l 1,10,-1
 1000 1240 l 1,11,-1
 942 1438 l 1,12,-1
 781 1454 l 1,13,-1
 781 1553 l 1,14,-1
 1326 1553 l 1,15,-1
 1326 1454 l 1,16,-1
 1152 1438 l 1,17,-1
 1424 388 l 1,18,-1
 1473 197 l 1,19,-1
 1524 426 l 1,20,-1
 1785 1438 l 1,21,-1
 1612 1454 l 1,22,-1
 1612 1553 l 1,23,-1
 2096 1553 l 1,24,-1
 2096 1454 l 1,25,-1
 1948 1438 l 1,26,-1
 1521 -20 l 1,27,-1
 1360 -20 l 1,28,-1
 1074 975 l 1,29,-1
 789 -20 l 1,30,-1
 625 -20 l 1,31,-1
 135 1438 l 1,0,-1
EndSplineSet
Validated: 1
EndChar

StartChar: X
Encoding: 88 88 81
Width: 1400
Flags: HW
LayerCount: 2
Fore
SplineSet
5 85 m 1,0,-1
 182 114 l 1,1,-1
 607 776 l 1,2,-1
 189 1438 l 1,3,-1
 41 1455 l 1,4,-1
 41 1553 l 1,5,-1
 602 1553 l 1,6,-1
 602 1455 l 1,7,-1
 424 1438 l 1,8,-1
 730 898 l 1,9,-1
 1047 1438 l 1,10,-1
 893 1455 l 1,11,-1
 893 1553 l 1,12,-1
 1370 1553 l 1,13,-1
 1370 1455 l 1,14,-1
 1225 1439 l 1,15,-1
 805 824 l 1,16,-1
 1250 115 l 1,17,-1
 1415 85 l 1,18,-1
 1415 0 l 1,19,-1
 840 0 l 1,20,-1
 840 85 l 1,21,-1
 1026 114 l 1,22,-1
 676 683 l 1,23,-1
 362 115 l 1,24,-1
 554 85 l 1,25,-1
 554 0 l 1,26,-1
 5 0 l 1,27,-1
 5 85 l 1,0,-1
EndSplineSet
Validated: 1
EndChar

StartChar: Y
Encoding: 89 89 82
Width: 1352
Flags: HW
LayerCount: 2
Fore
SplineSet
402 85 m 1,0,-1
 606 116 l 1,1,-1
 606 640 l 1,2,-1
 130 1438 l 1,3,-1
 16 1455 l 1,4,-1
 16 1553 l 1,5,-1
 508 1553 l 1,6,-1
 508 1455 l 1,7,-1
 355 1437 l 1,8,-1
 680 845 l 1,9,-1
 728 714 l 1,10,-1
 778 853 l 1,11,-1
 1048 1437 l 1,12,-1
 891 1455 l 1,13,-1
 891 1553 l 1,14,-1
 1347 1553 l 1,15,-1
 1347 1455 l 1,16,-1
 1216 1428 l 1,17,-1
 801 634 l 1,18,-1
 801 116 l 1,19,-1
 1015 85 l 1,20,-1
 1015 0 l 1,21,-1
 402 0 l 1,22,-1
 402 85 l 1,0,-1
EndSplineSet
Validated: 1
EndChar

StartChar: Z
Encoding: 90 90 83
Width: 1384
Flags: HW
LayerCount: 2
Fore
SplineSet
92 89 m 1,0,-1
 971 1324 l 1,1,-1
 1086 1439 l 1,2,-1
 351 1421 l 1,3,-1
 256 1193 l 1,4,-1
 149 1212 l 1,5,-1
 181 1553 l 1,6,-1
 1281 1553 l 1,7,-1
 1309 1467 l 1,8,-1
 440 232 l 1,9,-1
 346 117 l 1,10,-1
 1091 149 l 1,11,-1
 1241 384 l 1,12,-1
 1340 360 l 1,13,-1
 1249 0 l 1,14,-1
 118 0 l 1,15,-1
 92 89 l 1,0,-1
EndSplineSet
Validated: 1
EndChar

StartChar: a
Encoding: 97 97 84
Width: 1108
Flags: HW
LayerCount: 2
Fore
SplineSet
98 322 m 256,0,1
 106 392 106 392 143.5 444.5 c 128,-1,2
 181 497 181 497 237 535 c 128,-1,3
 293 573 293 573 361.5 598 c 128,-1,4
 430 623 430 623 499 638 c 128,-1,5
 568 653 568 653 632 659 c 128,-1,6
 696 665 696 665 743 665 c 1,7,-1
 743 752 l 2,8,9
 743 831 743 831 722 880.5 c 128,-1,10
 701 930 701 930 664 958 c 128,-1,11
 627 986 627 986 577 996 c 128,-1,12
 527 1006 527 1006 469 1006 c 0,13,14
 440 1006 440 1006 404 1000.5 c 128,-1,15
 368 995 368 995 329.5 985 c 128,-1,16
 291 975 291 975 252 961 c 128,-1,17
 213 947 213 947 178 930 c 1,18,-1
 141 1020 l 1,19,20
 178 1050 178 1050 231.5 1072.5 c 128,-1,21
 285 1095 285 1095 341.5 1110 c 128,-1,22
 398 1125 398 1125 451.5 1132 c 128,-1,23
 505 1139 505 1139 543 1139 c 0,24,25
 622 1139 622 1139 693.5 1122.5 c 128,-1,26
 765 1106 765 1106 819 1064.5 c 128,-1,27
 873 1023 873 1023 904.5 952.5 c 128,-1,28
 936 882 936 882 936 773 c 2,29,-1
 934 85 l 1,30,-1
 1062 85 l 1,31,-1
 1062 19 l 1,32,33
 1027 0 1027 0 975.5 -12 c 128,-1,34
 924 -24 924 -24 872 -24 c 0,35,36
 854 -24 854 -24 833 -21.5 c 128,-1,37
 812 -19 812 -19 794.5 -9 c 128,-1,38
 777 1 777 1 765.5 22 c 128,-1,39
 754 43 754 43 754 80 c 2,40,-1
 754 108 l 1,41,42
 731 80 731 80 699.5 56 c 128,-1,43
 668 32 668 32 627.5 14 c 128,-1,44
 587 -4 587 -4 535.5 -14 c 128,-1,45
 484 -24 484 -24 421 -24 c 0,46,47
 343 -24 343 -24 279.5 4 c 128,-1,48
 216 32 216 32 173.5 79.5 c 128,-1,49
 131 127 131 127 110.5 189.5 c 0,50,51
 95.7544 234.456 95.7544 234.456 95.7544 283.293 c 0,52,53
 95.7544 302.351 95.7544 302.351 98 322 c 256,0,1
292 318 m 0,54,55
 292 259 292 259 308 218 c 128,-1,56
 324 177 324 177 354.5 151.5 c 128,-1,57
 385 126 385 126 429 114.5 c 128,-1,58
 473 103 473 103 528 103 c 0,59,60
 558 103 558 103 589 111 c 128,-1,61
 620 119 620 119 648.5 131 c 128,-1,62
 677 143 677 143 701.5 158.5 c 128,-1,63
 726 174 726 174 741 189 c 1,64,65
 741 283 741 283 741.5 375.5 c 128,-1,66
 742 468 742 468 743 562 c 1,67,68
 701 562 701 562 651 557.5 c 128,-1,69
 601 553 601 553 551 542 c 128,-1,70
 501 531 501 531 454 513 c 128,-1,71
 407 495 407 495 371 467.5 c 128,-1,72
 335 440 335 440 313.5 403 c 128,-1,73
 292 366 292 366 292 318 c 0,54,55
EndSplineSet
Validated: 524289
EndChar

StartChar: b
Encoding: 98 98 85
Width: 1272
Flags: HW
LayerCount: 2
Fore
SplineSet
203 1466 m 1,0,-1
 32 1502 l 1,1,-1
 32 1589 l 1,2,-1
 355 1625 l 1,3,-1
 395 1608 l 1,4,-1
 395 1024 l 1,5,6
 422 1047 422 1047 454.5 1070 c 128,-1,7
 487 1093 487 1093 526.5 1111.5 c 128,-1,8
 566 1130 566 1130 614 1141.5 c 128,-1,9
 662 1153 662 1153 720 1153 c 0,10,11
 804 1153 804 1153 884 1123.5 c 128,-1,12
 964 1094 964 1094 1026 1028.5 c 128,-1,13
 1088 963 1088 963 1126 859 c 128,-1,14
 1164 755 1164 755 1164 605 c 0,15,16
 1164 477 1164 477 1123 362 c 128,-1,17
 1082 247 1082 247 1007.5 160.5 c 128,-1,18
 933 74 933 74 828.5 23 c 128,-1,19
 724 -28 724 -28 598 -28 c 0,20,21
 527 -28 527 -28 460.5 -20 c 128,-1,22
 394 -12 394 -12 340.5 0 c 128,-1,23
 287 12 287 12 250 25.5 c 128,-1,24
 213 39 213 39 203 50 c 1,25,-1
 203 1466 l 1,0,-1
395 158 m 1,26,27
 411 116 411 116 472.5 96.5 c 128,-1,28
 534 77 534 77 621 77 c 0,29,30
 686 77 686 77 748.5 106 c 128,-1,31
 811 135 811 135 860.5 195 c 128,-1,32
 910 255 910 255 940.5 348 c 0,33,34
 970.929 440.785 970.929 440.785 973 569 c 0,35,36
 973.131 577.121 973.131 577.121 973.131 584.587 c 0,37,38
 973.131 694.574 973.131 694.574 946.5 774 c 0,39,40
 918 859 918 859 871 912 c 128,-1,41
 824 965 824 965 763.5 989.5 c 128,-1,42
 703 1014 703 1014 640 1014 c 0,43,44
 596 1014 596 1014 558.5 1005 c 128,-1,45
 521 996 521 996 490.5 982 c 128,-1,46
 460 968 460 968 435.5 951.5 c 128,-1,47
 411 935 411 935 395 920 c 1,48,-1
 395 158 l 1,26,27
EndSplineSet
Validated: 524289
EndChar

StartChar: c
Encoding: 99 99 86
Width: 1039
Flags: HW
LayerCount: 2
Fore
SplineSet
83.9767 538 m 1,0,1
 83.9767 544.404 l 2,2,3
 83.9767 678.581 83.9767 678.581 125 787 c 0,4,5
 167 898 167 898 240.5 977 c 128,-1,6
 314 1056 314 1056 413.5 1100 c 128,-1,7
 513 1144 513 1144 628 1149 c 0,8,9
 640 1149.29 640 1149.29 652.122 1149.29 c 0,10,11
 682.429 1149.29 682.429 1149.29 713.5 1147.5 c 0,12,13
 757 1145 757 1145 795.5 1138.5 c 128,-1,14
 834 1132 834 1132 866 1122 c 128,-1,15
 898 1112 898 1112 918 1099 c 1,16,-1
 918 859 l 1,17,-1
 823 859 l 1,18,-1
 772 985 l 1,19,20
 756 998 756 998 735 1007 c 128,-1,21
 714 1016 714 1016 692 1022 c 128,-1,22
 670 1028 670 1028 648 1030.5 c 128,-1,23
 626 1033 626 1033 608 1033 c 0,24,25
 541 1033 541 1033 480 1008 c 128,-1,26
 419 983 419 983 372 932.5 c 128,-1,27
 325 882 325 882 297 805.5 c 128,-1,28
 268.992 728.998 268.992 728.998 267.971 626 c 1,29,30
 267.971 618.034 l 2,31,32
 267.971 487.147 267.971 487.147 300 393 c 0,33,34
 333 296 333 296 386 234.5 c 128,-1,35
 439 173 439 173 504 144.5 c 128,-1,36
 569 116 569 116 632 116 c 0,37,38
 671 116 671 116 713 121 c 128,-1,39
 755 126 755 126 794 134 c 128,-1,40
 833 142 833 142 866 153.5 c 128,-1,41
 899 165 899 165 920 177 c 1,42,-1
 954 88 l 1,43,44
 925 62 925 62 882 42 c 128,-1,45
 839 22 839 22 787.5 8 c 128,-1,46
 736 -6 736 -6 679.5 -13.5 c 128,-1,47
 623 -21 623 -21 566 -21 c 0,48,49
 450 -21 450 -21 361 21 c 128,-1,50
 272 63 272 63 210.5 138 c 128,-1,51
 149 213 149 213 117 315.5 c 128,-1,52
 84.9937 418.002 84.9937 418.002 83.9767 538 c 1,0,1
EndSplineSet
Validated: 524289
EndChar

StartChar: d
Encoding: 100 100 87
Width: 1272
Flags: HW
LayerCount: 2
Fore
SplineSet
540 -24 m 0,0,1
 456 -24 456 -24 377 9.5 c 128,-1,2
 298 43 298 43 237.5 112.5 c 128,-1,3
 177 182 177 182 140 288.5 c 128,-1,4
 103 395 103 395 103 541 c 0,5,6
 103 675 103 675 148 787.5 c 128,-1,7
 193 900 193 900 271 981 c 128,-1,8
 349 1062 349 1062 454.5 1107.5 c 128,-1,9
 560 1153 560 1153 681 1153 c 0,10,11
 734 1153 734 1153 784 1146 c 128,-1,12
 834 1139 834 1139 870 1127 c 1,13,-1
 870 1460 l 1,14,-1
 657 1496 l 1,15,-1
 657 1583 l 1,16,-1
 1017 1625 l 1,17,-1
 1062 1602 l 1,18,-1
 1062 85 l 1,19,-1
 1197 85 l 1,20,-1
 1197 10 l 1,21,22
 1180 1 1180 1 1154.5 -7 c 128,-1,23
 1129 -15 1129 -15 1100.5 -21 c 128,-1,24
 1072 -27 1072 -27 1042.5 -30 c 128,-1,25
 1013 -33 1013 -33 987 -33 c 0,26,27
 969 -33 969 -33 949.5 -30.5 c 128,-1,28
 930 -28 930 -28 914 -18 c 128,-1,29
 898 -8 898 -8 887.5 13 c 128,-1,30
 877 34 877 34 877 71 c 2,31,-1
 877 96 l 1,32,33
 862 79 862 79 833 58 c 128,-1,34
 804 37 804 37 761 19 c 128,-1,35
 718 1 718 1 662.5 -11.5 c 128,-1,36
 607 -24 607 -24 540 -24 c 0,0,1
617 113 m 0,37,38
 649 113 649 113 676.5 116.5 c 0,39,40
 703.49 119.935 703.49 119.935 728 126 c 0,41,42
 777 138 777 138 812 158 c 128,-1,43
 847 178 847 178 870 201 c 1,44,-1
 870 966 l 1,45,46
 859 979 859 979 843 993 c 128,-1,47
 827 1007 827 1007 801.5 1019 c 128,-1,48
 776 1031 776 1031 740.5 1038.5 c 128,-1,49
 705 1046 705 1046 657 1046 c 0,50,51
 619 1046 619 1046 578 1036.5 c 128,-1,52
 537 1027 537 1027 497 1005 c 128,-1,53
 457 983 457 983 421 948 c 128,-1,54
 385 913 385 913 357 862.5 c 128,-1,55
 329 812 329 812 312 744.5 c 0,56,57
 295.219 677.871 295.219 677.871 294 590 c 0,58,59
 293.862 580.061 293.862 580.061 293.862 573.191 c 0,60,61
 293.862 460.793 293.862 460.793 319 377 c 0,62,63
 346 287 346 287 391.5 228.5 c 128,-1,64
 437 170 437 170 496 141.5 c 128,-1,65
 555 113 555 113 617 113 c 0,37,38
EndSplineSet
Validated: 524289
EndChar

StartChar: e
Encoding: 101 101 88
Width: 1155
Flags: HW
LayerCount: 2
Fore
SplineSet
109 556 m 0,0,1
 109 684 109 684 149.5 792 c 128,-1,2
 190 900 190 900 262.5 979 c 128,-1,3
 335 1058 335 1058 437 1103.5 c 128,-1,4
 539 1149 539 1149 662 1152 c 0,5,6
 667.966 1152.14 667.966 1152.14 673.854 1152.14 c 0,7,8
 754.813 1152.14 754.813 1152.14 821 1126.5 c 0,9,10
 892 1099 892 1099 942 1045 c 128,-1,11
 992 991 992 991 1020.5 913 c 128,-1,12
 1049 835 1049 835 1053 736 c 0,13,14
 1053.62 716.615 1053.62 716.615 1053.62 698.84 c 0,15,16
 1053.62 658.846 1053.62 658.846 1050.5 627 c 0,17,18
 1046 581 1046 581 1041 545 c 1,19,-1
 300 545 l 1,20,-1
 300 533 l 2,21,22
 300 528 300 528 301 522 c 0,23,24
 305 401 305 401 342 322 c 128,-1,25
 379 243 379 243 434.5 196.5 c 128,-1,26
 490 150 490 150 557 131.5 c 128,-1,27
 624 113 624 113 688 113 c 0,28,29
 727 113 727 113 770 117.5 c 128,-1,30
 813 122 813 122 853.5 130.5 c 128,-1,31
 894 139 894 139 928.5 150 c 128,-1,32
 963 161 963 161 984 173 c 1,33,-1
 1021 88 l 1,34,35
 992 62 992 62 945.5 41 c 128,-1,36
 899 20 899 20 844 5.5 c 128,-1,37
 789 -9 789 -9 729 -16.5 c 128,-1,38
 669 -24 669 -24 612 -24 c 0,39,40
 491 -24 491 -24 397.5 17.5 c 128,-1,41
 304 59 304 59 240 134.5 c 128,-1,42
 176 210 176 210 142.5 317 c 128,-1,43
 109 424 109 424 109 556 c 0,0,1
849 663 m 1,44,45
 851 697 851 697 851 731.222 c 0,46,47
 851 748.333 851 748.333 850.5 765.5 c 0,48,49
 849 817 849 817 838 863.5 c 128,-1,50
 827 910 827 910 804.5 948.5 c 128,-1,51
 782 987 782 987 744 1011 c 0,52,53
 718 1028 718 1028 685 1036.5 c 128,-1,54
 652 1045 652 1045 610 1045 c 0,55,56
 554 1045 554 1045 501.5 1024 c 128,-1,57
 449 1003 449 1003 407.5 957 c 128,-1,58
 366 911 366 911 338 838.5 c 128,-1,59
 310 766 310 766 302 663 c 1,60,-1
 849 663 l 1,44,45
EndSplineSet
Validated: 524289
EndChar

StartChar: f
Encoding: 102 102 89
Width: 842
Flags: HW
LayerCount: 2
Fore
SplineSet
114 85 m 1,0,-1
 315 107 l 1,1,-1
 315 984 l 1,2,-1
 95 984 l 1,3,-1
 95 1060 l 1,4,-1
 315 1119 l 1,5,-1
 315 1202 l 2,6,7
 315 1276 315 1276 333.5 1341.5 c 128,-1,8
 352 1407 352 1407 383.5 1461 c 128,-1,9
 415 1515 415 1515 456.5 1557.5 c 128,-1,10
 498 1600 498 1600 543.5 1629 c 128,-1,11
 589 1658 589 1658 636 1673.5 c 128,-1,12
 683 1689 683 1689 725 1689 c 0,13,14
 793 1689 793 1689 825 1683 c 128,-1,15
 857 1677 857 1677 868 1672 c 1,16,-1
 868 1502 l 1,17,18
 854 1510 854 1510 805.5 1521.5 c 128,-1,19
 757 1533 757 1533 685 1533 c 0,20,21
 644 1533 644 1533 611.5 1526 c 128,-1,22
 579 1519 579 1519 555.5 1493.5 c 128,-1,23
 532 1468 532 1468 519.5 1418.5 c 128,-1,24
 507 1369 507 1369 507 1284 c 2,25,-1
 507 1119 l 1,26,-1
 809 1119 l 1,27,-1
 809 984 l 1,28,-1
 507 984 l 1,29,-1
 507 105 l 1,30,-1
 737 85 l 1,31,-1
 737 0 l 1,32,-1
 114 0 l 1,33,-1
 114 85 l 1,0,-1
EndSplineSet
Validated: 524289
EndChar

StartChar: g
Encoding: 103 103 90
Width: 1211
Flags: HW
LayerCount: 2
Fore
SplineSet
136 -233 m 0,0,1
 136 -187 136 -187 152.5 -145 c 128,-1,2
 169 -103 169 -103 194 -68 c 128,-1,3
 219 -33 219 -33 248.5 -5.5 c 128,-1,4
 278 22 278 22 305 39 c 1,5,6
 260 55 260 55 237 76 c 128,-1,7
 214 97 214 97 204.5 120 c 128,-1,8
 195 143 195 143 194 167 c 128,-1,9
 193 191 193 191 193 212 c 0,10,11
 193 230 193 230 201 259 c 128,-1,12
 209 288 209 288 224.5 321 c 128,-1,13
 240 354 240 354 263.5 388 c 128,-1,14
 287 422 287 422 317 449 c 1,15,16
 242 494 242 494 198.5 569.5 c 128,-1,17
 155 645 155 645 155 754 c 0,18,19
 155 857 155 857 194.5 933 c 128,-1,20
 234 1009 234 1009 298.5 1059 c 128,-1,21
 363 1109 363 1109 445 1134 c 128,-1,22
 527 1159 527 1159 611 1161 c 0,23,24
 618.907 1161.19 618.907 1161.19 626.723 1161.19 c 0,25,26
 702.93 1161.19 702.93 1161.19 770.5 1143.5 c 0,27,28
 845 1124 845 1124 902 1081 c 1,29,30
 922 1104 922 1104 960.5 1118.5 c 128,-1,31
 999 1133 999 1133 1063 1133 c 2,32,-1
 1184 1133 l 1,33,-1
 1184 982 l 1,34,-1
 988 982 l 1,35,36
 1009 944 1009 944 1020.5 896 c 128,-1,37
 1032 848 1032 848 1032 791 c 0,38,39
 1032 692 1032 692 995.5 615.5 c 128,-1,40
 959 539 959 539 897.5 487 c 128,-1,41
 836 435 836 435 755.5 408 c 128,-1,42
 675 381 675 381 587 381 c 0,43,44
 469 381 469 381 376 418 c 1,45,46
 370 402 370 402 367.5 383.5 c 128,-1,47
 365 365 365 365 364.5 347.5 c 128,-1,48
 364 330 364 330 364.5 314.5 c 128,-1,49
 365 299 365 299 365 289 c 0,50,51
 365 235 365 235 393.5 205 c 128,-1,52
 421.839 175.169 421.839 175.169 493 169 c 0,53,54
 539.252 164.99 539.252 164.99 601 164.5 c 0,55,56
 664 164 664 164 751 164 c 0,57,58
 845 164 845 164 910.5 149.5 c 128,-1,59
 976 135 976 135 1019.5 111 c 128,-1,60
 1063 87 1063 87 1088 55 c 128,-1,61
 1113 23 1113 23 1126 -12 c 128,-1,62
 1139 -47 1139 -47 1142 -82.5 c 128,-1,63
 1145 -118 1145 -118 1145 -150 c 0,64,65
 1145 -236 1145 -236 1109 -306 c 128,-1,66
 1073 -376 1073 -376 1005.5 -426 c 128,-1,67
 938 -476 938 -476 840.5 -503.5 c 128,-1,68
 743 -531 743 -531 619 -531 c 0,69,70
 529 -531 529 -531 442.5 -517 c 128,-1,71
 356 -503 356 -503 288 -468.5 c 128,-1,72
 220 -434 220 -434 178 -376.5 c 128,-1,73
 136 -319 136 -319 136 -233 c 0,0,1
616 488 m 0,74,75
 678 488 678 488 721 505 c 128,-1,76
 764 522 764 522 790.5 556.5 c 128,-1,77
 817 591 817 591 829 642.5 c 128,-1,78
 841 694 841 694 841 763 c 0,79,80
 841 912 841 912 777 984 c 128,-1,81
 713 1056 713 1056 585 1056 c 0,82,83
 535 1056 535 1056 491.5 1043 c 128,-1,84
 448 1030 448 1030 415.5 999.5 c 128,-1,85
 383 969 383 969 364.5 918.5 c 128,-1,86
 346 868 346 868 346 792 c 0,87,88
 346 730 346 730 361 674.5 c 128,-1,89
 376 619 376 619 408.5 577.5 c 128,-1,90
 441 536 441 536 492.5 512 c 128,-1,91
 544 488 544 488 616 488 c 0,74,75
322 -169 m 0,92,93
 322 -237 322 -237 348 -284.5 c 128,-1,94
 374 -332 374 -332 418 -361.5 c 128,-1,95
 462 -391 462 -391 520 -404.5 c 128,-1,96
 578 -418 578 -418 643 -418 c 0,97,98
 724 -418 724 -418 788.5 -404.5 c 128,-1,99
 853 -391 853 -391 898 -364 c 128,-1,100
 943 -337 943 -337 967 -295.5 c 128,-1,101
 991 -254 991 -254 991 -198 c 0,102,103
 991 -150 991 -150 980 -112.5 c 128,-1,104
 969 -75 969 -75 937 -49 c 128,-1,105
 905 -23 905 -23 847.5 -9.5 c 128,-1,106
 790 3.99999 790 3.99999 697 4 c 1,107,-1
 571 6 l 2,108,109
 512 6 512 6 465.5 9.5 c 128,-1,110
 419 13 419 13 382 19 c 1,111,112
 370 5 370 5 359.5 -12.5 c 128,-1,113
 349 -30 349 -30 340.5 -52.5 c 128,-1,114
 332 -75 332 -75 327 -103.5 c 128,-1,115
 322 -132 322 -132 322 -169 c 0,92,93
EndSplineSet
Validated: 524289
EndChar

StartChar: h
Encoding: 104 104 91
Width: 1386
Flags: HW
LayerCount: 2
Fore
SplineSet
115 85 m 1,0,-1
 265 106 l 1,1,-1
 265 1460 l 1,2,-1
 94 1496 l 1,3,-1
 94 1583 l 1,4,-1
 410 1625 l 1,5,-1
 457 1602 l 1,6,-1
 455 1160 l 1,7,-1
 452 987 l 1,8,9
 496 1023 496 1023 547.5 1051 c 128,-1,10
 599 1079 599 1079 651 1098.5 c 128,-1,11
 703 1118 703 1118 752.5 1128.5 c 128,-1,12
 802 1139 802 1139 842 1139 c 0,13,14
 944 1139 944 1139 1009 1108 c 128,-1,15
 1074 1077 1074 1077 1111.5 1012.5 c 128,-1,16
 1149 948 1149 948 1163 847 c 0,17,18
 1176.07 752.733 1176.07 752.733 1176.07 625.364 c 0,19,20
 1176.07 616.267 1176.07 616.267 1176 607 c 2,21,-1
 1176 106 l 1,22,-1
 1326 85 l 1,23,-1
 1326 0 l 1,24,-1
 816 0 l 1,25,-1
 816 85 l 1,26,-1
 984 106 l 1,27,-1
 984 522 l 2,28,29
 984 638 984 638 978.5 726 c 128,-1,30
 973 814 973 814 949.5 873.5 c 128,-1,31
 926 933 926 933 879 963 c 128,-1,32
 832 993 832 993 749 993 c 0,33,34
 716 993 716 993 679 989 c 128,-1,35
 642 985 642 985 604.5 975.5 c 128,-1,36
 567 966 567 966 529.5 950 c 128,-1,37
 492 934 492 934 457 909 c 1,38,-1
 457 106 l 1,39,-1
 604 85 l 1,40,-1
 604 0 l 1,41,-1
 115 0 l 1,42,-1
 115 85 l 1,0,-1
EndSplineSet
Validated: 524289
EndChar

StartChar: i
Encoding: 105 105 92
Width: 677
Flags: HW
LayerCount: 2
Fore
SplineSet
329 1375 m 0,0,1
 305 1375 305 1375 282 1383.5 c 128,-1,2
 259 1392 259 1392 241.5 1407.5 c 128,-1,3
 224 1423 224 1423 213.5 1446 c 128,-1,4
 203 1469 203 1469 203 1498 c 0,5,6
 203 1529 203 1529 216.5 1556 c 128,-1,7
 230 1583 230 1583 251 1602.5 c 128,-1,8
 272 1622 272 1622 298.5 1633 c 128,-1,9
 325 1644 325 1644 352 1644 c 0,10,11
 418 1644 418 1644 448.5 1607.5 c 128,-1,12
 479 1571 479 1571 479 1520 c 0,13,14
 479 1487 479 1487 466 1460 c 128,-1,15
 453 1433 453 1433 432 1414.5 c 128,-1,16
 411 1396 411 1396 384 1385.5 c 128,-1,17
 357 1375 357 1375 329 1375 c 0,0,1
108 85 m 1,18,-1
 278 106 l 1,19,-1
 278 925 l 1,20,-1
 140 998 l 1,21,-1
 140 1060 l 1,22,-1
 417 1139 l 1,23,-1
 462 1119 l 1,24,-1
 462 106 l 1,25,-1
 624 85 l 1,26,-1
 624 0 l 1,27,-1
 108 0 l 1,28,-1
 108 85 l 1,18,-1
EndSplineSet
Validated: 1
EndChar

StartChar: j
Encoding: 106 106 93
Width: 656
Flags: HW
LayerCount: 2
Fore
SplineSet
317 1404 m 0,0,1
 293 1404 293 1404 270 1412.5 c 128,-1,2
 247 1421 247 1421 229.5 1436.5 c 128,-1,3
 212 1452 212 1452 201.5 1475 c 128,-1,4
 191 1498 191 1498 191 1527 c 0,5,6
 191 1558 191 1558 204.5 1585 c 128,-1,7
 218 1612 218 1612 239 1631.5 c 128,-1,8
 260 1651 260 1651 286.5 1662 c 128,-1,9
 313 1673 313 1673 340 1673 c 0,10,11
 406 1673 406 1673 436.5 1636.5 c 128,-1,12
 467 1600 467 1600 467 1549 c 0,13,14
 467 1516 467 1516 454 1489 c 128,-1,15
 441 1462 441 1462 420 1443.5 c 128,-1,16
 399 1425 399 1425 372 1414.5 c 128,-1,17
 345 1404 345 1404 317 1404 c 0,0,1
266 925 m 1,18,-1
 127 999 l 1,19,-1
 127 1059 l 1,20,-1
 408 1139 l 1,21,-1
 454 1119 l 1,22,-1
 454 -16 l 2,23,24
 454 -133 454 -133 428.5 -225.5 c 128,-1,25
 403 -318 403 -318 355.5 -382.5 c 128,-1,26
 308 -447 308 -447 241 -481 c 128,-1,27
 174 -515 174 -515 91 -515 c 0,28,29
 81 -515 81 -515 64 -514 c 128,-1,30
 47 -513 47 -513 30.5 -511 c 128,-1,31
 14 -509 14 -509 0 -506 c 128,-1,32
 -14 -503 -14 -503 -18 -500 c 1,33,-1
 -18 -362 l 1,34,35
 -10 -365 -10 -365 5 -367 c 128,-1,36
 20 -369 20 -369 36.5 -370.5 c 128,-1,37
 53 -372 53 -372 68 -372.5 c 128,-1,38
 83 -373 83 -373 92 -373 c 0,39,40
 140 -373 140 -373 173.5 -354.5 c 128,-1,41
 207 -336 207 -336 227.5 -292.5 c 128,-1,42
 248 -249 248 -249 257 -178 c 128,-1,43
 266 -107 266 -107 266 -2 c 2,44,-1
 266 925 l 1,18,-1
EndSplineSet
Validated: 524289
EndChar

StartChar: k
Encoding: 107 107 94
Width: 1275
Flags: HW
LayerCount: 2
Fore
SplineSet
104 85 m 1,0,-1
 268 107 l 1,1,-1
 268 1460 l 1,2,-1
 88 1496 l 1,3,-1
 88 1583 l 1,4,-1
 420 1625 l 1,5,-1
 460 1602 l 1,6,-1
 460 704 l 1,7,-1
 455 528 l 1,8,-1
 897 1009 l 1,9,-1
 744 1023 l 1,10,-1
 744 1129 l 1,11,-1
 1213 1129 l 1,12,-1
 1213 1023 l 1,13,-1
 1065 1007 l 1,14,-1
 728 664 l 1,15,-1
 1135 106 l 1,16,-1
 1270 85 l 1,17,-1
 1270 0 l 1,18,-1
 785 0 l 1,19,-1
 785 85 l 1,20,-1
 925 108 l 1,21,-1
 613 568 l 1,22,-1
 454 411 l 1,23,-1
 460 217 l 1,24,-1
 460 105 l 1,25,-1
 604 85 l 1,26,-1
 604 0 l 1,27,-1
 104 0 l 1,28,-1
 104 85 l 1,0,-1
EndSplineSet
Validated: 1
EndChar

StartChar: l
Encoding: 108 108 95
Width: 651
Flags: HW
LayerCount: 2
Fore
SplineSet
70 85 m 1,0,-1
 240 106 l 1,1,-1
 240 1460 l 1,2,-1
 80 1496 l 1,3,-1
 80 1583 l 1,4,-1
 393 1625 l 1,5,-1
 433 1602 l 1,6,-1
 433 106 l 1,7,-1
 611 85 l 1,8,-1
 611 0 l 1,9,-1
 70 0 l 1,10,-1
 70 85 l 1,0,-1
EndSplineSet
Validated: 1
EndChar

StartChar: m
Encoding: 109 109 96
Width: 2060
Flags: HW
LayerCount: 2
Fore
SplineSet
133 85 m 1,0,-1
 269 107 l 1,1,-1
 269 920 l 1,2,-1
 127 998 l 1,3,-1
 127 1060 l 1,4,-1
 393 1139 l 1,5,-1
 438 1119 l 1,6,-1
 438 976 l 1,7,8
 471 1005 471 1005 518 1033.5 c 128,-1,9
 565 1062 565 1062 618.5 1085 c 128,-1,10
 672 1108 672 1108 728 1122.5 c 128,-1,11
 784 1137 784 1137 835 1139 c 0,12,13
 846.836 1139.44 846.836 1139.44 858.173 1139.44 c 0,14,15
 950.288 1139.44 950.288 1139.44 1009.5 1110.5 c 0,16,17
 1076 1078 1076 1078 1113 997 c 1,18,19
 1149 1024 1149 1024 1198 1049 c 128,-1,20
 1247 1074 1247 1074 1301 1093.5 c 128,-1,21
 1355 1113 1355 1113 1410 1125 c 128,-1,22
 1465 1137 1465 1137 1513 1139 c 0,23,24
 1522.62 1139.31 1522.62 1139.31 1531.93 1139.31 c 0,25,26
 1612.62 1139.31 1612.62 1139.31 1670 1116 c 0,27,28
 1734 1090 1734 1090 1773 1032 c 128,-1,29
 1812 974 1812 974 1829 882 c 128,-1,30
 1846 790 1846 790 1846 661 c 2,31,-1
 1846 106 l 1,32,-1
 2015 85 l 1,33,-1
 2015 0 l 1,34,-1
 1518 0 l 1,35,-1
 1518 85 l 1,36,-1
 1654 106 l 1,37,-1
 1654 626 l 2,38,39
 1654 722 1654 722 1645 792.5 c 128,-1,40
 1636 863 1636 863 1609.5 908.5 c 128,-1,41
 1583 954 1583 954 1536 975 c 0,42,43
 1494.88 993.375 1494.88 993.375 1431.55 993.375 c 0,44,45
 1422.5 993.375 1422.5 993.375 1413 993 c 0,46,47
 1345 990 1345 990 1278 967.5 c 128,-1,48
 1211 945 1211 945 1146 908 c 1,49,50
 1157 860 1157 860 1163 798.5 c 128,-1,51
 1169 737 1169 737 1169 671 c 2,52,-1
 1169 105 l 1,53,-1
 1322 85 l 1,54,-1
 1322 0 l 1,55,-1
 827 0 l 1,56,-1
 827 85 l 1,57,-1
 977 107 l 1,58,-1
 977 642 l 2,59,60
 977 737 977 737 967.5 805 c 128,-1,61
 958 873 958 873 931 916 c 128,-1,62
 904 959 904 959 856.5 977.5 c 0,63,64
 815.628 993.419 815.628 993.419 753.654 993.419 c 0,65,66
 743.605 993.419 743.605 993.419 733 993 c 0,67,68
 679 990 679 990 609.5 965.5 c 128,-1,69
 540 941 540 941 464 889 c 1,70,-1
 464 706 l 2,71,72
 464 555 464 555 463 406 c 0,73,74
 462.5 331.5 462.5 331.5 462.5 256.5 c 128,-1,75
 462.5 181.5 462.5 181.5 463 106 c 1,76,-1
 612 85 l 1,77,-1
 612 0 l 1,78,-1
 133 0 l 1,79,-1
 133 85 l 1,0,-1
EndSplineSet
Validated: 524289
EndChar

StartChar: n
Encoding: 110 110 97
Width: 1386
Flags: HW
LayerCount: 2
Fore
SplineSet
133 85 m 1,0,-1
 269 105 l 1,1,-1
 269 920 l 1,2,-1
 127 998 l 1,3,-1
 127 1060 l 1,4,-1
 393 1139 l 1,5,-1
 438 1119 l 1,6,-1
 438 976 l 1,7,8
 472 1005 472 1005 520 1033.5 c 128,-1,9
 568 1062 568 1062 622 1085 c 128,-1,10
 676 1108 676 1108 733 1122.5 c 128,-1,11
 790 1137 790 1137 841 1139 c 0,12,13
 850.789 1139.32 850.789 1139.32 860.247 1139.32 c 0,14,15
 940.632 1139.32 940.632 1139.32 997 1116.5 c 0,16,17
 1060 1091 1060 1091 1099 1033.5 c 128,-1,18
 1138 976 1138 976 1155 886 c 128,-1,19
 1172 796 1172 796 1172 670 c 2,20,-1
 1172 105 l 1,21,-1
 1333 85 l 1,22,-1
 1333 0 l 1,23,-1
 829 0 l 1,24,-1
 829 85 l 1,25,-1
 980 106 l 1,26,-1
 980 635 l 2,27,28
 980 726 980 726 971 794.5 c 128,-1,29
 962 863 962 863 935.5 908 c 128,-1,30
 909 953 909 953 862 974.5 c 0,31,32
 820.755 993.367 820.755 993.367 757.177 993.367 c 0,33,34
 748.306 993.367 748.306 993.367 739 993 c 0,35,36
 677 990 677 990 608 965.5 c 128,-1,37
 539 941 539 941 463 889 c 1,38,-1
 463 106 l 1,39,-1
 612 85 l 1,40,-1
 612 0 l 1,41,-1
 133 0 l 1,42,-1
 133 85 l 1,0,-1
EndSplineSet
Validated: 524289
EndChar

StartChar: o
Encoding: 111 111 98
Width: 1237
Flags: HW
LayerCount: 2
Fore
SplineSet
104 582 m 0,0,1
 106.131 716.31 106.131 716.31 150.5 821.5 c 0,2,3
 195 927 195 927 268 1000 c 128,-1,4
 341 1073 341 1073 436.5 1112 c 128,-1,5
 532 1151 532 1151 636 1152 c 1,6,-1
 641.506 1152 l 2,7,8
 765.043 1152 765.043 1152 857 1108 c 0,9,10
 951 1063 951 1063 1012.5 984.5 c 128,-1,11
 1074 906 1074 906 1104 800 c 0,12,13
 1133.03 697.419 1133.03 697.419 1133.03 580.791 c 0,14,15
 1133.03 577.089 1133.03 577.089 1133 573 c 0,16,17
 1131.95 439.867 1131.95 439.867 1090.5 330 c 128,-1,18
 1049 220 1049 220 978.5 141.5 c 128,-1,19
 908 63 908 63 813.5 19.5 c 128,-1,20
 719 -24 719 -24 611 -24 c 0,21,22
 473 -24 473 -24 376 26 c 128,-1,23
 279 76 279 76 218 160 c 128,-1,24
 157 244 157 244 129.5 353.5 c 0,25,26
 103.864 455.576 103.864 455.576 103.864 565.908 c 0,27,28
 103.864 573.454 103.864 573.454 104 582 c 0,0,1
620 88 m 0,29,30
 625.151 87.8788 625.151 87.8788 630.206 87.8788 c 0,31,32
 708.545 87.8788 708.545 87.8788 763.5 117 c 0,33,34
 822 148 822 148 858.5 208.5 c 128,-1,35
 895 269 895 269 911.5 358.5 c 128,-1,36
 928 448 928 448 928 564 c 0,37,38
 928 665 928 665 910.5 752.5 c 128,-1,39
 893 840 893 840 855.5 905 c 128,-1,40
 818 970 818 970 760.5 1007.5 c 128,-1,41
 703 1045 703 1045 624 1047 c 0,42,43
 621.302 1047.03 621.302 1047.03 618.629 1047.03 c 0,44,45
 537.111 1047.03 537.111 1047.03 479.5 1017.5 c 0,46,47
 420 987 420 987 382 928 c 128,-1,48
 344 869 344 869 326.5 784 c 128,-1,49
 309 699 309 699 309 591 c 0,50,51
 309 494 309 494 328 404 c 128,-1,52
 347 314 347 314 385 244.5 c 128,-1,53
 423 175 423 175 481.5 132.5 c 128,-1,54
 540 90 540 90 620 88 c 0,29,30
EndSplineSet
Validated: 524289
EndChar

StartChar: p
Encoding: 112 112 99
Width: 1324
Flags: HW
LayerCount: 2
Fore
SplineSet
447 -260 m 1,0,-1
 447 -405 l 1,1,-1
 643 -426 l 1,2,-1
 643 -511 l 1,3,-1
 115 -511 l 1,4,-1
 115 -426 l 1,5,-1
 255 -404 l 1,6,-1
 255 920 l 1,7,-1
 113 998 l 1,8,-1
 113 1060 l 1,9,-1
 378 1139 l 1,10,-1
 424 1118 l 1,11,-1
 424 1002 l 1,12,13
 445 1026 445 1026 479.5 1052.5 c 128,-1,14
 514 1079 514 1079 559 1101 c 128,-1,15
 604 1123 604 1123 659 1137.5 c 128,-1,16
 714 1152 714 1152 776 1152 c 0,17,18
 860 1152 860 1152 939 1122.5 c 128,-1,19
 1018 1093 1018 1093 1079.5 1027 c 128,-1,20
 1141 961 1141 961 1178 854.5 c 128,-1,21
 1215 748 1215 748 1215 595 c 0,22,23
 1215 467 1215 467 1173.5 354.5 c 128,-1,24
 1132 242 1132 242 1056.5 158 c 128,-1,25
 981 74 981 74 876 25.5 c 128,-1,26
 771 -23 771 -23 645 -23 c 0,27,28
 589 -23 589 -23 539 -13.5 c 128,-1,29
 489 -4 489 -4 441 9 c 1,30,-1
 447 -260 l 1,0,-1
447 170 m 1,31,32
 470 130 470 130 525.5 106 c 128,-1,33
 581 82 581 82 668 82 c 0,34,35
 733 82 733 82 796 108.5 c 128,-1,36
 859 135 859 135 909 193.5 c 128,-1,37
 959 252 959 252 990.5 344.5 c 128,-1,38
 1021.95 436.851 1021.95 436.851 1024 569 c 0,39,40
 1024.14 577.738 1024.14 577.738 1024.14 585.903 c 0,41,42
 1024.14 700.864 1024.14 700.864 998.5 781.5 c 0,43,44
 971 868 971 868 924.5 922 c 128,-1,45
 878 976 878 976 818.5 999.5 c 128,-1,46
 759 1023 759 1023 696 1023 c 0,47,48
 648 1023 648 1023 609.5 1012 c 128,-1,49
 571 1001 571 1001 540 985 c 128,-1,50
 509 969 509 969 485.5 951 c 128,-1,51
 462 933 462 933 446 919 c 1,52,-1
 447 530 l 1,53,-1
 447 170 l 1,31,32
EndSplineSet
Validated: 524289
EndChar

StartChar: q
Encoding: 113 113 100
Width: 1247
Flags: HW
LayerCount: 2
Fore
SplineSet
539 -28 m 0,0,1
 503 -28 503 -28 457 -20 c 128,-1,2
 411 -12 411 -12 362.5 10 c 128,-1,3
 314 32 314 32 267.5 72 c 128,-1,4
 221 112 221 112 184.5 175.5 c 128,-1,5
 148 239 148 239 125.5 330 c 128,-1,6
 103 421 103 421 103 546 c 0,7,8
 103 673 103 673 146.5 784 c 128,-1,9
 190 895 190 895 268.5 977 c 128,-1,10
 347 1059 347 1059 456 1106 c 128,-1,11
 565 1153 565 1153 695 1153 c 0,12,13
 755 1153 755 1153 812 1142 c 128,-1,14
 869 1131 869 1131 904 1117 c 1,15,-1
 1024 1140 l 1,16,-1
 1064 1120 l 1,17,-1
 1064 -395 l 1,18,-1
 1200 -416 l 1,19,-1
 1200 -511 l 1,20,-1
 666 -511 l 1,21,-1
 666 -416 l 1,22,-1
 872 -395 l 1,23,-1
 872 -47 l 1,24,-1
 878 106 l 1,25,26
 861 89 861 89 831.5 66 c 128,-1,27
 802 43 802 43 760 22 c 128,-1,28
 718 1 718 1 663 -13.5 c 128,-1,29
 608 -28 608 -28 539 -28 c 0,0,1
609 111 m 0,30,31
 656 111 656 111 697 119 c 128,-1,32
 738 127 738 127 771.5 140.5 c 128,-1,33
 805 154 805 154 830 171 c 128,-1,34
 855 188 855 188 872 205 c 1,35,-1
 872 966 l 1,36,37
 837 1011 837 1011 783 1028.5 c 128,-1,38
 729 1046 729 1046 663 1046 c 0,39,40
 586 1046 586 1046 519.5 1017 c 128,-1,41
 453 988 453 988 403.5 929.5 c 128,-1,42
 354 871 354 871 325 783.5 c 128,-1,43
 296 696 296 696 294 579 c 0,44,45
 293.833 569.292 293.833 569.292 293.833 559.865 c 0,46,47
 293.833 455.708 293.833 455.708 314 375.5 c 0,48,49
 336 288 336 288 377 229.5 c 128,-1,50
 418 171 418 171 477 141 c 128,-1,51
 536 111 536 111 609 111 c 0,30,31
EndSplineSet
Validated: 524321
EndChar

StartChar: r
Encoding: 114 114 101
Width: 885
Flags: HW
LayerCount: 2
Fore
SplineSet
70 85 m 1,0,-1
 232 106 l 1,1,-1
 232 920 l 1,2,-1
 90 998 l 1,3,-1
 90 1060 l 1,4,-1
 354 1139 l 1,5,-1
 401 1119 l 1,6,-1
 401 965 l 1,7,8
 420 993 420 993 458.5 1024 c 128,-1,9
 497 1055 497 1055 545 1080.5 c 128,-1,10
 593 1106 593 1106 645 1122.5 c 128,-1,11
 697 1139 697 1139 743 1139 c 0,12,13
 776 1139 776 1139 802.5 1137.5 c 128,-1,14
 829 1136 829 1136 840 1132 c 1,15,-1
 840 927 l 1,16,17
 807 939.5 l 2,18,19
 790 946 790 946 769.5 950.5 c 128,-1,20
 749 955 749 955 723 958 c 128,-1,21
 697 961 697 961 663 961 c 0,22,23
 582 961 582 961 527 940.5 c 128,-1,24
 472 920 472 920 426 891 c 1,25,-1
 426 109 l 1,26,-1
 711 85 l 1,27,-1
 711 0 l 1,28,-1
 70 0 l 1,29,-1
 70 85 l 1,0,-1
EndSplineSet
Validated: 524289
EndChar

StartChar: s
Encoding: 115 115 102
Width: 994
Flags: HW
LayerCount: 2
Fore
SplineSet
113 290 m 1,0,-1
 202 290 l 1,1,-1
 241 168 l 1,2,3
 266 147 266 147 290.5 131.5 c 128,-1,4
 315 116 315 116 340.5 106 c 128,-1,5
 366 96 366 96 395 90.5 c 0,6,7
 423.206 85.1505 423.206 85.1505 459 84 c 0,8,9
 468.956 83.68 468.956 83.68 476.69 83.68 c 0,10,11
 522.52 83.68 522.52 83.68 562 92.5 c 0,12,13
 609 103 609 103 643 126.5 c 128,-1,14
 677 150 677 150 696 186 c 128,-1,15
 715 222 715 222 715 272 c 0,16,17
 715 317 715 317 690.5 349 c 128,-1,18
 666 381 666 381 626 406.5 c 128,-1,19
 586 432 586 432 535 453.5 c 128,-1,20
 484 475 484 475 431 501 c 0,21,22
 372 529 372 529 315.5 562.5 c 128,-1,23
 259 596 259 596 215.5 637.5 c 128,-1,24
 172 679 172 679 146 731 c 0,25,26
 120.963 781.074 120.963 781.074 120.963 845.058 c 0,27,28
 120.963 899.511 120.963 899.511 139.5 944 c 0,29,30
 157 986 157 986 186.5 1019 c 128,-1,31
 216 1052 216 1052 255 1076.5 c 128,-1,32
 294 1101 294 1101 338 1117.5 c 128,-1,33
 382 1134 382 1134 428.5 1142.5 c 128,-1,34
 475 1151 475 1151 520 1152 c 0,35,36
 527.692 1152.15 527.692 1152.15 535.302 1152.15 c 0,37,38
 577.154 1152.15 577.154 1152.15 616.5 1147.5 c 0,39,40
 663 1142 663 1142 703.5 1132 c 128,-1,41
 744 1122 744 1122 776.5 1109 c 128,-1,42
 809 1096 809 1096 832 1083 c 1,43,-1
 832 869 l 1,44,-1
 747 869 l 1,45,-1
 704 981 l 1,46,47
 690 996 690 996 673.5 1008.5 c 128,-1,48
 657 1021 657 1021 636.5 1030.5 c 128,-1,49
 616 1040 616 1040 590 1046 c 128,-1,50
 564 1052 564 1052 531 1052 c 0,51,52
 483 1052 483 1052 442.5 1042.5 c 128,-1,53
 402 1033 402 1033 372 1013 c 128,-1,54
 342 993 342 993 324.5 961 c 128,-1,55
 307 929 307 929 306 884 c 0,56,57
 305.846 880.538 305.846 880.538 305.846 877.145 c 0,58,59
 305.846 836.423 305.846 836.423 328 805.5 c 0,60,61
 352 772 352 772 391 745 c 128,-1,62
 430 718 430 718 480.5 694.5 c 2,63,-1
 584 645 l 1,64,-1
 695.5 591.5 l 2,65,66
 752 564 752 564 797 526.5 c 128,-1,67
 842 489 842 489 870.5 438.5 c 128,-1,68
 899 388 899 388 899 318 c 0,69,70
 899 233 899 233 865 169 c 128,-1,71
 831 105 831 105 771.5 62 c 128,-1,72
 712 19 712 19 632.5 -2.5 c 128,-1,73
 553 -24 553 -24 462 -24 c 256,74,75
 371 -24 371 -24 280 -2.5 c 128,-1,76
 189 19 189 19 113 61 c 1,77,-1
 113 290 l 1,0,-1
EndSplineSet
Validated: 524289
EndChar

StartChar: t
Encoding: 116 116 103
Width: 858
Flags: HW
LayerCount: 2
Fore
SplineSet
264 262 m 0,0,1
 264 446 264 446 264.5 627.5 c 128,-1,2
 265 809 265 809 265 993 c 1,3,-1
 112 993 l 1,4,-1
 112 1068 l 1,5,6
 156 1079 156 1079 185.5 1085.5 c 128,-1,7
 215 1092 215 1092 234.5 1100.5 c 128,-1,8
 254 1109 254 1109 267 1122 c 128,-1,9
 280 1135 280 1135 291 1160 c 0,10,11
 298 1177 298 1177 308.5 1210 c 128,-1,12
 319 1243 319 1243 328.5 1277.5 c 128,-1,13
 338 1312 338 1312 345 1342.5 c 128,-1,14
 352 1373 352 1373 354 1386 c 1,15,-1
 453 1386 l 1,16,-1
 453 1119 l 1,17,-1
 789 1119 l 1,18,-1
 789 993 l 1,19,-1
 453 993 l 1,20,-1
 453 489 l 2,21,22
 453 373 453 373 456 300.5 c 128,-1,23
 459 228 459 228 471 187 c 128,-1,24
 483 146 483 146 506 131.5 c 128,-1,25
 529 117 529 117 570 117 c 0,26,27
 590 117 590 117 618.5 120.5 c 128,-1,28
 647 124 647 124 676 130.5 c 128,-1,29
 705 137 705 137 730 145.5 c 128,-1,30
 755 154 755 154 768 164 c 1,31,-1
 799 76 l 1,32,33
 776 51 776 51 738.5 32.5 c 128,-1,34
 701 14 701 14 658 1.5 c 128,-1,35
 615 -11 615 -11 571 -17.5 c 128,-1,36
 527 -24 527 -24 493 -24 c 0,37,38
 384 -24 384 -24 324 43 c 128,-1,39
 264 110 264 110 264 262 c 0,0,1
EndSplineSet
Validated: 524289
EndChar

StartChar: u
Encoding: 117 117 104
Width: 1271
Flags: HW
LayerCount: 2
Fore
SplineSet
209 977 m 1,0,-1
 106 1007 l 1,1,-1
 106 1084 l 1,2,-1
 363 1139 l 1,3,-1
 398 1121 l 1,4,-1
 398 432 l 2,5,6
 398 349 398 349 407 289.5 c 128,-1,7
 416 230 416 230 440 191.5 c 128,-1,8
 464 153 464 153 506 134.5 c 128,-1,9
 548 116 548 116 614 116 c 0,10,11
 659 116 659 116 702.5 128.5 c 128,-1,12
 746 141 746 141 783.5 158.5 c 128,-1,13
 821 176 821 176 849 195.5 c 128,-1,14
 877 215 877 215 890 229 c 1,15,-1
 890 968 l 1,16,-1
 765 1000 l 1,17,-1
 765 1082 l 1,18,-1
 1051 1139 l 1,19,-1
 1079 1122 l 1,20,-1
 1079 85 l 1,21,-1
 1199 85 l 1,22,-1
 1199 9 l 1,23,24
 1184 1 1184 1 1162 -6.5 c 128,-1,25
 1140 -14 1140 -14 1114.5 -20 c 128,-1,26
 1089 -26 1089 -26 1062.5 -30 c 128,-1,27
 1036 -34 1036 -34 1012 -34 c 0,28,29
 964 -34 964 -34 936.5 -13.5 c 128,-1,30
 909 7 909 7 909 52 c 2,31,-1
 909 134 l 1,32,33
 822 58 822 58 726.5 18.5 c 128,-1,34
 631 -21 631 -21 540 -21 c 0,35,36
 422 -21 422 -21 356 15.5 c 128,-1,37
 290 52 290 52 257.5 116.5 c 128,-1,38
 225 181 225 181 217.5 269 c 128,-1,39
 210 357 210 357 209 461 c 1,40,-1
 209 977 l 1,0,-1
EndSplineSet
Validated: 524289
EndChar

StartChar: v
Encoding: 118 118 105
Width: 1199
Flags: HW
LayerCount: 2
Fore
SplineSet
108 994 m 1,0,-1
 5 1014 l 1,1,-1
 5 1119 l 1,2,-1
 451 1119 l 1,3,-1
 451 1014 l 1,4,-1
 327 993 l 1,5,-1
 545 459 l 1,6,-1
 635 156 l 1,7,-1
 733 447 l 1,8,-1
 926 993 l 1,9,-1
 796 1013 l 1,10,-1
 796 1119 l 1,11,-1
 1194 1119 l 1,12,-1
 1194 1014 l 1,13,-1
 1089 992 l 1,14,-1
 677 -24 l 1,15,-1
 546 -24 l 1,16,-1
 108 994 l 1,0,-1
EndSplineSet
Validated: 1
EndChar

StartChar: w
Encoding: 119 119 106
Width: 1712
Flags: HW
LayerCount: 2
Fore
SplineSet
107 995 m 1,0,-1
 14 1013 l 1,1,-1
 14 1119 l 1,2,-1
 443 1119 l 1,3,-1
 443 1013 l 1,4,-1
 303 991 l 1,5,-1
 481 374 l 1,6,-1
 532 158 l 1,7,-1
 578 374 l 1,8,-1
 785 1119 l 1,9,-1
 956 1119 l 1,10,-1
 1168 374 l 1,11,-1
 1220 150 l 1,12,-1
 1281 374 l 1,13,-1
 1448 993 l 1,14,-1
 1309 1013 l 1,15,-1
 1309 1119 l 1,16,-1
 1707 1119 l 1,17,-1
 1707 1014 l 1,18,-1
 1601 992 l 1,19,-1
 1290 -25 l 1,20,-1
 1118 -25 l 1,21,-1
 881 737 l 1,22,-1
 858 883 l 1,23,-1
 820 737 l 1,24,-1
 597 -25 l 1,25,-1
 437 -25 l 1,26,-1
 107 995 l 1,0,-1
EndSplineSet
Validated: 1
EndChar

StartChar: x
Encoding: 120 120 107
Width: 1170
Flags: HW
LayerCount: 2
Fore
SplineSet
7 85 m 1,0,-1
 163 107 l 1,1,-1
 494 543 l 1,2,-1
 148 995 l 1,3,-1
 5 1013 l 1,4,-1
 5 1119 l 1,5,-1
 512 1119 l 1,6,-1
 512 1013 l 1,7,-1
 372 995 l 1,8,-1
 487 817 l 1,9,10
 549 724.5 l 1,11,-1
 612 632 l 1,12,-1
 653 705 l 1,13,-1
 854 998 l 1,14,-1
 712 1013 l 1,15,-1
 712 1119 l 1,16,-1
 1157 1119 l 1,17,-1
 1157 1013 l 1,18,-1
 1007 994 l 1,19,-1
 678 566 l 1,20,-1
 1026 105 l 1,21,-1
 1165 85 l 1,22,-1
 1165 0 l 1,23,-1
 676 0 l 1,24,-1
 676 85 l 1,25,-1
 800 105 l 1,26,27
 710.5 239.5 l 1,28,-1
 660.5 314.5 l 1,29,-1
 637 349 l 2,30,31
 631 358 631 358 628 364 c 1,32,-1
 558 463 l 1,33,-1
 516 387 l 1,34,-1
 323 106 l 1,35,-1
 504 85 l 1,36,-1
 504 0 l 1,37,-1
 7 0 l 1,38,-1
 7 85 l 1,0,-1
EndSplineSet
Validated: 524289
EndChar

StartChar: y
Encoding: 121 121 108
Width: 1165
Flags: HW
LayerCount: 2
Fore
SplineSet
169 -339 m 1,0,1
 186 -344 186 -344 208.5 -347 c 128,-1,2
 231 -350 231 -350 249 -350 c 0,3,4
 285 -350 285 -350 327 -337 c 128,-1,5
 369 -324 369 -324 412 -286.5 c 128,-1,6
 455 -249 455 -249 495.5 -180 c 128,-1,7
 536 -111 536 -111 569 0 c 1,8,-1
 526 0 l 1,9,-1
 125 995 l 1,10,-1
 21 1013 l 1,11,-1
 21 1119 l 1,12,-1
 484 1119 l 1,13,-1
 484 1013 l 1,14,-1
 340 993 l 1,15,-1
 575 322 l 1,16,-1
 642 118 l 1,17,-1
 700 322 l 1,18,-1
 903 996 l 1,19,-1
 747 1013 l 1,20,-1
 747 1119 l 1,21,-1
 1179 1119 l 1,22,-1
 1179 1013 l 1,23,-1
 1067 997 l 1,24,25
 949.5 656 l 1,26,-1
 861.5 401 l 1,27,-1
 797.5 218 l 1,28,-1
 753 93 l 1,29,-1
 724 12.5 l 1,30,-1
 705 -38 l 1,31,32
 663.504 -143.056 663.504 -143.056 626.5 -218 c 0,33,34
 587 -298 587 -298 543 -356.5 c 128,-1,35
 499 -415 499 -415 448.5 -452.5 c 0,36,37
 398.503 -489.627 398.503 -489.627 336 -505 c 0,38,39
 295 -515 295 -515 248 -515 c 0,40,41
 238 -515 238 -515 226 -514 c 128,-1,42
 214 -513 214 -513 202.5 -511 c 128,-1,43
 191 -509 191 -509 182 -506 c 128,-1,44
 173 -503 173 -503 169 -500 c 1,45,-1
 169 -339 l 1,0,1
EndSplineSet
Validated: 524289
EndChar

StartChar: z
Encoding: 122 122 109
Width: 1085
Flags: HW
LayerCount: 2
Fore
SplineSet
172 177 m 1,0,-1
 705 927 l 1,1,-1
 787 1025 l 1,2,-1
 307 1009 l 1,3,-1
 247 825 l 1,4,-1
 154 825 l 1,5,-1
 154 1119 l 1,6,-1
 996 1119 l 1,7,-1
 1021 1037 l 1,8,-1
 439 228 l 1,9,-1
 340 98 l 1,10,-1
 844 120 l 1,11,-1
 908 289 l 1,12,13
 934 289 934 289 959.5 288.5 c 128,-1,14
 985 288 985 288 1011 288 c 1,15,-1
 994 0 l 1,16,-1
 134 0 l 1,17,-1
 105 55 l 1,18,-1
 172 177 l 1,0,-1
EndSplineSet
Validated: 1
EndChar

StartChar: asciitilde
Encoding: 126 126 110
Width: 1257
Flags: HW
LayerCount: 2
Fore
SplineSet
160 858 m 1,0,1
 182 896 182 896 219 930.5 c 128,-1,2
 256 965 256 965 301 991 c 128,-1,3
 346 1017 346 1017 395.5 1032.5 c 128,-1,4
 445 1048 445 1048 492 1048 c 0,5,6
 531 1048 531 1048 561.5 1037 c 128,-1,7
 592 1026 592 1026 617 1010 c 128,-1,8
 642 994 642 994 663.5 974.5 c 128,-1,9
 685 955 685 955 706.5 939 c 128,-1,10
 728 923 728 923 751.5 912 c 128,-1,11
 775 901 775 901 804 901 c 0,12,13
 838 901 838 901 870.5 911 c 128,-1,14
 903 921 903 921 931.5 936 c 128,-1,15
 960 951 960 951 984 969 c 128,-1,16
 1008 987 1008 987 1026 1004 c 1,17,-1
 1088 925 l 1,18,19
 1065 887 1065 887 1028.5 852.5 c 128,-1,20
 992 818 992 818 947 791.5 c 128,-1,21
 902 765 902 765 852.5 749.5 c 128,-1,22
 803 734 803 734 756 734 c 0,23,24
 717 734 717 734 686.5 745 c 128,-1,25
 656 756 656 756 631.5 772.5 c 128,-1,26
 607 789 607 789 585.5 808 c 128,-1,27
 564 827 564 827 542.5 843.5 c 128,-1,28
 521 860 521 860 497 871 c 128,-1,29
 473 882 473 882 444 882 c 0,30,31
 409 882 409 882 377 872 c 128,-1,32
 345 862 345 862 316.5 847 c 128,-1,33
 288 832 288 832 264 813.5 c 128,-1,34
 240 795 240 795 222 779 c 1,35,-1
 160 858 l 1,0,1
EndSplineSet
Validated: 1
EndChar

StartChar: asciicircum
Encoding: 94 94 111
Width: 1247
Flags: HW
LayerCount: 2
Fore
SplineSet
521 1531 m 1,0,-1
 718 1531 l 1,1,-1
 1102 564 l 1,2,3
 1058 564 1058 564 1014.5 563.5 c 128,-1,4
 971 563 971 563 927 563 c 1,5,-1
 610 1326 l 1,6,-1
 293 563 l 1,7,8
 254 563 254 563 215.5 563.5 c 128,-1,9
 177 564 177 564 138 564 c 1,10,-1
 521 1531 l 1,0,-1
EndSplineSet
Validated: 1
EndChar

StartChar: cent
Encoding: 162 162 112
Width: 1041
Flags: HW
LayerCount: 2
Fore
SplineSet
474 -13 m 1,0,1
 380 3 380 3 307.5 50.5 c 128,-1,2
 235 98 235 98 185.5 170.5 c 128,-1,3
 136 243 136 243 110.5 336.5 c 128,-1,4
 84.9928 430.002 84.9928 430.002 83.973 538 c 1,5,6
 83.973 544.848 l 2,7,8
 83.973 667.824 83.973 667.824 119 769.5 c 0,9,10
 155 874 155 874 219 951.5 c 128,-1,11
 283 1029 283 1029 370.5 1078 c 128,-1,12
 458 1127 458 1127 560 1142 c 1,13,-1
 573 1362 l 1,14,-1
 697 1362 l 1,15,-1
 685 1149 l 1,16,17
 721 1148 721 1148 755.5 1144 c 128,-1,18
 790 1140 790 1140 820.5 1133.5 c 128,-1,19
 851 1127 851 1127 876 1118.5 c 128,-1,20
 901 1110 901 1110 918 1099 c 1,21,-1
 918 859 l 1,22,-1
 823 859 l 1,23,-1
 772 985 l 1,24,25
 756 998 756 998 735 1007 c 128,-1,26
 714 1016 714 1016 692 1022 c 128,-1,27
 670 1028 670 1028 648 1030.5 c 128,-1,28
 626 1033 626 1033 608 1033 c 0,29,30
 541 1033 541 1033 480 1008 c 128,-1,31
 419 983 419 983 372 932.5 c 128,-1,32
 325 882 325 882 297 805.5 c 128,-1,33
 268.992 728.998 268.992 728.998 267.971 626 c 1,34,35
 267.971 618.034 l 2,36,37
 267.971 487.147 267.971 487.147 300 393 c 0,38,39
 333 296 333 296 386 234.5 c 128,-1,40
 439 173 439 173 504 144.5 c 128,-1,41
 569 116 569 116 632 116 c 0,42,43
 671 116 671 116 713 121 c 128,-1,44
 755 126 755 126 794 134 c 128,-1,45
 833 142 833 142 866 153.5 c 128,-1,46
 899 165 899 165 920 177 c 1,47,-1
 954 88 l 1,48,49
 927 64 927 64 887.5 45 c 128,-1,50
 848 26 848 26 801.5 12 c 128,-1,51
 755 -2 755 -2 703 -10 c 128,-1,52
 651 -18 651 -18 598 -20 c 1,53,-1
 587 -216 l 1,54,-1
 463 -216 l 1,55,-1
 474 -13 l 1,0,1
EndSplineSet
Validated: 524289
EndChar

StartChar: sterling
Encoding: 163 163 113
Width: 1428
Flags: HW
LayerCount: 2
Fore
SplineSet
82 61 m 0,0,1
 82 88 82 88 102.5 117 c 128,-1,2
 123 146 123 146 161 169.5 c 128,-1,3
 199 193 199 193 254 207 c 0,4,5
 299.294 218.529 299.294 218.529 353.405 218.529 c 0,6,7
 365 218.529 365 218.529 377 218 c 1,8,9
 387 240 387 240 393.5 272 c 128,-1,10
 400 304 400 304 404 339.5 c 128,-1,11
 408 375 408 375 409.5 410.5 c 128,-1,12
 411 446 411 446 411 475 c 2,13,-1
 411 736 l 1,14,-1
 234 736 l 1,15,-1
 234 868 l 1,16,-1
 411 868 l 1,17,-1
 411 987 l 2,18,19
 411 1099 411 1099 446.5 1203.5 c 128,-1,20
 482 1308 482 1308 547.5 1389 c 128,-1,21
 613 1470 613 1470 704.5 1518.5 c 128,-1,22
 796 1567 796 1567 908 1567 c 0,23,24
 950 1567 950 1567 986.5 1564 c 128,-1,25
 1023 1561 1023 1561 1056.5 1552 c 128,-1,26
 1090 1543 1090 1543 1120.5 1527 c 128,-1,27
 1151 1511 1151 1511 1180 1486 c 1,28,-1
 1084 1303 l 1,29,30
 1080 1310 1080 1310 1059 1333 c 128,-1,31
 1038 1356 1038 1356 1002.5 1380.5 c 128,-1,32
 967 1405 967 1405 919 1424 c 128,-1,33
 871 1443 871 1443 813 1443 c 0,34,35
 770 1443 770 1443 732 1423 c 128,-1,36
 694 1403 694 1403 665 1352 c 128,-1,37
 636 1301 636 1301 619 1213 c 128,-1,38
 602 1125 602 1125 602 989 c 2,39,-1
 602 868 l 1,40,-1
 928 868 l 1,41,-1
 928 736 l 1,42,-1
 603 736 l 1,43,-1
 603 696 l 2,44,45
 603 627 603 627 600.5 571.5 c 128,-1,46
 598 516 598 516 592 471.5 c 128,-1,47
 586 427 586 427 577 390 c 128,-1,48
 568 353 568 353 555.5 319.5 c 128,-1,49
 543 286 543 286 527 254 c 128,-1,50
 511 222 511 222 491 187 c 1,51,52
 525 185 525 185 563.5 170.5 c 2,53,-1
 645 138.5 l 1,54,-1
 733.5 103.5 l 2,55,56
 778.023 86.3756 778.023 86.3756 826 78 c 0,57,58
 881.181 68.3667 881.181 68.3667 923.552 68.3667 c 0,59,60
 956.983 68.3667 956.983 68.3667 984.5 74 c 0,61,62
 1048 87 1048 87 1086.5 118 c 128,-1,63
 1125 149 1125 149 1141 193.5 c 128,-1,64
 1157 238 1157 238 1157 284 c 0,65,66
 1157 303 1157 303 1153 323.5 c 128,-1,67
 1149 344 1149 344 1140 364 c 128,-1,68
 1131 384 1131 384 1117 402 c 128,-1,69
 1103 420 1103 420 1084 435 c 1,70,-1
 1176 610 l 1,71,72
 1245 581 1245 581 1286.5 518.5 c 128,-1,73
 1328 456 1328 456 1339 372 c 0,74,75
 1342.56 344.444 1342.56 344.444 1342.56 309.383 c 0,76,77
 1342.56 305 1342.56 305 1342.5 300.5 c 0,78,79
 1342 260 1342 260 1332 217.5 c 128,-1,80
 1322 175 1322 175 1299 133 c 128,-1,81
 1276 91 1276 91 1236 56 c 128,-1,82
 1196 21 1196 21 1136 -3.5 c 128,-1,83
 1076 -28 1076 -28 991 -35 c 0,84,85
 949.788 -38.8788 949.788 -38.8788 911.749 -38.8788 c 0,86,87
 871.333 -38.8788 871.333 -38.8788 834.5 -34.5 c 0,88,89
 763 -26 763 -26 703.5 -9.5 c 128,-1,90
 644 7.00001 644 7.00001 596 27.5 c 2,91,-1
 510 65.5 l 2,92,93
 472 83 472 83 442.5 93.5 c 128,-1,94
 413 104 413 104 391 100 c 1,95,96
 372 74 372 74 349 50 c 128,-1,97
 326 26 326 26 299.5 8 c 128,-1,98
 273 -10 273 -10 243 -20.5 c 128,-1,99
 213 -31 213 -31 180 -31 c 0,100,101
 166 -31 166 -31 149 -28 c 128,-1,102
 132 -25 132 -25 117 -15 c 128,-1,103
 102 -5 102 -5 92 13 c 128,-1,104
 82 31 82 31 82 61 c 0,0,1
EndSplineSet
Validated: 524289
EndChar

StartChar: currency
Encoding: 164 164 114
Width: 1427
Flags: HW
LayerCount: 2
Fore
SplineSet
398 461 m 1,0,1
 362 509 362 509 342 567 c 128,-1,2
 322 625 322 625 322 690 c 0,3,4
 322 753 322 753 341.5 810 c 128,-1,5
 361 867 361 867 396 915 c 1,6,-1
 217 1095 l 1,7,-1
 302 1181 l 1,8,-1
 483 999 l 1,9,10
 530 1031 530 1031 585 1049.5 c 128,-1,11
 640 1068 640 1068 702 1068 c 0,12,13
 768 1068 768 1068 828 1046.5 c 128,-1,14
 888 1025 888 1025 936 987 c 1,15,-1
 1118 1168 l 1,16,-1
 1203 1082 l 1,17,-1
 1019 898 l 1,18,19
 1049 853 1049 853 1065.5 800.5 c 128,-1,20
 1082 748 1082 748 1082 690 c 0,21,22
 1082 627 1082 627 1063 571 c 128,-1,23
 1044 515 1044 515 1010 468 c 1,24,-1
 1191 288 l 1,25,-1
 1105 203 l 1,26,-1
 924 383 l 1,27,28
 877 349 877 349 821 330.5 c 128,-1,29
 765 312 765 312 702 312 c 0,30,31
 642 312 642 312 587.5 329 c 128,-1,32
 533 346 533 346 486 378 c 1,33,-1
 306 198 l 1,34,-1
 220 283 l 1,35,-1
 398 461 l 1,0,1
702 443 m 256,36,37
 751 443 751 443 794 462.5 c 128,-1,38
 837 482 837 482 869.5 516 c 128,-1,39
 902 550 902 550 920.5 594.5 c 128,-1,40
 939 639 939 639 939 690 c 256,41,42
 939 741 939 741 920.5 785.5 c 128,-1,43
 902 830 902 830 869.5 864 c 128,-1,44
 837 898 837 898 794 917.5 c 128,-1,45
 751 937 751 937 702 937 c 256,46,47
 653 937 653 937 610 917.5 c 128,-1,48
 567 898 567 898 534.5 864 c 128,-1,49
 502 830 502 830 483.5 785.5 c 128,-1,50
 465 741 465 741 465 690 c 256,51,52
 465 639 465 639 483.5 594.5 c 128,-1,53
 502 550 502 550 534.5 516 c 128,-1,54
 567 482 567 482 610 462.5 c 128,-1,55
 653 443 653 443 702 443 c 256,36,37
EndSplineSet
Validated: 524289
EndChar

StartChar: yen
Encoding: 165 165 115
Width: 1312
Flags: HW
LayerCount: 2
Fore
SplineSet
366 85 m 1,0,-1
 560 115 l 1,1,-1
 560 377 l 1,2,-1
 135 377 l 1,3,-1
 135 504 l 1,4,-1
 560 504 l 1,5,-1
 560 734 l 1,6,-1
 135 734 l 1,7,-1
 135 861 l 1,8,-1
 495 861 l 1,9,-1
 115 1437 l 1,10,-1
 -15 1455 l 1,11,-1
 -15 1553 l 1,12,-1
 488 1553 l 1,13,-1
 488 1455 l 1,14,-1
 339 1438 l 1,15,-1
 622 975 l 1,16,-1
 671 861 l 1,17,-1
 698 861 l 1,18,-1
 760 983 l 1,19,20
 888 1209 l 1,21,-1
 1019 1438 l 1,22,-1
 871 1455 l 1,23,-1
 871 1553 l 1,24,-1
 1327 1553 l 1,25,-1
 1327 1455 l 1,26,-1
 1186 1426 l 1,27,-1
 826 861 l 1,28,-1
 1163 861 l 1,29,-1
 1163 734 l 1,30,-1
 755 734 l 1,31,-1
 755 504 l 1,32,-1
 1163 504 l 1,33,-1
 1163 377 l 1,34,-1
 755 377 l 1,35,-1
 755 116 l 1,36,-1
 959 85 l 1,37,-1
 959 0 l 1,38,-1
 366 0 l 1,39,-1
 366 85 l 1,0,-1
EndSplineSet
Validated: 1
EndChar

StartChar: dollar
Encoding: 36 36 116
Width: 1164
Flags: W
LayerCount: 2
Fore
SplineSet
150 383 m 1,0,-1
 238 383 l 1,1,-1
 301 184 l 1,2,3
 331 153 331 153 370 132.5 c 128,-1,4
 409 112 409 112 452.5 100 c 128,-1,5
 496 88 496 88 542.5 83 c 128,-1,6
 589 78 589 78 633 78 c 0,7,8
 688 78 688 78 742.5 93 c 128,-1,9
 797 108 797 108 840.5 140.5 c 128,-1,10
 884 173 884 173 911 223 c 128,-1,11
 938 273 938 273 938 343 c 0,12,13
 938 407 938 407 907 459 c 128,-1,14
 876 511 876 511 824.5 555.5 c 128,-1,15
 773 600 773 600 707 640 c 128,-1,16
 641 680 641 680 571 720 c 0,17,18
 495 763 495 763 421.5 809 c 128,-1,19
 348 855 348 855 290 909.5 c 128,-1,20
 232 964 232 964 196 1030.5 c 128,-1,21
 160 1097 160 1097 160 1181 c 0,22,23
 160 1271 160 1271 195.5 1338 c 128,-1,24
 231 1405 231 1405 287.5 1451 c 128,-1,25
 344 1497 344 1497 414.5 1523.5 c 128,-1,26
 485 1550 485 1550 554 1560 c 1,27,-1
 560 1731 l 1,28,-1
 717 1731 l 1,29,-1
 711 1565 l 1,30,31
 830 1559 830 1559 909.5 1536 c 128,-1,32
 989 1513 989 1513 1028 1490 c 1,33,-1
 1028 1213 l 1,34,-1
 943 1213 l 1,35,-1
 865 1405 l 1,36,37
 847 1421 847 1421 821.5 1433 c 128,-1,38
 796 1445 796 1445 764.5 1453 c 128,-1,39
 733 1461 733 1461 697.5 1464.5 c 128,-1,40
 662 1468 662 1468 626 1468 c 0,41,42
 585 1468 585 1468 535.5 1455.5 c 128,-1,43
 486 1443 486 1443 443 1413.5 c 128,-1,44
 400 1384 400 1384 370.5 1335.5 c 128,-1,45
 341 1287 341 1287 341 1214 c 0,46,47
 341 1157 341 1157 368.5 1109.5 c 128,-1,48
 396 1062 396 1062 442.5 1021 c 128,-1,49
 489 980 489 980 549.5 943 c 128,-1,50
 610 906 610 906 676 870 c 0,51,52
 729 841 729 841 782.5 810.5 c 128,-1,53
 836 780 836 780 885.5 747 c 128,-1,54
 935 714 935 714 978.5 677 c 128,-1,55
 1022 640 1022 640 1053.5 597.5 c 128,-1,56
 1085 555 1085 555 1103.5 505 c 128,-1,57
 1122 455 1122 455 1122 397 c 0,58,59
 1122 291 1122 291 1084.5 214 c 128,-1,60
 1047 137 1047 137 982.5 86 c 128,-1,61
 918 35 918 35 832.5 9 c 128,-1,62
 747 -17 747 -17 651 -22 c 1,63,-1
 644 -231 l 1,64,-1
 487 -231 l 1,65,-1
 494 -18 l 1,66,67
 435 -13 435 -13 380 -4 c 128,-1,68
 325 5 325 5 280 15.5 c 128,-1,69
 235 26 235 26 201 38 c 128,-1,70
 167 50 167 50 150 61 c 1,71,-1
 150 383 l 1,0,-1
EndSplineSet
Validated: 1
EndChar

StartChar: acute
Encoding: 180 180 117
Width: 828
Flags: HW
LayerCount: 2
Fore
SplineSet
367 1394 m 1,0,-1
 662 1773 l 1,1,-1
 808 1624 l 1,2,3
 778 1582 778 1582 728.5 1539.5 c 128,-1,4
 679 1497 679 1497 624.5 1459 c 128,-1,5
 570 1421 570 1421 515.5 1390 c 128,-1,6
 461 1359 461 1359 420 1340 c 1,7,-1
 367 1394 l 1,0,-1
EndSplineSet
Validated: 1
EndChar

StartChar: grave
Encoding: 96 96 118
Width: 884
Flags: HW
LayerCount: 2
Fore
SplineSet
478 1340 m 1,0,1
 437 1359 437 1359 382.5 1389.5 c 128,-1,2
 328 1420 328 1420 273.5 1458.5 c 128,-1,3
 219 1497 219 1497 170 1541 c 128,-1,4
 121 1585 121 1585 91 1631 c 1,5,-1
 237 1780 l 1,6,-1
 531 1394 l 1,7,-1
 478 1340 l 1,0,1
EndSplineSet
Validated: 524289
EndChar

StartChar: dieresis
Encoding: 168 168 119
Width: 1062
Flags: HW
LayerCount: 2
Fore
SplineSet
752 1350 m 0,0,1
 728 1350 728 1350 705 1358.5 c 128,-1,2
 682 1367 682 1367 664.5 1382.5 c 128,-1,3
 647 1398 647 1398 636.5 1421 c 128,-1,4
 626 1444 626 1444 626 1473 c 0,5,6
 626 1504 626 1504 639.5 1531 c 128,-1,7
 653 1558 653 1558 674 1577.5 c 128,-1,8
 695 1597 695 1597 721.5 1608 c 128,-1,9
 748 1619 748 1619 775 1619 c 0,10,11
 841 1619 841 1619 871.5 1582.5 c 128,-1,12
 902 1546 902 1546 902 1495 c 0,13,14
 902 1462 902 1462 889 1435 c 128,-1,15
 876 1408 876 1408 855 1389.5 c 128,-1,16
 834 1371 834 1371 807 1360.5 c 128,-1,17
 780 1350 780 1350 752 1350 c 0,0,1
286 1350 m 0,18,19
 262 1350 262 1350 239 1358.5 c 128,-1,20
 216 1367 216 1367 198.5 1382.5 c 128,-1,21
 181 1398 181 1398 170.5 1421 c 128,-1,22
 160 1444 160 1444 160 1473 c 0,23,24
 160 1504 160 1504 173.5 1531 c 128,-1,25
 187 1558 187 1558 208 1577.5 c 128,-1,26
 229 1597 229 1597 255.5 1608 c 128,-1,27
 282 1619 282 1619 309 1619 c 0,28,29
 375 1619 375 1619 405.5 1582.5 c 128,-1,30
 436 1546 436 1546 436 1495 c 0,31,32
 436 1462 436 1462 423 1435 c 128,-1,33
 410 1408 410 1408 389 1389.5 c 128,-1,34
 368 1371 368 1371 341 1360.5 c 128,-1,35
 314 1350 314 1350 286 1350 c 0,18,19
EndSplineSet
Validated: 1
EndChar

StartChar: circumflex
Encoding: 710 710 120
Width: 1289
Flags: W
LayerCount: 2
Fore
SplineSet
263 1381 m 1,0,-1
 536 1775 l 1,1,-1
 725 1775 l 1,2,-1
 997 1382 l 1,3,-1
 910 1336 l 1,4,-1
 629 1639 l 1,5,-1
 341 1335 l 1,6,-1
 263 1381 l 1,0,-1
EndSplineSet
Validated: 1
EndChar

StartChar: caron
Encoding: 711 711 121
Width: 1289
Flags: W
LayerCount: 2
Fore
SplineSet
246 1728 m 1,0,-1
 337 1775 l 1,1,-1
 642 1465 l 1,2,-1
 918 1776 l 1,3,-1
 998 1735 l 1,4,-1
 715 1332 l 1,5,-1
 546 1332 l 1,6,-1
 246 1728 l 1,0,-1
EndSplineSet
Validated: 1
EndChar

StartChar: breve
Encoding: 728 728 122
Width: 1289
Flags: W
LayerCount: 2
Fore
SplineSet
631 1242 m 0,0,1
 555 1242 555 1242 493 1273.5 c 128,-1,2
 431 1305 431 1305 387.5 1355.5 c 128,-1,3
 344 1406 344 1406 320.5 1468 c 128,-1,4
 297 1530 297 1530 297 1591 c 1,5,-1
 391 1591 l 1,6,7
 395 1585 395 1585 401.5 1567.5 c 128,-1,8
 408 1550 408 1550 418.5 1527 c 128,-1,9
 429 1504 429 1504 446 1479 c 128,-1,10
 463 1454 463 1454 488.5 1433.5 c 128,-1,11
 514 1413 514 1413 549 1399.5 c 128,-1,12
 584 1386 584 1386 632 1386 c 256,13,14
 680 1386 680 1386 715.5 1399.5 c 128,-1,15
 751 1413 751 1413 776.5 1433.5 c 128,-1,16
 802 1454 802 1454 818.5 1479 c 128,-1,17
 835 1504 835 1504 846 1526.5 c 128,-1,18
 857 1549 857 1549 863.5 1567 c 128,-1,19
 870 1585 870 1585 875 1592 c 1,20,-1
 965 1592 l 1,21,22
 965 1531 965 1531 940 1468.5 c 128,-1,23
 915 1406 915 1406 870 1356 c 128,-1,24
 825 1306 825 1306 764 1274 c 128,-1,25
 703 1242 703 1242 631 1242 c 0,0,1
EndSplineSet
Validated: 1
EndChar

StartChar: dotaccent
Encoding: 729 729 123
Width: 575
Flags: W
LayerCount: 2
Fore
SplineSet
273 1360 m 0,0,1
 249 1360 249 1360 226 1368.5 c 128,-1,2
 203 1377 203 1377 185.5 1392.5 c 128,-1,3
 168 1408 168 1408 157.5 1431 c 128,-1,4
 147 1454 147 1454 147 1483 c 0,5,6
 147 1514 147 1514 160.5 1541 c 128,-1,7
 174 1568 174 1568 195 1587.5 c 128,-1,8
 216 1607 216 1607 242.5 1618 c 128,-1,9
 269 1629 269 1629 296 1629 c 0,10,11
 362 1629 362 1629 392.5 1592.5 c 128,-1,12
 423 1556 423 1556 423 1505 c 0,13,14
 423 1472 423 1472 410 1445 c 128,-1,15
 397 1418 397 1418 376 1399.5 c 128,-1,16
 355 1381 355 1381 328 1370.5 c 128,-1,17
 301 1360 301 1360 273 1360 c 0,0,1
EndSplineSet
Validated: 1
EndChar

StartChar: ring
Encoding: 730 730 124
Width: 575
Flags: W
LayerCount: 2
Fore
SplineSet
287 1320 m 256,0,1
 235 1320 235 1320 189.5 1339 c 128,-1,2
 144 1358 144 1358 109.5 1390.5 c 128,-1,3
 75 1423 75 1423 55 1467 c 128,-1,4
 35 1511 35 1511 35 1561 c 256,5,6
 35 1611 35 1611 55 1655 c 128,-1,7
 75 1699 75 1699 109.5 1731.5 c 128,-1,8
 144 1764 144 1764 189.5 1783 c 128,-1,9
 235 1802 235 1802 287 1802 c 256,10,11
 339 1802 339 1802 384.5 1783 c 128,-1,12
 430 1764 430 1764 464.5 1731.5 c 128,-1,13
 499 1699 499 1699 519 1655 c 128,-1,14
 539 1611 539 1611 539 1561 c 256,15,16
 539 1511 539 1511 519 1467 c 128,-1,17
 499 1423 499 1423 464.5 1390.5 c 128,-1,18
 430 1358 430 1358 384.5 1339 c 128,-1,19
 339 1320 339 1320 287 1320 c 256,0,1
287 1426 m 256,20,21
 314 1426 314 1426 338.5 1436.5 c 128,-1,22
 363 1447 363 1447 381 1465 c 128,-1,23
 399 1483 399 1483 409.5 1507 c 128,-1,24
 420 1531 420 1531 420 1559 c 0,25,26
 420 1586 420 1586 409.5 1610 c 128,-1,27
 399 1634 399 1634 381 1652 c 128,-1,28
 363 1670 363 1670 338.5 1680.5 c 128,-1,29
 314 1691 314 1691 287 1691 c 256,30,31
 260 1691 260 1691 235.5 1680.5 c 128,-1,32
 211 1670 211 1670 193 1652 c 128,-1,33
 175 1634 175 1634 164.5 1610 c 128,-1,34
 154 1586 154 1586 154 1559 c 0,35,36
 154 1531 154 1531 164.5 1507 c 128,-1,37
 175 1483 175 1483 193 1465 c 128,-1,38
 211 1447 211 1447 235.5 1436.5 c 128,-1,39
 260 1426 260 1426 287 1426 c 256,20,21
EndSplineSet
Validated: 1
EndChar

StartChar: ogonek
Encoding: 731 731 125
Width: 709
Flags: W
LayerCount: 2
Fore
SplineSet
432 10 m 1,0,1
 387 -8 387 -8 338.5 -40.5 c 128,-1,2
 290 -73 290 -73 249.5 -112 c 128,-1,3
 209 -151 209 -151 182.5 -191.5 c 128,-1,4
 156 -232 156 -232 156 -266 c 0,5,6
 156 -329 156 -329 185 -359 c 128,-1,7
 214 -389 214 -389 280 -389 c 0,8,9
 293 -389 293 -389 310 -386.5 c 128,-1,10
 327 -384 327 -384 345 -379.5 c 128,-1,11
 363 -375 363 -375 380 -369.5 c 128,-1,12
 397 -364 397 -364 409 -358 c 1,13,-1
 431 -446 l 1,14,15
 411 -461 411 -461 382.5 -474 c 128,-1,16
 354 -487 354 -487 320.5 -496.5 c 128,-1,17
 287 -506 287 -506 249 -511 c 128,-1,18
 211 -516 211 -516 172 -516 c 0,19,20
 131 -516 131 -516 95 -502.5 c 128,-1,21
 59 -489 59 -489 32 -464 c 128,-1,22
 5 -439 5 -439 -10.5 -403 c 128,-1,23
 -26 -367 -26 -367 -26 -323 c 0,24,25
 -26 -275 -26 -275 -0.5 -225 c 128,-1,26
 25 -175 25 -175 68 -130.5 c 128,-1,27
 111 -86 111 -86 166 -49.5 c 128,-1,28
 221 -13 221 -13 281 10 c 1,29,-1
 432 10 l 1,0,1
EndSplineSet
Validated: 1
EndChar

StartChar: tilde
Encoding: 732 732 126
Width: 886
Flags: W
LayerCount: 2
Fore
SplineSet
56 1490 m 1,0,1
 75 1525 75 1525 105.5 1556.5 c 128,-1,2
 136 1588 136 1588 173.5 1612 c 128,-1,3
 211 1636 211 1636 252.5 1650.5 c 128,-1,4
 294 1665 294 1665 333 1665 c 0,5,6
 382 1665 382 1665 415 1644 c 128,-1,7
 448 1623 448 1623 475.5 1597.5 c 128,-1,8
 503 1572 503 1572 530 1551 c 128,-1,9
 557 1530 557 1530 593 1530 c 0,10,11
 622 1530 622 1530 648.5 1539 c 128,-1,12
 675 1548 675 1548 698.5 1562 c 128,-1,13
 722 1576 722 1576 742 1592.5 c 128,-1,14
 762 1609 762 1609 778 1625 c 1,15,-1
 830 1552 l 1,16,17
 811 1517 811 1517 780.5 1485 c 128,-1,18
 750 1453 750 1453 712.5 1429 c 128,-1,19
 675 1405 675 1405 633.5 1390.5 c 128,-1,20
 592 1376 592 1376 553 1376 c 0,21,22
 520 1376 520 1376 495 1386 c 128,-1,23
 470 1396 470 1396 449 1411 c 128,-1,24
 428 1426 428 1426 410.5 1444 c 128,-1,25
 393 1462 393 1462 375 1477 c 128,-1,26
 357 1492 357 1492 337 1502 c 128,-1,27
 317 1512 317 1512 293 1512 c 0,28,29
 264 1512 264 1512 237 1503 c 128,-1,30
 210 1494 210 1494 186.5 1480 c 128,-1,31
 163 1466 163 1466 143 1449 c 128,-1,32
 123 1432 123 1432 108 1417 c 1,33,-1
 56 1490 l 1,0,1
EndSplineSet
Validated: 1
EndChar

StartChar: hungarumlaut
Encoding: 733 733 127
Width: 915
Flags: W
LayerCount: 2
Fore
SplineSet
686 1394 m 1,0,-1
 1010 1810 l 1,1,-1
 1136 1691 l 1,2,3
 1101 1646 1101 1646 1049 1595 c 128,-1,4
 997 1544 997 1544 941 1496 c 128,-1,5
 885 1448 885 1448 831.5 1406.5 c 128,-1,6
 778 1365 778 1365 739 1340 c 1,7,-1
 686 1394 l 1,0,-1
196 1394 m 1,8,-1
 520 1810 l 1,9,-1
 646 1691 l 1,10,11
 611 1646 611 1646 559 1595 c 128,-1,12
 507 1544 507 1544 451 1496 c 128,-1,13
 395 1448 395 1448 341.5 1406.5 c 128,-1,14
 288 1365 288 1365 249 1340 c 1,15,-1
 196 1394 l 1,8,-1
EndSplineSet
Validated: 1
EndChar

StartChar: cedilla
Encoding: 184 184 128
Width: 615
Flags: HW
LayerCount: 2
Fore
SplineSet
230 0 m 1,0,1
 226 -25 226 -25 224.5 -59.5 c 0,2,3
 224 -71 224 -71 224 -82.1111 c 0,4,5
 224 -104.333 224 -104.333 226 -125 c 1,6,7
 295 -125 295 -125 343.5 -144 c 128,-1,8
 392 -163 392 -163 422.5 -192 c 128,-1,9
 453 -221 453 -221 467 -256 c 128,-1,10
 481 -291 481 -291 481 -324 c 0,11,12
 481 -374 481 -374 462.5 -410.5 c 128,-1,13
 444 -447 444 -447 411 -472 c 128,-1,14
 378 -497 378 -497 332.5 -510.5 c 128,-1,15
 287 -524 287 -524 232 -527 c 0,16,17
 206.857 -528.143 206.857 -528.143 185.959 -528.143 c 0,18,19
 170.286 -528.143 170.286 -528.143 157 -527.5 c 0,20,21
 126 -526 126 -526 103 -522.5 c 128,-1,22
 80 -519 80 -519 63 -514.5 c 2,23,-1
 31 -506 l 1,24,25
 31 -480 31 -480 31.5 -455.5 c 128,-1,26
 32 -431 32 -431 32 -405 c 1,27,28
 44 -408 44 -408 59.5 -410.5 c 2,29,-1
 91 -415.5 l 2,30,31
 107 -418 107 -418 121.5 -419 c 128,-1,32
 136 -420 136 -420 145 -420 c 0,33,34
 173 -420 173 -420 198 -417 c 128,-1,35
 223 -414 223 -414 242.5 -402.5 c 128,-1,36
 262 -391 262 -391 273.5 -369 c 128,-1,37
 285 -347 285 -347 285 -309 c 0,38,39
 285 -265 285 -265 247 -237 c 128,-1,40
 209 -209 209 -209 128 -209 c 2,41,-1
 114 -209 l 1,42,-1
 99 -210 l 2,43,44
 92 -211 92 -211 86 -212 c 128,-1,45
 80 -213 80 -213 79 -213 c 1,46,47
 80 -164 80 -164 84.5 -112.5 c 128,-1,48
 89 -61 89 -61 106 0 c 1,49,-1
 230 0 l 1,0,1
EndSplineSet
Validated: 524289
EndChar

StartChar: ordfeminine
Encoding: 170 170 129
Width: 1063
Flags: HW
LayerCount: 2
Fore
SplineSet
367 687 m 0,0,1
 334 687 334 687 291.5 701 c 128,-1,2
 249 715 249 715 212 744 c 128,-1,3
 175 773 175 773 149.5 818 c 128,-1,4
 124 863 124 863 124 926 c 0,5,6
 124 1016 124 1016 169 1072 c 128,-1,7
 214 1128 214 1128 288.5 1158.5 c 128,-1,8
 363 1189 363 1189 460.5 1199.5 c 128,-1,9
 558 1210 558 1210 663 1210 c 1,10,-1
 663 1236 l 2,11,12
 663 1300 663 1300 648 1336.5 c 128,-1,13
 633 1373 633 1373 605.5 1392 c 128,-1,14
 578 1411 578 1411 539.5 1416 c 128,-1,15
 501 1421 501 1421 454 1421 c 0,16,17
 415 1421 415 1421 378.5 1416.5 c 128,-1,18
 342 1412 342 1412 310 1404 c 128,-1,19
 278 1396 278 1396 251.5 1385 c 128,-1,20
 225 1374 225 1374 207 1360 c 1,21,-1
 169 1448 l 1,22,23
 191 1468 191 1468 229 1485.5 c 128,-1,24
 267 1503 267 1503 313.5 1516 c 128,-1,25
 360 1529 360 1529 411 1536.5 c 128,-1,26
 462 1544 462 1544 510 1544 c 0,27,28
 582 1544 582 1544 643 1534.5 c 128,-1,29
 704 1525 704 1525 748.5 1493.5 c 128,-1,30
 793 1462 793 1462 818 1403.5 c 128,-1,31
 843 1345 843 1345 843 1248 c 2,32,-1
 841 790 l 1,33,-1
 928 790 l 1,34,-1
 928 714 l 1,35,36
 915 709 915 709 893.5 703 c 128,-1,37
 872 697 872 697 848 692 c 128,-1,38
 824 687 824 687 800 684 c 128,-1,39
 776 681 776 681 757 681 c 256,40,41
 738 681 738 681 722 684 c 128,-1,42
 706 687 706 687 694 697 c 128,-1,43
 682 707 682 707 675 725.5 c 128,-1,44
 668 744 668 744 668 775 c 2,45,-1
 668 790 l 1,46,47
 651 775 651 775 626.5 757.5 c 128,-1,48
 602 740 602 740 566 724 c 128,-1,49
 530 708 530 708 481 697.5 c 128,-1,50
 432 687 432 687 367 687 c 0,0,1
445 804 m 0,51,52
 471 804 471 804 501 808.5 c 128,-1,53
 531 813 531 813 560.5 821.5 c 128,-1,54
 590 830 590 830 616.5 843 c 128,-1,55
 643 856 643 856 661 873 c 1,56,-1
 662 1119 l 1,57,58
 584 1119 584 1119 519.5 1111.5 c 128,-1,59
 455 1104 455 1104 409.5 1085.5 c 128,-1,60
 364 1067 364 1067 338.5 1036 c 128,-1,61
 313 1005 313 1005 313 959 c 0,62,63
 313 921 313 921 323.5 892 c 128,-1,64
 334 863 334 863 352 843.5 c 128,-1,65
 370 824 370 824 394 814 c 128,-1,66
 418 804 418 804 445 804 c 0,51,52
EndSplineSet
Validated: 524289
EndChar

StartChar: ordmasculine
Encoding: 186 186 130
Width: 1063
Flags: HW
LayerCount: 2
Fore
SplineSet
523 684 m 0,0,1
 439 684 439 684 365.5 712 c 128,-1,2
 292 740 292 740 238 794.5 c 128,-1,3
 184 849 184 849 153.5 929.5 c 0,4,5
 124.877 1005.05 124.877 1005.05 124.877 1101.29 c 0,6,7
 124.877 1107.31 124.877 1107.31 125 1114 c 0,8,9
 127.1 1228.2 127.1 1228.2 166.5 1308.5 c 0,10,11
 206 1389 206 1389 266.5 1440.5 c 128,-1,12
 327 1492 327 1492 400.5 1516 c 128,-1,13
 474 1540 474 1540 544 1541 c 0,14,15
 546.952 1541.03 546.952 1541.03 549.886 1541.03 c 0,16,17
 639.349 1541.03 639.349 1541.03 711 1511.5 c 0,18,19
 785 1481 785 1481 836.5 1424 c 128,-1,20
 888 1367 888 1367 915 1285.5 c 0,21,22
 941.036 1206.91 941.036 1206.91 941.036 1111.12 c 0,23,24
 941.036 1107.79 941.036 1107.79 941 1104 c 0,25,26
 939.934 990.869 939.934 990.869 899.5 911 c 128,-1,27
 859 831 859 831 797.5 781 c 128,-1,28
 736 731 736 731 663 707.5 c 128,-1,29
 590 684 590 684 523 684 c 0,0,1
520 789 m 0,30,31
 531.501 788.4 531.501 788.4 541.06 788.4 c 0,32,33
 582.1 788.4 582.1 788.4 614.5 798 c 0,34,35
 655 810 655 810 683 844 c 128,-1,36
 711 878 711 878 725 938 c 128,-1,37
 739 998 739 998 739 1092 c 0,38,39
 739 1169 739 1169 725.5 1232 c 128,-1,40
 712 1295 712 1295 685.5 1339.5 c 128,-1,41
 659 1384 659 1384 620.5 1409 c 128,-1,42
 582 1434 582 1434 533 1435 c 0,43,44
 530.222 1435.06 530.222 1435.06 527.482 1435.06 c 0,45,46
 480.889 1435.06 480.889 1435.06 445 1419 c 0,47,48
 407 1402 407 1402 380.5 1364 c 128,-1,49
 354 1326 354 1326 340.5 1266.5 c 128,-1,50
 327 1207 327 1207 327 1124 c 0,51,52
 327 1046 327 1046 342 984.5 c 128,-1,53
 357 923 357 923 383 880.5 c 128,-1,54
 409 838 409 838 444 814.5 c 0,55,56
 478.776 791.15 478.776 791.15 520 789 c 0,30,31
EndSplineSet
Validated: 524289
EndChar

StartChar: paragraph
Encoding: 182 182 131
Width: 1259
Flags: HW
LayerCount: 2
Fore
SplineSet
376 85 m 1,0,-1
 575 115 l 1,1,-1
 575 676 l 1,2,3
 468 676 468 676 382.5 702.5 c 128,-1,4
 297 729 297 729 236.5 784.5 c 128,-1,5
 176 840 176 840 143.5 925 c 128,-1,6
 111 1010 111 1010 111 1127 c 0,7,8
 111 1225 111 1225 141.5 1307 c 128,-1,9
 172 1389 172 1389 235.5 1448 c 128,-1,10
 299 1507 299 1507 396.5 1540 c 128,-1,11
 494 1573 494 1573 627 1573 c 0,12,13
 661 1573 661 1573 712.5 1570.5 c 128,-1,14
 764 1568 764 1568 820 1564.5 c 2,15,-1
 931.5 1557.5 l 2,16,17
 987 1554 987 1554 1029 1553 c 1,18,-1
 1200 1553 l 1,19,-1
 1200 1452 l 1,20,-1
 1028 1419 l 1,21,-1
 1028 115 l 1,22,-1
 1176 85 l 1,23,-1
 1176 0 l 1,24,-1
 899 0 l 1,25,-1
 897 1419 l 1,26,-1
 701 1419 l 1,27,-1
 701 0 l 1,28,-1
 376 0 l 1,29,-1
 376 85 l 1,0,-1
EndSplineSet
Validated: 524289
EndChar

StartChar: section
Encoding: 167 167 132
Width: 1283
Flags: HW
LayerCount: 2
Fore
SplineSet
234 140 m 1,0,-1
 299 -54 l 1,1,2
 333 -92 333 -92 372.5 -113 c 128,-1,3
 412 -134 412 -134 454.5 -145 c 128,-1,4
 497 -156 497 -156 541.5 -158.5 c 128,-1,5
 586 -161 586 -161 631 -161 c 0,6,7
 682 -161 682 -161 736 -148.5 c 128,-1,8
 790 -136 790 -136 834 -107 c 128,-1,9
 878 -78 878 -78 906 -31 c 128,-1,10
 934 16 934 16 934 86 c 0,11,12
 934 152 934 152 901 202.5 c 128,-1,13
 868 253 868 253 814 294.5 c 128,-1,14
 760 336 760 336 691 370.5 c 2,15,-1
 550.5 440 l 2,16,17
 479 475 479 475 410 513.5 c 128,-1,18
 341 552 341 552 287 599.5 c 128,-1,19
 233 647 233 647 200 708 c 128,-1,20
 167 769 167 769 167 849 c 0,21,22
 167 889 167 889 174.5 930.5 c 128,-1,23
 182 972 182 972 196 1011 c 128,-1,24
 210 1050 210 1050 229 1085 c 128,-1,25
 248 1120 248 1120 272 1147 c 1,26,27
 230 1191 230 1191 206 1245 c 128,-1,28
 182 1299 182 1299 182 1368 c 0,29,30
 182 1438 182 1438 204.5 1495 c 128,-1,31
 227 1552 227 1552 264.5 1597 c 128,-1,32
 302 1642 302 1642 351.5 1675.5 c 128,-1,33
 401 1709 401 1709 455.5 1730.5 c 128,-1,34
 510 1752 510 1752 565.5 1762.5 c 128,-1,35
 621 1773 621 1773 671 1773 c 0,36,37
 744 1773 744 1773 806 1766 c 128,-1,38
 868 1759 868 1759 917.5 1747.5 c 128,-1,39
 967 1736 967 1736 1003 1722.5 c 128,-1,40
 1039 1709 1039 1709 1061 1696 c 1,41,-1
 1061 1419 l 1,42,-1
 976 1419 l 1,43,-1
 898 1611 l 1,44,45
 885 1626 885 1626 860.5 1637 c 128,-1,46
 836 1648 836 1648 804 1655.5 c 128,-1,47
 772 1663 772 1663 735 1667 c 128,-1,48
 698 1671 698 1671 659 1671 c 0,49,50
 618 1671 618 1671 567.5 1657 c 128,-1,51
 517 1643 517 1643 472 1612 c 128,-1,52
 427 1581 427 1581 396.5 1530.5 c 128,-1,53
 366 1480 366 1480 366 1407 c 0,54,55
 366 1344 366 1344 399 1296 c 128,-1,56
 432 1248 432 1248 486 1209 c 128,-1,57
 540 1170 540 1170 609 1136.5 c 2,58,-1
 750.5 1069.5 l 2,59,60
 823 1036 823 1036 892 998.5 c 128,-1,61
 961 961 961 961 1015 914 c 128,-1,62
 1069 867 1069 867 1102 806 c 128,-1,63
 1135 745 1135 745 1135 665 c 0,64,65
 1135 623 1135 623 1128.5 579 c 128,-1,66
 1122 535 1122 535 1110 494 c 128,-1,67
 1098 453 1098 453 1081 416 c 128,-1,68
 1064 379 1064 379 1042 351 c 1,69,70
 1078 309 1078 309 1099 259 c 128,-1,71
 1120 209 1120 209 1120 146 c 0,72,73
 1120 34 1120 34 1078 -44.5 c 128,-1,74
 1036 -123 1036 -123 965 -172 c 128,-1,75
 894 -221 894 -221 800.5 -243.5 c 128,-1,76
 707 -266 707 -266 604 -266 c 0,77,78
 529 -266 529 -266 456.5 -258 c 128,-1,79
 384 -250 384 -250 322.5 -237.5 c 128,-1,80
 261 -225 261 -225 215 -210 c 128,-1,81
 169 -195 169 -195 148 -182 c 1,82,-1
 148 140 l 1,83,-1
 234 140 l 1,0,-1
351 888 m 0,84,85
 351 831 351 831 377.5 787 c 128,-1,86
 404 743 404 743 448 707 c 128,-1,87
 492 671 492 671 550.5 640.5 c 1,88,-1
 672 580 l 1,89,-1
 799.5 519.5 l 2,90,91
 864 489 864 489 921 453 c 1,92,93
 934 488 934 488 941.5 529 c 128,-1,94
 949 570 949 570 949 605 c 0,95,96
 949 663 949 663 923 709 c 128,-1,97
 897 755 897 755 854 793 c 128,-1,98
 811 831 811 831 754 863 c 128,-1,99
 697 895 697 895 634.5 925.5 c 2,100,-1
 508.5 987 l 2,101,102
 445 1018 445 1018 388 1054 c 1,103,104
 371 1017 371 1017 361 973 c 128,-1,105
 351 929 351 929 351 888 c 0,84,85
EndSplineSet
Validated: 524289
EndChar

StartChar: AE
Encoding: 198 198 133
Width: 2083
Flags: HW
LayerCount: 2
Fore
SplineSet
2 85 m 1,0,-1
 146 115 l 1,1,-1
 797 1553 l 1,2,-1
 1718 1553 l 1,3,-1
 1747 1268 l 1,4,-1
 1647 1266 l 1,5,-1
 1601 1435 l 1,6,-1
 1033 1447 l 1,7,-1
 1166 868 l 1,8,-1
 1549 874 l 1,9,-1
 1579 1031 l 1,10,-1
 1671 1031 l 1,11,-1
 1671 611 l 1,12,-1
 1579 611 l 1,13,-1
 1549 754 l 1,14,-1
 1191 759 l 1,15,-1
 1339 111 l 1,16,-1
 1710 127 l 1,17,-1
 1810 334 l 1,18,-1
 1897 291 l 1,19,-1
 1852 0 l 1,20,-1
 953 0 l 1,21,-1
 953 85 l 1,22,-1
 1120 116 l 1,23,-1
 1046 456 l 1,24,-1
 460 456 l 1,25,-1
 314 114 l 1,26,-1
 480 85 l 1,27,-1
 480 0 l 1,28,-1
 2 0 l 1,29,-1
 2 85 l 1,0,-1
1021 573 m 1,30,-1
 890 1185 l 1,31,-1
 854 1376 l 1,32,-1
 510 573 l 1,33,-1
 1021 573 l 1,30,-1
1105 760 m 1,34,-1
 1098 760 l 1,35,-1
 1118 684 l 1,36,-1
 1105 760 l 1,34,-1
EndSplineSet
Validated: 1
EndChar

StartChar: germandbls
Encoding: 223 223 134
Width: 1339
Flags: HW
LayerCount: 2
Fore
SplineSet
67 86 m 1,0,-1
 227 117 l 1,1,-1
 227 878 l 2,2,3
 227 1061 227 1061 272 1195 c 128,-1,4
 317 1329 317 1329 391.5 1416 c 128,-1,5
 466 1503 466 1503 563.5 1545 c 128,-1,6
 661 1587 661 1587 766 1587 c 0,7,8
 823 1587 823 1587 879 1573.5 c 128,-1,9
 935 1560 935 1560 979.5 1526 c 128,-1,10
 1024 1492 1024 1492 1051 1435.5 c 128,-1,11
 1078 1379 1078 1379 1078 1293 c 0,12,13
 1078 1232 1078 1232 1063 1184.5 c 128,-1,14
 1048 1137 1048 1137 1026 1098 c 128,-1,15
 1004 1059 1004 1059 978 1025.5 c 128,-1,16
 952 992 952 992 930 958 c 128,-1,17
 908 924 908 924 893 887 c 128,-1,18
 878 850 878 850 878 804 c 0,19,20
 878 752 878 752 910.5 717.5 c 128,-1,21
 943 683 943 683 992 655 c 128,-1,22
 1041 627 1041 627 1098 599 c 128,-1,23
 1155 571 1155 571 1204 533.5 c 128,-1,24
 1253 496 1253 496 1285.5 443 c 128,-1,25
 1318 390 1318 390 1318 310 c 0,26,27
 1318 222 1318 222 1283 159.5 c 128,-1,28
 1248 97 1248 97 1189.5 57 c 128,-1,29
 1131 17 1131 17 1054.5 -2 c 128,-1,30
 978 -21 978 -21 894 -21 c 0,31,32
 850 -21 850 -21 791.5 -18.5 c 128,-1,33
 733 -16 733 -16 673 -2 c 1,34,-1
 673 171 l 1,35,36
 720.5 147 l 2,37,38
 749 133 749 133 781.5 120.5 c 128,-1,39
 814 108 814 108 847.5 99 c 128,-1,40
 881 90 881 90 910 90 c 0,41,42
 952 90 952 90 992.5 98.5 c 128,-1,43
 1033 107 1033 107 1064.5 128 c 128,-1,44
 1096 149 1096 149 1115 185 c 128,-1,45
 1134 221 1134 221 1134 276 c 0,46,47
 1134 328 1134 328 1101.5 364.5 c 128,-1,48
 1069 401 1069 401 1020 430.5 c 128,-1,49
 971 460 971 460 914.5 487 c 128,-1,50
 858 514 858 514 809 547 c 128,-1,51
 760 580 760 580 727.5 623.5 c 128,-1,52
 695 667 695 667 695 729 c 0,53,54
 695 763 695 763 710.5 799.5 c 128,-1,55
 726 836 726 836 749.5 875 c 2,56,-1
 800 955 l 2,57,58
 827 996 827 996 850.5 1039.5 c 128,-1,59
 874 1083 874 1083 889.5 1129.5 c 128,-1,60
 905 1176 905 1176 905 1225 c 0,61,62
 905 1272 905 1272 896.5 1308.5 c 128,-1,63
 888 1345 888 1345 873 1372.5 c 128,-1,64
 858 1400 858 1400 838.5 1418.5 c 128,-1,65
 819 1437 819 1437 798 1448 c 256,66,67
 777 1459 777 1459 755 1464 c 128,-1,68
 733 1469 733 1469 713 1469 c 0,69,70
 631 1469 631 1469 574.5 1439.5 c 128,-1,71
 518 1410 518 1410 483.5 1341 c 128,-1,72
 449 1272 449 1272 433.5 1158.5 c 128,-1,73
 418 1045 418 1045 418 878 c 2,74,-1
 418 0 l 1,75,-1
 67 0 l 1,76,-1
 67 86 l 1,0,-1
EndSplineSet
Validated: 524289
EndChar

StartChar: dotlessi
Encoding: 305 305 135
Width: 677
Flags: HW
LayerCount: 2
Fore
SplineSet
108 85 m 1,0,-1
 278 106 l 1,1,-1
 278 925 l 1,2,-1
 140 998 l 1,3,-1
 140 1060 l 1,4,-1
 417 1139 l 1,5,-1
 462 1119 l 1,6,-1
 462 106 l 1,7,-1
 624 85 l 1,8,-1
 624 0 l 1,9,-1
 108 0 l 1,10,-1
 108 85 l 1,0,-1
EndSplineSet
Validated: 1
EndChar

StartChar: lslash
Encoding: 322 322 136
Width: 651
Flags: HW
LayerCount: 2
Fore
SplineSet
70 85 m 1,0,-1
 240 106 l 1,1,-1
 240 763 l 1,2,-1
 88 704 l 1,3,-1
 88 841 l 1,4,-1
 240 903 l 1,5,-1
 240 1460 l 1,6,-1
 80 1496 l 1,7,-1
 80 1583 l 1,8,-1
 393 1625 l 1,9,-1
 433 1602 l 1,10,-1
 433 982 l 1,11,-1
 622 1060 l 1,12,-1
 622 913 l 1,13,-1
 433 839 l 1,14,-1
 433 106 l 1,15,-1
 611 85 l 1,16,-1
 611 0 l 1,17,-1
 70 0 l 1,18,-1
 70 85 l 1,0,-1
EndSplineSet
Validated: 1
EndChar

StartChar: oslash
Encoding: 248 248 137
Width: 1237
Flags: HW
LayerCount: 2
Fore
SplineSet
395 17 m 1,0,1
 317 51 317 51 261 109 c 128,-1,2
 205 167 205 167 170 241.5 c 128,-1,3
 135 316 135 316 119 403 c 0,4,5
 103.941 484.882 103.941 484.882 103.941 571.194 c 0,6,7
 103.941 576.588 103.941 576.588 104 582 c 0,8,9
 106 716 106 716 150.5 821.5 c 128,-1,10
 195 927 195 927 268 1000 c 128,-1,11
 341 1073 341 1073 436.5 1112 c 128,-1,12
 532 1151 532 1151 636 1152 c 0,13,14
 711 1152 711 1152 774 1137 c 1,15,-1
 830 1303 l 1,16,-1
 911 1271 l 1,17,-1
 856 1108 l 1,18,19
 927 1076 927 1076 979.5 1022 c 128,-1,20
 1032 968 1032 968 1066.5 898.5 c 128,-1,21
 1101 829 1101 829 1117.5 746 c 0,22,23
 1133.06 667.743 1133.06 667.743 1133.06 583.263 c 0,24,25
 1133.06 579.124 1133.06 579.124 1133 573 c 0,26,27
 1131.76 439.351 1131.76 439.351 1090.5 330 c 0,28,29
 1049 220 1049 220 978.5 141.5 c 128,-1,30
 908 63 908 63 813.5 19.5 c 128,-1,31
 719 -24 719 -24 611 -24 c 0,32,33
 576 -24 576 -24 544 -20.5 c 128,-1,34
 512 -17 512 -17 483 -11 c 1,35,-1
 421 -199 l 1,36,-1
 333 -166 l 1,37,-1
 395 17 l 1,0,1
735 1022 m 1,38,39
 710 1033 710 1033 682.5 1039.5 c 128,-1,40
 655 1046 655 1046 624 1047 c 0,41,42
 621.302 1047.03 621.302 1047.03 618.629 1047.03 c 0,43,44
 537.111 1047.03 537.111 1047.03 479.5 1017.5 c 0,45,46
 420 987 420 987 382 928 c 128,-1,47
 344 869 344 869 326.5 784 c 128,-1,48
 309 699 309 699 309 591 c 0,49,50
 309 526 309 526 317.5 464 c 128,-1,51
 326 402 326 402 342.5 346.5 c 128,-1,52
 359 291 359 291 384.5 244 c 128,-1,53
 410 197 410 197 444 163 c 1,54,-1
 735 1022 l 1,38,39
523 109 m 1,55,56
 567 89 567 89 620 88 c 0,57,58
 625.718 87.8788 625.718 87.8788 630.206 87.8788 c 0,59,60
 708.545 87.8788 708.545 87.8788 763.5 117 c 0,61,62
 822 148 822 148 858.5 208.5 c 128,-1,63
 895 269 895 269 911.5 358.5 c 128,-1,64
 928 448 928 448 928 564 c 0,65,66
 928 693 928 693 899.5 798 c 128,-1,67
 871 903 871 903 809 967 c 1,68,-1
 523 109 l 1,55,56
EndSplineSet
Validated: 524289
EndChar

StartChar: oe
Encoding: 339 339 138
Width: 2032
Flags: HW
LayerCount: 2
Fore
SplineSet
104 582 m 0,0,1
 106.131 716.31 106.131 716.31 150.5 821.5 c 0,2,3
 195 927 195 927 268 1000 c 128,-1,4
 341 1073 341 1073 436.5 1112 c 0,5,6
 531.643 1150.85 531.643 1150.85 636 1152 c 0,7,8
 640.673 1152.05 640.673 1152.05 644.272 1152.05 c 0,9,10
 720.462 1152.05 720.462 1152.05 784.5 1134.5 c 0,11,12
 852 1116 852 1116 906.5 1081.5 c 128,-1,13
 961 1047 961 1047 1002 997.5 c 128,-1,14
 1043 948 1043 948 1071 888 c 1,15,16
 1143 1008 1143 1008 1263 1078 c 128,-1,17
 1383 1148 1383 1148 1539 1152 c 0,18,19
 1544.97 1152.14 1544.97 1152.14 1550.85 1152.14 c 0,20,21
 1631.81 1152.14 1631.81 1152.14 1698 1126.5 c 0,22,23
 1769 1099 1769 1099 1819 1045 c 128,-1,24
 1869 991 1869 991 1897.5 913 c 128,-1,25
 1926 835 1926 835 1930 736 c 0,26,27
 1930.62 716.615 1930.62 716.615 1930.62 698.84 c 0,28,29
 1930.62 658.846 1930.62 658.846 1927.5 627 c 0,30,31
 1923 581 1923 581 1918 545 c 1,32,-1
 1177 545 l 1,33,-1
 1177 533 l 2,34,35
 1177 528 1177 528 1178 522 c 0,36,37
 1182 401 1182 401 1219 322 c 128,-1,38
 1256 243 1256 243 1311.5 196.5 c 128,-1,39
 1367 150 1367 150 1434 131.5 c 128,-1,40
 1501 113 1501 113 1565 113 c 0,41,42
 1604 113 1604 113 1647 117.5 c 128,-1,43
 1690 122 1690 122 1730.5 130.5 c 128,-1,44
 1771 139 1771 139 1805.5 150 c 128,-1,45
 1840 161 1840 161 1861 173 c 1,46,-1
 1898 88 l 1,47,48
 1869 62 1869 62 1822.5 41 c 128,-1,49
 1776 20 1776 20 1721 5.5 c 128,-1,50
 1666 -9 1666 -9 1606 -16.5 c 128,-1,51
 1546 -24 1546 -24 1489 -24 c 0,52,53
 1330 -24 1330 -24 1219 45.5 c 128,-1,54
 1108 115 1108 115 1049 241 c 1,55,56
 1014 179 1014 179 967 130 c 128,-1,57
 920 81 920 81 864 47 c 128,-1,58
 808 13 808 13 744 -5.5 c 128,-1,59
 680 -24 680 -24 611 -24 c 0,60,61
 473 -24 473 -24 376 26 c 128,-1,62
 279 76 279 76 218 160 c 128,-1,63
 157 244 157 244 129.5 353.5 c 0,64,65
 103.864 455.576 103.864 455.576 103.864 565.908 c 0,66,67
 103.864 573.454 103.864 573.454 104 582 c 0,0,1
620 88 m 0,68,69
 625.151 87.8788 625.151 87.8788 630.206 87.8788 c 0,70,71
 708.545 87.8788 708.545 87.8788 763.5 117 c 0,72,73
 822 148 822 148 858.5 208.5 c 128,-1,74
 895 269 895 269 911.5 358.5 c 128,-1,75
 928 448 928 448 928 564 c 0,76,77
 928 665 928 665 910.5 752.5 c 128,-1,78
 893 840 893 840 855.5 905 c 128,-1,79
 818 970 818 970 760.5 1007.5 c 128,-1,80
 703 1045 703 1045 624 1047 c 0,81,82
 621.302 1047.03 621.302 1047.03 618.629 1047.03 c 0,83,84
 537.111 1047.03 537.111 1047.03 479.5 1017.5 c 0,85,86
 420 987 420 987 382 928 c 128,-1,87
 344 869 344 869 326.5 784 c 128,-1,88
 309 699 309 699 309 591 c 0,89,90
 309 494 309 494 328 404 c 128,-1,91
 347 314 347 314 385 244.5 c 128,-1,92
 423 175 423 175 481.5 132.5 c 128,-1,93
 540 90 540 90 620 88 c 0,68,69
1726 663 m 1,94,95
 1728 697 1728 697 1728 731.222 c 0,96,97
 1728 748.333 1728 748.333 1727.5 765.5 c 0,98,99
 1726 817 1726 817 1715 863.5 c 128,-1,100
 1704 910 1704 910 1681.5 948.5 c 128,-1,101
 1659 987 1659 987 1621 1011 c 0,102,103
 1595 1028 1595 1028 1562 1036.5 c 128,-1,104
 1529 1045 1529 1045 1487 1045 c 0,105,106
 1431 1045 1431 1045 1378.5 1024 c 128,-1,107
 1326 1003 1326 1003 1284.5 957 c 128,-1,108
 1243 911 1243 911 1215 838.5 c 128,-1,109
 1187 766 1187 766 1179 663 c 1,110,-1
 1726 663 l 1,94,95
EndSplineSet
Validated: 524289
EndChar

StartChar: OE
Encoding: 338 338 139
Width: 2135
Flags: HW
LayerCount: 2
Fore
SplineSet
87 752 m 0,0,1
 91 943 91 943 148.5 1093 c 128,-1,2
 206 1243 206 1243 303 1347 c 128,-1,3
 400 1451 400 1451 528 1507 c 128,-1,4
 656 1563 656 1563 801 1567 c 0,5,6
 806.062 1567.06 806.062 1567.06 811.105 1567.06 c 0,7,8
 886.75 1567.06 886.75 1567.06 958 1553 c 1,9,-1
 1904 1553 l 1,10,-1
 1933 1267 l 1,11,-1
 1823 1267 l 1,12,-1
 1777 1435 l 1,13,-1
 1249 1448 l 1,14,-1
 1249 867 l 1,15,-1
 1617 874 l 1,16,-1
 1647 1031 l 1,17,-1
 1749 1031 l 1,18,-1
 1749 601 l 1,19,-1
 1647 601 l 1,20,-1
 1617 754 l 1,21,-1
 1249 760 l 1,22,-1
 1249 108 l 1,23,-1
 1809 127 l 1,24,-1
 1909 334 l 1,25,-1
 2006 310 l 1,26,-1
 1961 0 l 1,27,-1
 954 0 l 1,28,29
 910 -13 910 -13 864.5 -19.5 c 128,-1,30
 819 -26 819 -26 771 -28 c 0,31,32
 763.165 -28.1488 763.165 -28.1488 755.404 -28.1488 c 0,33,34
 606.653 -28.1488 606.653 -28.1488 485 26.5 c 0,35,36
 357 84 357 84 267.5 189 c 128,-1,37
 178 294 178 294 131 438 c 0,38,39
 86.82 573.36 86.82 573.36 86.82 731.694 c 0,40,41
 86.82 741.8 86.82 741.8 87 752 c 0,0,1
788 77 m 0,42,43
 868 77 868 77 934.5 102.5 c 128,-1,44
 1001 128 1001 128 1055 177 c 1,45,-1
 1055 1350 l 1,46,47
 1001 1402 1001 1402 933.5 1431.5 c 128,-1,48
 866 1461 866 1461 784 1461 c 0,49,50
 674 1461 674 1461 585 1413 c 128,-1,51
 496 1365 496 1365 433.5 1274 c 128,-1,52
 371 1183 371 1183 337 1051.5 c 128,-1,53
 303 920 303 920 303 753 c 0,54,55
 303 622 303 622 335.5 500.5 c 128,-1,56
 368 379 368 379 430 284.5 c 128,-1,57
 492 190 492 190 582 133.5 c 128,-1,58
 672 77 672 77 788 77 c 0,42,43
EndSplineSet
Validated: 524289
EndChar

StartChar: daggerdbl
Encoding: 8225 8225 140
Width: 923
Flags: W
LayerCount: 2
Fore
SplineSet
93 629 m 1,0,-1
 394 625 l 1,1,-1
 369 999 l 1,2,-1
 374 1135 l 1,3,-1
 92 1131 l 1,4,-1
 93 1278 l 1,5,-1
 394 1274 l 1,6,-1
 374 1472 l 1,7,-1
 369 1648 l 1,8,-1
 567 1648 l 1,9,-1
 562 1472 l 1,10,-1
 542 1274 l 1,11,-1
 831 1278 l 1,12,-1
 831 1131 l 1,13,-1
 560 1135 l 1,14,-1
 567 999 l 1,15,-1
 542 625 l 1,16,-1
 831 629 l 1,17,-1
 831 482 l 1,18,-1
 560 486 l 1,19,-1
 567 351 l 1,20,-1
 523 -366 l 1,21,-1
 416 -366 l 1,22,-1
 369 351 l 1,23,-1
 374 486 l 1,24,-1
 92 482 l 1,25,-1
 93 629 l 1,0,-1
EndSplineSet
Validated: 1
EndChar

StartChar: perthousand
Encoding: 8240 8240 141
Width: 2892
Flags: W
LayerCount: 2
Fore
SplineSet
1255 1601 m 1,0,-1
 1414 1601 l 1,1,-1
 868 0 l 1,2,-1
 709 0 l 1,3,-1
 1255 1601 l 1,0,-1
577 692 m 0,4,5
 506 690 506 690 450 719 c 128,-1,6
 394 748 394 748 355 797.5 c 128,-1,7
 316 847 316 847 295 913.5 c 128,-1,8
 274 980 274 980 274 1053 c 0,9,10
 274 1143 274 1143 301 1211.5 c 128,-1,11
 328 1280 328 1280 374 1327.5 c 128,-1,12
 420 1375 420 1375 480 1400 c 128,-1,13
 540 1425 540 1425 605 1427 c 0,14,15
 684 1430 684 1430 741 1401.5 c 128,-1,16
 798 1373 798 1373 835 1323 c 128,-1,17
 872 1273 872 1273 889.5 1205.5 c 128,-1,18
 907 1138 907 1138 907 1062 c 0,19,20
 907 973 907 973 880 904.5 c 128,-1,21
 853 836 853 836 807 789.5 c 128,-1,22
 761 743 761 743 701.5 718.5 c 128,-1,23
 642 694 642 694 577 692 c 0,4,5
589 795 m 0,24,25
 667 795 667 795 707.5 864 c 128,-1,26
 748 933 748 933 748 1055 c 0,27,28
 748 1116 748 1116 737.5 1165.5 c 128,-1,29
 727 1215 727 1215 707.5 1250.5 c 128,-1,30
 688 1286 688 1286 659 1305.5 c 128,-1,31
 630 1325 630 1325 593 1325 c 0,32,33
 554 1325 554 1325 524.5 1306.5 c 128,-1,34
 495 1288 495 1288 475 1253.5 c 128,-1,35
 455 1219 455 1219 444.5 1170.5 c 128,-1,36
 434 1122 434 1122 434 1061 c 0,37,38
 434 1004 434 1004 444.5 955.5 c 128,-1,39
 455 907 455 907 474.5 871.5 c 128,-1,40
 494 836 494 836 523 815.5 c 128,-1,41
 552 795 552 795 589 795 c 0,24,25
2005 525 m 0,42,43
 2005 615 2005 615 2032 683.5 c 128,-1,44
 2059 752 2059 752 2105 799.5 c 128,-1,45
 2151 847 2151 847 2211 872 c 128,-1,46
 2271 897 2271 897 2336 899 c 0,47,48
 2415 902 2415 902 2472 873.5 c 128,-1,49
 2529 845 2529 845 2566 795 c 128,-1,50
 2603 745 2603 745 2620.5 677.5 c 128,-1,51
 2638 610 2638 610 2638 534 c 0,52,53
 2638 445 2638 445 2611 376.5 c 128,-1,54
 2584 308 2584 308 2538 261.5 c 128,-1,55
 2492 215 2492 215 2432.5 190.5 c 128,-1,56
 2373 166 2373 166 2308 164 c 0,57,58
 2237 162 2237 162 2181 191 c 128,-1,59
 2125 220 2125 220 2086 269.5 c 128,-1,60
 2047 319 2047 319 2026 385.5 c 128,-1,61
 2005 452 2005 452 2005 525 c 0,42,43
1224 525 m 0,62,63
 1224 615 1224 615 1251 683.5 c 128,-1,64
 1278 752 1278 752 1324 799.5 c 128,-1,65
 1370 847 1370 847 1430 872 c 128,-1,66
 1490 897 1490 897 1555 899 c 0,67,68
 1634 902 1634 902 1691 873.5 c 128,-1,69
 1748 845 1748 845 1785 795 c 128,-1,70
 1822 745 1822 745 1839.5 677.5 c 128,-1,71
 1857 610 1857 610 1857 534 c 0,72,73
 1857 445 1857 445 1830 376.5 c 128,-1,74
 1803 308 1803 308 1757 261.5 c 128,-1,75
 1711 215 1711 215 1651.5 190.5 c 128,-1,76
 1592 166 1592 166 1527 164 c 0,77,78
 1456 162 1456 162 1400 191 c 128,-1,79
 1344 220 1344 220 1305 269.5 c 128,-1,80
 1266 319 1266 319 1245 385.5 c 128,-1,81
 1224 452 1224 452 1224 525 c 0,62,63
2165 533 m 0,82,83
 2165 476 2165 476 2175.5 427.5 c 128,-1,84
 2186 379 2186 379 2205.5 343.5 c 128,-1,85
 2225 308 2225 308 2254 287.5 c 128,-1,86
 2283 267 2283 267 2320 267 c 0,87,88
 2398 267 2398 267 2438.5 336 c 128,-1,89
 2479 405 2479 405 2479 527 c 0,90,91
 2479 588 2479 588 2468.5 637.5 c 128,-1,92
 2458 687 2458 687 2438.5 722.5 c 128,-1,93
 2419 758 2419 758 2390 777.5 c 128,-1,94
 2361 797 2361 797 2324 797 c 0,95,96
 2285 797 2285 797 2255.5 778.5 c 128,-1,97
 2226 760 2226 760 2206 725.5 c 128,-1,98
 2186 691 2186 691 2175.5 642.5 c 128,-1,99
 2165 594 2165 594 2165 533 c 0,82,83
1384 533 m 0,100,101
 1384 476 1384 476 1394.5 427.5 c 128,-1,102
 1405 379 1405 379 1424.5 343.5 c 128,-1,103
 1444 308 1444 308 1473 287.5 c 128,-1,104
 1502 267 1502 267 1539 267 c 0,105,106
 1617 267 1617 267 1657.5 336 c 128,-1,107
 1698 405 1698 405 1698 527 c 0,108,109
 1698 588 1698 588 1687.5 637.5 c 128,-1,110
 1677 687 1677 687 1657.5 722.5 c 128,-1,111
 1638 758 1638 758 1609 777.5 c 128,-1,112
 1580 797 1580 797 1543 797 c 0,113,114
 1504 797 1504 797 1474.5 778.5 c 128,-1,115
 1445 760 1445 760 1425 725.5 c 128,-1,116
 1405 691 1405 691 1394.5 642.5 c 128,-1,117
 1384 594 1384 594 1384 533 c 0,100,101
EndSplineSet
Validated: 33
EndChar

StartChar: ellipsis
Encoding: 8230 8230 142
Width: 2118
Flags: W
LayerCount: 2
Fore
SplineSet
1627 101 m 0,0,1
 1627 132 1627 132 1640.5 159 c 128,-1,2
 1654 186 1654 186 1675 205.5 c 128,-1,3
 1696 225 1696 225 1722.5 236 c 128,-1,4
 1749 247 1749 247 1776 247 c 0,5,6
 1842 247 1842 247 1872.5 210.5 c 128,-1,7
 1903 174 1903 174 1903 123 c 0,8,9
 1903 90 1903 90 1890 63 c 128,-1,10
 1877 36 1877 36 1856 17.5 c 128,-1,11
 1835 -1 1835 -1 1808 -11.5 c 128,-1,12
 1781 -22 1781 -22 1753 -22 c 0,13,14
 1729 -22 1729 -22 1706 -13.5 c 128,-1,15
 1683 -5 1683 -5 1665.5 10.5 c 128,-1,16
 1648 26 1648 26 1637.5 49 c 128,-1,17
 1627 72 1627 72 1627 101 c 0,0,1
921 101 m 0,18,19
 921 132 921 132 934.5 159 c 128,-1,20
 948 186 948 186 969 205.5 c 128,-1,21
 990 225 990 225 1016.5 236 c 128,-1,22
 1043 247 1043 247 1070 247 c 0,23,24
 1136 247 1136 247 1166.5 210.5 c 128,-1,25
 1197 174 1197 174 1197 123 c 0,26,27
 1197 90 1197 90 1184 63 c 128,-1,28
 1171 36 1171 36 1150 17.5 c 128,-1,29
 1129 -1 1129 -1 1102 -11.5 c 128,-1,30
 1075 -22 1075 -22 1047 -22 c 0,31,32
 1023 -22 1023 -22 1000 -13.5 c 128,-1,33
 977 -5 977 -5 959.5 10.5 c 128,-1,34
 942 26 942 26 931.5 49 c 128,-1,35
 921 72 921 72 921 101 c 0,18,19
215 101 m 0,36,37
 215 132 215 132 228.5 159 c 128,-1,38
 242 186 242 186 263 205.5 c 128,-1,39
 284 225 284 225 310.5 236 c 128,-1,40
 337 247 337 247 364 247 c 0,41,42
 430 247 430 247 460.5 210.5 c 128,-1,43
 491 174 491 174 491 123 c 0,44,45
 491 90 491 90 478 63 c 128,-1,46
 465 36 465 36 444 17.5 c 128,-1,47
 423 -1 423 -1 396 -11.5 c 128,-1,48
 369 -22 369 -22 341 -22 c 0,49,50
 317 -22 317 -22 294 -13.5 c 128,-1,51
 271 -5 271 -5 253.5 10.5 c 128,-1,52
 236 26 236 26 225.5 49 c 128,-1,53
 215 72 215 72 215 101 c 0,36,37
EndSplineSet
Validated: 1
EndChar

StartChar: ae
Encoding: 230 230 143
Width: 1789
Flags: HW
LayerCount: 2
Fore
SplineSet
98 322 m 256,0,1
 106 392 106 392 143.5 444.5 c 128,-1,2
 181 497 181 497 237 535 c 128,-1,3
 293 573 293 573 361.5 598 c 128,-1,4
 430 623 430 623 499 638 c 128,-1,5
 568 653 568 653 632 659 c 128,-1,6
 696 665 696 665 743 665 c 1,7,-1
 743 752 l 2,8,9
 743 831 743 831 722 880.5 c 128,-1,10
 701 930 701 930 664 958 c 128,-1,11
 627 986 627 986 577 996 c 128,-1,12
 527 1006 527 1006 469 1006 c 0,13,14
 440 1006 440 1006 404 1000.5 c 128,-1,15
 368 995 368 995 329.5 985 c 128,-1,16
 291 975 291 975 252 961 c 128,-1,17
 213 947 213 947 178 930 c 1,18,-1
 141 1020 l 1,19,20
 178 1050 178 1050 231.5 1072.5 c 128,-1,21
 285 1095 285 1095 341.5 1110 c 128,-1,22
 398 1125 398 1125 451.5 1132 c 128,-1,23
 505 1139 505 1139 543 1139 c 0,24,25
 599 1139 599 1139 651.5 1131 c 128,-1,26
 704 1123 704 1123 749.5 1104.5 c 128,-1,27
 795 1086 795 1086 831.5 1054.5 c 128,-1,28
 868 1023 868 1023 893 976 c 1,29,30
 967 1057 967 1057 1069 1103 c 128,-1,31
 1171 1149 1171 1149 1296 1152 c 0,32,33
 1301.97 1152.14 1301.97 1152.14 1307.85 1152.14 c 0,34,35
 1388.81 1152.14 1388.81 1152.14 1455 1126.5 c 0,36,37
 1526 1099 1526 1099 1576 1045 c 128,-1,38
 1626 991 1626 991 1654.5 913 c 128,-1,39
 1683 835 1683 835 1687 736 c 0,40,41
 1687.62 716.615 1687.62 716.615 1687.62 698.84 c 0,42,43
 1687.62 658.846 1687.62 658.846 1684.5 627 c 0,44,45
 1680 581 1680 581 1675 545 c 1,46,-1
 935 545 l 1,47,48
 937 415 937 415 973.5 331 c 128,-1,49
 1010 247 1010 247 1066.5 198.5 c 128,-1,50
 1123 150 1123 150 1190.5 131.5 c 128,-1,51
 1258 113 1258 113 1322 113 c 0,52,53
 1361 113 1361 113 1405.5 117.5 c 128,-1,54
 1450 122 1450 122 1492.5 130.5 c 128,-1,55
 1535 139 1535 139 1571 150 c 128,-1,56
 1607 161 1607 161 1628 173 c 1,57,-1
 1665 88 l 1,58,59
 1636 62 1636 62 1588 41 c 128,-1,60
 1540 20 1540 20 1483 5.5 c 128,-1,61
 1426 -9 1426 -9 1364.5 -16.5 c 128,-1,62
 1303 -24 1303 -24 1246 -24 c 0,63,64
 1113 -24 1113 -24 1015 24 c 128,-1,65
 917 72 917 72 853 160 c 1,66,67
 824 120 824 120 780 86.5 c 128,-1,68
 736 53 736 53 680.5 28.5 c 128,-1,69
 625 4 625 4 559.5 -10 c 128,-1,70
 494 -24 494 -24 421 -24 c 0,71,72
 343 -24 343 -24 279.5 4 c 128,-1,73
 216 32 216 32 173.5 79.5 c 128,-1,74
 131 127 131 127 110.5 189.5 c 0,75,76
 95.7544 234.456 95.7544 234.456 95.7544 283.293 c 0,77,78
 95.7544 302.351 95.7544 302.351 98 322 c 256,0,1
1483 663 m 1,79,80
 1485 697 1485 697 1485 731.222 c 0,81,82
 1485 748.333 1485 748.333 1484.5 765.5 c 0,83,84
 1483 817 1483 817 1472 863.5 c 128,-1,85
 1461 910 1461 910 1438.5 948.5 c 128,-1,86
 1416 987 1416 987 1378 1011 c 0,87,88
 1352 1028 1352 1028 1319 1036.5 c 128,-1,89
 1286 1045 1286 1045 1244 1045 c 0,90,91
 1188 1045 1188 1045 1135.5 1024 c 128,-1,92
 1083 1003 1083 1003 1041.5 957 c 128,-1,93
 1000 911 1000 911 972 838.5 c 128,-1,94
 944 766 944 766 936 663 c 1,95,-1
 1483 663 l 1,79,80
292 318 m 0,96,97
 292 259 292 259 308 218 c 128,-1,98
 324 177 324 177 354.5 151.5 c 128,-1,99
 385 126 385 126 429 114.5 c 128,-1,100
 473 103 473 103 528 103 c 0,101,102
 558 103 558 103 589 111 c 128,-1,103
 620 119 620 119 648.5 131 c 128,-1,104
 677 143 677 143 701.5 158.5 c 128,-1,105
 726 174 726 174 741 189 c 1,106,107
 741 283 741 283 741.5 375.5 c 128,-1,108
 742 468 742 468 743 562 c 1,109,110
 701 562 701 562 651 557.5 c 128,-1,111
 601 553 601 553 551 542 c 128,-1,112
 501 531 501 531 454 513 c 128,-1,113
 407 495 407 495 371 467.5 c 128,-1,114
 335 440 335 440 313.5 403 c 128,-1,115
 292 366 292 366 292 318 c 0,96,97
EndSplineSet
Validated: 524289
EndChar

StartChar: fi
Encoding: 64257 64257 144
Width: 1519
Flags: W
LayerCount: 2
Fore
SplineSet
114 85 m 1,0,-1
 315 107 l 1,1,-1
 315 984 l 1,2,-1
 95 984 l 1,3,-1
 95 1060 l 1,4,-1
 315 1119 l 1,5,-1
 315 1202 l 2,6,7
 315 1276 315 1276 333.5 1341.5 c 128,-1,8
 352 1407 352 1407 383.5 1461 c 128,-1,9
 415 1515 415 1515 456.5 1557.5 c 128,-1,10
 498 1600 498 1600 543.5 1629 c 128,-1,11
 589 1658 589 1658 636 1673.5 c 128,-1,12
 683 1689 683 1689 725 1689 c 0,13,14
 793 1689 793 1689 825 1683 c 128,-1,15
 857 1677 857 1677 868 1672 c 1,16,-1
 868 1502 l 1,17,18
 854 1510 854 1510 805.5 1521.5 c 128,-1,19
 757 1533 757 1533 685 1533 c 0,20,21
 644 1533 644 1533 611.5 1526 c 128,-1,22
 579 1519 579 1519 555.5 1493.5 c 128,-1,23
 532 1468 532 1468 519.5 1418.5 c 128,-1,24
 507 1369 507 1369 507 1284 c 2,25,-1
 507 1119 l 1,26,-1
 809 1119 l 1,27,-1
 809 984 l 1,28,-1
 507 984 l 1,29,-1
 507 105 l 1,30,-1
 737 85 l 1,31,-1
 737 0 l 1,32,-1
 114 0 l 1,33,-1
 114 85 l 1,0,-1
1171 1375 m 0,34,35
 1147 1375 1147 1375 1124 1383.5 c 128,-1,36
 1101 1392 1101 1392 1083.5 1407.5 c 128,-1,37
 1066 1423 1066 1423 1055.5 1446 c 128,-1,38
 1045 1469 1045 1469 1045 1498 c 0,39,40
 1045 1529 1045 1529 1058.5 1556 c 128,-1,41
 1072 1583 1072 1583 1093 1602.5 c 128,-1,42
 1114 1622 1114 1622 1140.5 1633 c 128,-1,43
 1167 1644 1167 1644 1194 1644 c 0,44,45
 1260 1644 1260 1644 1290.5 1607.5 c 128,-1,46
 1321 1571 1321 1571 1321 1520 c 0,47,48
 1321 1487 1321 1487 1308 1460 c 128,-1,49
 1295 1433 1295 1433 1274 1414.5 c 128,-1,50
 1253 1396 1253 1396 1226 1385.5 c 128,-1,51
 1199 1375 1199 1375 1171 1375 c 0,34,35
950 85 m 1,52,-1
 1120 106 l 1,53,-1
 1120 925 l 1,54,-1
 982 998 l 1,55,-1
 982 1060 l 1,56,-1
 1259 1139 l 1,57,-1
 1304 1119 l 1,58,-1
 1304 106 l 1,59,-1
 1466 85 l 1,60,-1
 1466 0 l 1,61,-1
 950 0 l 1,62,-1
 950 85 l 1,52,-1
EndSplineSet
Validated: 1
Ligature2: "'dlig' Discretionary Ligatures in Latin lookup 0 subtable" f i
EndChar

StartChar: fl
Encoding: 64258 64258 145
Width: 1493
Flags: W
LayerCount: 2
Fore
SplineSet
114 85 m 1,0,-1
 315 107 l 1,1,-1
 315 984 l 1,2,-1
 95 984 l 1,3,-1
 95 1060 l 1,4,-1
 315 1119 l 1,5,-1
 315 1202 l 2,6,7
 315 1276 315 1276 333.5 1341.5 c 128,-1,8
 352 1407 352 1407 383.5 1461 c 128,-1,9
 415 1515 415 1515 456.5 1557.5 c 128,-1,10
 498 1600 498 1600 543.5 1629 c 128,-1,11
 589 1658 589 1658 636 1673.5 c 128,-1,12
 683 1689 683 1689 725 1689 c 0,13,14
 793 1689 793 1689 825 1683 c 128,-1,15
 857 1677 857 1677 868 1672 c 1,16,-1
 868 1502 l 1,17,18
 854 1510 854 1510 805.5 1521.5 c 128,-1,19
 757 1533 757 1533 685 1533 c 0,20,21
 644 1533 644 1533 611.5 1526 c 128,-1,22
 579 1519 579 1519 555.5 1493.5 c 128,-1,23
 532 1468 532 1468 519.5 1418.5 c 128,-1,24
 507 1369 507 1369 507 1284 c 2,25,-1
 507 1119 l 1,26,-1
 809 1119 l 1,27,-1
 809 984 l 1,28,-1
 507 984 l 1,29,-1
 507 105 l 1,30,-1
 737 85 l 1,31,-1
 737 0 l 1,32,-1
 114 0 l 1,33,-1
 114 85 l 1,0,-1
912 85 m 1,34,-1
 1082 106 l 1,35,-1
 1082 1460 l 1,36,-1
 922 1496 l 1,37,-1
 922 1583 l 1,38,-1
 1235 1625 l 1,39,-1
 1275 1602 l 1,40,-1
 1275 106 l 1,41,-1
 1453 85 l 1,42,-1
 1453 0 l 1,43,-1
 912 0 l 1,44,-1
 912 85 l 1,34,-1
EndSplineSet
Validated: 1
Ligature2: "'dlig' Discretionary Ligatures in Latin lookup 0 subtable" f l
EndChar

StartChar: Oslash
Encoding: 216 216 146
Width: 1554
Flags: HW
LayerCount: 2
Fore
SplineSet
486 26 m 1,0,1
 390 68 390 68 315 139 c 128,-1,2
 240 210 240 210 188.5 303.5 c 128,-1,3
 137 397 137 397 110.5 510.5 c 0,4,5
 86.6949 612.458 86.6949 612.458 86.6949 726.116 c 0,6,7
 86.6949 738.252 86.6949 738.252 87 752 c 0,8,9
 91.2529 943.66 91.2529 943.66 148.5 1093 c 0,10,11
 206 1243 206 1243 303 1347 c 128,-1,12
 400 1451 400 1451 528 1507 c 128,-1,13
 656 1563 656 1563 801 1567 c 0,14,15
 811.219 1567.28 811.219 1567.28 821.341 1567.28 c 0,16,17
 919.188 1567.28 919.188 1567.28 1008 1541 c 1,18,-1
 1060 1693 l 1,19,-1
 1143 1659 l 1,20,-1
 1091 1509 l 1,21,22
 1182 1466 1182 1466 1253 1395 c 128,-1,23
 1324 1324 1324 1324 1372 1231 c 128,-1,24
 1420 1138 1420 1138 1444.5 1026 c 0,25,26
 1467.15 922.453 1467.15 922.453 1467.15 806.939 c 0,27,28
 1467.15 797.51 1467.15 797.51 1467 788 c 0,29,30
 1463 597 1463 597 1407.5 446.5 c 128,-1,31
 1352 296 1352 296 1258 191.5 c 128,-1,32
 1164 87 1164 87 1038.5 31 c 128,-1,33
 913 -25 913 -25 771 -28 c 0,34,35
 766.84 -28.04 766.84 -28.04 762.698 -28.04 c 0,36,37
 663.28 -28.04 663.28 -28.04 574 -5 c 1,38,-1
 508 -199 l 1,39,-1
 420 -166 l 1,40,-1
 486 26 l 1,0,1
965 1416 m 1,41,42
 925 1438 925 1438 880 1449.5 c 128,-1,43
 835 1461 835 1461 784 1461 c 0,44,45
 674 1461 674 1461 585 1413 c 128,-1,46
 496 1365 496 1365 433.5 1274 c 128,-1,47
 371 1183 371 1183 337 1051.5 c 128,-1,48
 303 920 303 920 303 753 c 0,49,50
 303 664 303 664 318 578.5 c 128,-1,51
 333 493 333 493 362 416.5 c 128,-1,52
 391 340 391 340 434.5 276 c 128,-1,53
 478 212 478 212 534 167 c 1,54,-1
 965 1416 l 1,41,42
615 115 m 1,55,56
 694 77 694 77 788 77 c 0,57,58
 898 77 898 77 984 125.5 c 128,-1,59
 1070 174 1070 174 1129.5 265.5 c 128,-1,60
 1189 357 1189 357 1220 488.5 c 128,-1,61
 1251 620 1251 620 1251 787 c 0,62,63
 1251 874 1251 874 1237.5 957.5 c 128,-1,64
 1224 1041 1224 1041 1197.5 1115.5 c 128,-1,65
 1171 1190 1171 1190 1132 1253 c 128,-1,66
 1093 1316 1093 1316 1041 1362 c 1,67,-1
 615 115 l 1,55,56
EndSplineSet
Validated: 524289
EndChar

StartChar: Lslash
Encoding: 321 321 147
Width: 1418
Flags: HW
LayerCount: 2
Fore
SplineSet
280 85 m 1,0,-1
 449 115 l 1,1,-1
 449 563 l 1,2,-1
 270 495 l 1,3,4
 271 535 271 535 271 567 c 2,5,-1
 271 640 l 1,6,-1
 284 645 l 2,7,8
 297 651 297 651 320.5 660.5 c 2,9,-1
 377 683 l 1,10,-1
 449 712 l 1,11,-1
 449 1427 l 1,12,-1
 284 1444 l 1,13,-1
 284 1553 l 1,14,-1
 822 1553 l 1,15,-1
 822 1444 l 1,16,-1
 645 1427 l 1,17,-1
 644 789 l 1,18,19
 836.5 865.5 l 1,20,-1
 1012 935 l 1,21,22
 1189 1005 l 1,23,-1
 1189 845 l 1,24,-1
 644 637 l 1,25,-1
 643 112 l 1,26,-1
 1178 136 l 1,27,-1
 1301 374 l 1,28,-1
 1388 331 l 1,29,-1
 1323 0 l 1,30,-1
 280 0 l 1,31,-1
 280 85 l 1,0,-1
EndSplineSet
Validated: 524289
EndChar

StartChar: onesuperior
Encoding: 185 185 158
Width: 1085
Flags: HW
LayerCount: 2
Fore
SplineSet
215 804 m 1,0,-1
 487 831 l 1,1,-1
 487 1484 l 1,2,-1
 215 1431 l 1,3,-1
 195 1530 l 1,4,5
 225 1539 225 1539 266 1554 c 128,-1,6
 307 1569 307 1569 351.5 1587 c 128,-1,7
 396 1605 396 1605 441 1625.5 c 2,8,-1
 524 1664.5 l 2,9,10
 562 1683 562 1683 590.5 1698.5 c 128,-1,11
 619 1714 619 1714 631 1724 c 1,12,-1
 683 1709 l 1,13,-1
 680 830 l 1,14,-1
 939 804 l 1,15,-1
 939 719 l 1,16,-1
 215 719 l 1,17,-1
 215 804 l 1,0,-1
EndSplineSet
Validated: 524289
EndChar

StartChar: twosuperior
Encoding: 178 178 159
Width: 1256
Flags: HW
LayerCount: 2
Fore
SplineSet
144 836 m 1,0,1
 182 855 182 855 244.5 889.5 c 128,-1,2
 307 924 307 924 378 968.5 c 128,-1,3
 449 1013 449 1013 521.5 1065.5 c 128,-1,4
 594 1118 594 1118 652.5 1172.5 c 128,-1,5
 711 1227 711 1227 748 1282 c 128,-1,6
 785 1337 785 1337 785 1388 c 0,7,8
 785 1442 785 1442 766.5 1478.5 c 128,-1,9
 748 1515 748 1515 717.5 1537.5 c 128,-1,10
 687 1560 687 1560 647.5 1570 c 128,-1,11
 608 1580 608 1580 565 1580 c 256,12,13
 522 1580 522 1580 475.5 1567.5 c 128,-1,14
 429 1555 429 1555 384 1532.5 c 128,-1,15
 339 1510 339 1510 298.5 1480 c 128,-1,16
 258 1450 258 1450 228 1416 c 1,17,-1
 154 1503 l 1,18,19
 178 1537 178 1537 222.5 1576.5 c 128,-1,20
 267 1616 267 1616 327 1650 c 128,-1,21
 387 1684 387 1684 459 1706.5 c 128,-1,22
 531 1729 531 1729 609 1729 c 0,23,24
 690 1729 690 1729 751 1715.5 c 128,-1,25
 812 1702 812 1702 856 1679.5 c 128,-1,26
 900 1657 900 1657 929 1628 c 128,-1,27
 958 1599 958 1599 974.5 1568 c 128,-1,28
 991 1537 991 1537 998 1507 c 128,-1,29
 1005 1477 1005 1477 1005 1453 c 0,30,31
 1005 1357 1005 1357 956 1275.5 c 128,-1,32
 907 1194 907 1194 821.5 1121 c 128,-1,33
 736 1048 736 1048 620.5 979 c 128,-1,34
 505 910 505 910 372 840 c 1,35,-1
 890 878 l 1,36,-1
 1009 1018 l 1,37,-1
 1112 976 l 1,38,-1
 1056 720 l 1,39,-1
 187 720 l 1,40,-1
 144 836 l 1,0,1
EndSplineSet
Validated: 1
EndChar

StartChar: threesuperior
Encoding: 179 179 160
Width: 1145
Flags: HW
LayerCount: 2
Fore
SplineSet
225 784 m 1,0,1
 254 778 254 778 289.5 769 c 2,2,-1
 361 751.5 l 2,3,4
 397 743 397 743 429.5 737.5 c 128,-1,5
 462 732 462 732 486 732 c 0,6,7
 560 733 560 733 616.5 750.5 c 128,-1,8
 673 768 673 768 711.5 796.5 c 128,-1,9
 750 825 750 825 769.5 863.5 c 128,-1,10
 789 902 789 902 789 946 c 0,11,12
 789 989 789 989 773.5 1021.5 c 128,-1,13
 758 1054 758 1054 730.5 1075.5 c 128,-1,14
 703 1097 703 1097 665 1108 c 128,-1,15
 627 1119 627 1119 582 1120 c 1,16,-1
 385 1080 l 1,17,-1
 385 1215 l 1,18,19
 548 1247 548 1247 631.5 1310 c 128,-1,20
 715 1373 715 1373 715 1483 c 0,21,22
 715 1519 715 1519 688 1546 c 0,23,24
 662 1572 662 1572 621.5 1585.5 c 0,25,26
 586.226 1597.26 586.226 1597.26 542.986 1597.26 c 0,27,28
 536.581 1597.26 536.581 1597.26 530 1597 c 0,29,30
 492 1595 492 1595 451 1587 c 128,-1,31
 410 1579 410 1579 371 1567 c 128,-1,32
 332 1555 332 1555 297.5 1539 c 128,-1,33
 263 1523 263 1523 238 1505 c 1,34,-1
 189 1586 l 1,35,36
 212 1604 212 1604 249.5 1624 c 128,-1,37
 287 1644 287 1644 333 1662 c 128,-1,38
 379 1680 379 1680 430 1694 c 0,39,40
 480 1708 480 1708 531 1713 c 0,41,42
 566.294 1716.7 566.294 1716.7 595.732 1716.7 c 0,43,44
 648.481 1716.7 648.481 1716.7 693.5 1706 c 0,45,46
 765 1689 765 1689 814.5 1654.5 c 128,-1,47
 864 1620 864 1620 889.5 1571.5 c 128,-1,48
 915 1523 915 1523 915 1469 c 0,49,50
 915 1378 915 1378 859.5 1311.5 c 128,-1,51
 804 1245 804 1245 689 1203 c 1,52,53
 701 1203.6 701 1203.6 712.42 1203.6 c 0,54,55
 758.1 1203.6 758.1 1203.6 794.5 1194 c 0,56,57
 840 1182 840 1182 874 1160 c 128,-1,58
 908 1138 908 1138 930.5 1109.5 c 128,-1,59
 953 1081 953 1081 967 1050.5 c 128,-1,60
 981 1020 981 1020 987 991 c 128,-1,61
 993 962 993 962 993 939 c 0,62,63
 993 868 993 868 962 807.5 c 128,-1,64
 931 747 931 747 871.5 702 c 128,-1,65
 812 657 812 657 726 631.5 c 128,-1,66
 640 606 640 606 531 606 c 0,67,68
 501 606 501 606 463 612 c 128,-1,69
 425 618 425 618 384.5 627.5 c 128,-1,70
 344 637 344 637 302.5 649.5 c 128,-1,71
 261 662 261 662 225 674 c 1,72,-1
 225 784 l 1,0,1
EndSplineSet
Validated: 524289
EndChar

StartChar: onequarter
Encoding: 188 188 161
Width: 2626
Flags: HW
LayerCount: 2
Fore
SplineSet
1571 1881 m 1,0,-1
 1701 1838 l 1,1,-1
 928 -343 l 1,2,-1
 796 -299 l 1,3,-1
 1571 1881 l 1,0,-1
245 804 m 1,4,-1
 517 831 l 1,5,-1
 517 1484 l 1,6,-1
 245 1431 l 1,7,-1
 225 1530 l 1,8,9
 255 1539 255 1539 296 1554 c 128,-1,10
 337 1569 337 1569 381.5 1587 c 128,-1,11
 426 1605 426 1605 471 1625.5 c 2,12,-1
 554 1664.5 l 2,13,14
 592 1683 592 1683 620.5 1698.5 c 128,-1,15
 649 1714 649 1714 661 1724 c 1,16,-1
 713 1709 l 1,17,-1
 710 830 l 1,18,-1
 969 804 l 1,19,-1
 969 719 l 1,20,-1
 245 719 l 1,21,-1
 245 804 l 1,4,-1
1400 282 m 1,22,-1
 1965 1083 l 1,23,-1
 2028 1078 l 1,24,-1
 2138 982 l 1,25,-1
 1643 387 l 1,26,-1
 1571 291 l 1,27,-1
 1987 323 l 1,28,-1
 1989 575 l 1,29,-1
 2165 595 l 1,30,-1
 2165 337 l 1,31,-1
 2428 358 l 1,32,-1
 2431 188 l 1,33,-1
 2165 188 l 1,34,-1
 2165 -177 l 1,35,-1
 1984 -177 l 1,36,-1
 1986 188 l 1,37,-1
 1411 188 l 1,38,-1
 1400 282 l 1,22,-1
EndSplineSet
Validated: 524289
EndChar

StartChar: onehalf
Encoding: 189 189 162
Width: 2626
Flags: HW
LayerCount: 2
Fore
SplineSet
1571 1881 m 1,0,-1
 1701 1844 l 1,1,-1
 928 -343 l 1,2,-1
 796 -312 l 1,3,-1
 1571 1881 l 1,0,-1
245 804 m 1,4,-1
 517 831 l 1,5,-1
 517 1484 l 1,6,-1
 245 1431 l 1,7,-1
 225 1530 l 1,8,9
 255 1539 255 1539 296 1554 c 128,-1,10
 337 1569 337 1569 381.5 1587 c 128,-1,11
 426 1605 426 1605 471 1625.5 c 2,12,-1
 554 1664.5 l 2,13,14
 592 1683 592 1683 620.5 1698.5 c 128,-1,15
 649 1714 649 1714 661 1724 c 1,16,-1
 713 1709 l 1,17,-1
 710 830 l 1,18,-1
 969 804 l 1,19,-1
 969 719 l 1,20,-1
 245 719 l 1,21,-1
 245 804 l 1,4,-1
1464 114 m 1,22,-1
 1535 151.5 l 2,23,24
 1578 174 1578 174 1629 203.5 c 1,25,-1
 1735.5 268 l 1,26,27
 1791 303 1791 303 1844 342.5 c 128,-1,28
 1897 382 1897 382 1945.5 425 c 128,-1,29
 1994 468 1994 468 2030.5 512.5 c 128,-1,30
 2067 557 2067 557 2088.5 603 c 128,-1,31
 2110 649 2110 649 2110 694 c 0,32,33
 2110 745 2110 745 2094.5 777 c 128,-1,34
 2079 809 2079 809 2047.5 827 c 128,-1,35
 2016 845 2016 845 1969 851.5 c 128,-1,36
 1922 858 1922 858 1859 858 c 0,37,38
 1773 858 1773 858 1695.5 814.5 c 128,-1,39
 1618 771 1618 771 1558 702 c 1,40,-1
 1481 781 l 1,41,42
 1506 821 1506 821 1552 861 c 128,-1,43
 1598 901 1598 901 1657.5 933.5 c 128,-1,44
 1717 966 1717 966 1786.5 986.5 c 128,-1,45
 1856 1007 1856 1007 1929 1007 c 0,46,47
 2051 1007 2051 1007 2129 981.5 c 128,-1,48
 2207 956 2207 956 2251.5 918 c 128,-1,49
 2296 880 2296 880 2313 836 c 128,-1,50
 2330 792 2330 792 2330 755 c 0,51,52
 2330 660 2330 660 2285 579.5 c 128,-1,53
 2240 499 2240 499 2159.5 424 c 128,-1,54
 2079 349 2079 349 1968.5 275.5 c 1,55,-1
 1727 121 l 1,56,-1
 2210 156 l 1,57,-1
 2329 296 l 1,58,-1
 2432 254 l 1,59,-1
 2376 -2 l 1,60,-1
 1507 -2 l 1,61,-1
 1464 114 l 1,22,-1
EndSplineSet
Validated: 524289
EndChar

StartChar: threequarters
Encoding: 190 190 163
Width: 2795
Flags: HW
LayerCount: 2
Fore
SplineSet
1571 1881 m 1,0,-1
 1701 1844 l 1,1,-1
 928 -343 l 1,2,-1
 796 -312 l 1,3,-1
 1571 1881 l 1,0,-1
225 784 m 1,4,5
 254 778 254 778 289.5 769 c 2,6,-1
 361 751.5 l 2,7,8
 397 743 397 743 429.5 737.5 c 128,-1,9
 462 732 462 732 486 732 c 0,10,11
 560 733 560 733 616.5 750.5 c 128,-1,12
 673 768 673 768 711.5 796.5 c 128,-1,13
 750 825 750 825 769.5 863.5 c 128,-1,14
 789 902 789 902 789 946 c 0,15,16
 789 989 789 989 773.5 1021.5 c 128,-1,17
 758 1054 758 1054 730.5 1075.5 c 128,-1,18
 703 1097 703 1097 665 1108 c 128,-1,19
 627 1119 627 1119 582 1120 c 1,20,-1
 385 1080 l 1,21,-1
 385 1215 l 1,22,23
 548 1247 548 1247 631.5 1310 c 128,-1,24
 715 1373 715 1373 715 1483 c 0,25,26
 715 1519 715 1519 688 1546 c 0,27,28
 662 1572 662 1572 621.5 1585.5 c 0,29,30
 586.226 1597.26 586.226 1597.26 542.986 1597.26 c 0,31,32
 536.581 1597.26 536.581 1597.26 530 1597 c 0,33,34
 492 1595 492 1595 451 1587 c 128,-1,35
 410 1579 410 1579 371 1567 c 128,-1,36
 332 1555 332 1555 297.5 1539 c 128,-1,37
 263 1523 263 1523 238 1505 c 1,38,-1
 189 1586 l 1,39,40
 212 1604 212 1604 249.5 1624 c 128,-1,41
 287 1644 287 1644 333 1662 c 128,-1,42
 379 1680 379 1680 430 1694 c 0,43,44
 480 1708 480 1708 531 1713 c 0,45,46
 566.294 1716.7 566.294 1716.7 595.732 1716.7 c 0,47,48
 648.481 1716.7 648.481 1716.7 693.5 1706 c 0,49,50
 765 1689 765 1689 814.5 1654.5 c 128,-1,51
 864 1620 864 1620 889.5 1571.5 c 128,-1,52
 915 1523 915 1523 915 1469 c 0,53,54
 915 1378 915 1378 859.5 1311.5 c 128,-1,55
 804 1245 804 1245 689 1203 c 1,56,57
 701 1203.6 701 1203.6 712.42 1203.6 c 0,58,59
 758.1 1203.6 758.1 1203.6 794.5 1194 c 0,60,61
 840 1182 840 1182 874 1160 c 128,-1,62
 908 1138 908 1138 930.5 1109.5 c 128,-1,63
 953 1081 953 1081 967 1050.5 c 128,-1,64
 981 1020 981 1020 987 991 c 128,-1,65
 993 962 993 962 993 939 c 0,66,67
 993 868 993 868 962 807.5 c 128,-1,68
 931 747 931 747 871.5 702 c 128,-1,69
 812 657 812 657 726 631.5 c 128,-1,70
 640 606 640 606 531 606 c 0,71,72
 501 606 501 606 463 612 c 128,-1,73
 425 618 425 618 384.5 627.5 c 128,-1,74
 344 637 344 637 302.5 649.5 c 128,-1,75
 261 662 261 662 225 674 c 1,76,-1
 225 784 l 1,4,5
1400 282 m 1,77,-1
 1965 1083 l 1,78,-1
 2028 1078 l 1,79,-1
 2138 982 l 1,80,-1
 1643 387 l 1,81,-1
 1571 291 l 1,82,-1
 1987 323 l 1,83,-1
 1989 575 l 1,84,-1
 2165 595 l 1,85,-1
 2165 337 l 1,86,-1
 2428 358 l 1,87,-1
 2431 188 l 1,88,-1
 2165 188 l 1,89,-1
 2165 -177 l 1,90,-1
 1984 -177 l 1,91,-1
 1986 188 l 1,92,-1
 1411 188 l 1,93,-1
 1400 282 l 1,77,-1
EndSplineSet
Validated: 524289
EndChar

StartChar: degree
Encoding: 176 176 164
Width: 708
Flags: HW
LayerCount: 2
Fore
SplineSet
353 1052 m 0,0,1
 288 1052 288 1052 230 1077 c 128,-1,2
 172 1102 172 1102 128.5 1145 c 128,-1,3
 85 1188 85 1188 60 1245.5 c 128,-1,4
 35 1303 35 1303 35 1368 c 256,5,6
 35 1433 35 1433 60 1490.5 c 128,-1,7
 85 1548 85 1548 128.5 1591 c 128,-1,8
 172 1634 172 1634 230 1659 c 128,-1,9
 288 1684 288 1684 353 1684 c 0,10,11
 419 1684 419 1684 477 1659 c 128,-1,12
 535 1634 535 1634 578.5 1591 c 128,-1,13
 622 1548 622 1548 647 1490.5 c 128,-1,14
 672 1433 672 1433 672 1368 c 256,15,16
 672 1303 672 1303 647 1245.5 c 128,-1,17
 622 1188 622 1188 578.5 1145 c 128,-1,18
 535 1102 535 1102 477 1077 c 128,-1,19
 419 1052 419 1052 353 1052 c 0,0,1
353 1166 m 256,20,21
 395 1166 395 1166 431.5 1182 c 128,-1,22
 468 1198 468 1198 495 1226 c 128,-1,23
 522 1254 522 1254 537.5 1290.5 c 128,-1,24
 553 1327 553 1327 553 1369 c 256,25,26
 553 1411 553 1411 537.5 1447.5 c 128,-1,27
 522 1484 522 1484 495 1511.5 c 128,-1,28
 468 1539 468 1539 431.5 1555 c 128,-1,29
 395 1571 395 1571 353 1571 c 256,30,31
 311 1571 311 1571 274.5 1555 c 128,-1,32
 238 1539 238 1539 211 1511.5 c 128,-1,33
 184 1484 184 1484 168.5 1447.5 c 128,-1,34
 153 1411 153 1411 153 1369 c 256,35,36
 153 1327 153 1327 168.5 1290.5 c 128,-1,37
 184 1254 184 1254 211 1226 c 128,-1,38
 238 1198 238 1198 274.5 1182 c 128,-1,39
 311 1166 311 1166 353 1166 c 256,20,21
EndSplineSet
Validated: 524289
EndChar

StartChar: plusminus
Encoding: 177 177 165
Width: 1233
Flags: HW
LayerCount: 2
Fore
SplineSet
532 561 m 1,0,-1
 539 719 l 1,1,-1
 380 710 l 1,2,-1
 160 710 l 1,3,-1
 160 883 l 1,4,-1
 380 883 l 1,5,-1
 539 871 l 1,6,-1
 532 1032 l 1,7,-1
 532 1260 l 1,8,-1
 699 1260 l 1,9,-1
 699 1032 l 1,10,-1
 692 871 l 1,11,-1
 822 883 l 1,12,-1
 1073 883 l 1,13,-1
 1073 710 l 1,14,-1
 822 710 l 1,15,-1
 692 719 l 1,16,-1
 699 561 l 1,17,-1
 699 321 l 1,18,-1
 532 321 l 1,19,-1
 532 561 l 1,0,-1
173 177 m 1,20,-1
 1058 177 l 1,21,-1
 1058 30 l 1,22,-1
 173 30 l 1,23,-1
 173 177 l 1,20,-1
EndSplineSet
Validated: 1
EndChar

StartChar: multiply
Encoding: 215 215 166
Width: 1256
Flags: HW
LayerCount: 2
Fore
SplineSet
179 477 m 1,0,-1
 522 795 l 1,1,-1
 178 1133 l 1,2,-1
 292 1249 l 1,3,-1
 625 897 l 1,4,-1
 953 1248 l 1,5,-1
 1072 1132 l 1,6,-1
 724 798 l 1,7,-1
 1072 455 l 1,8,-1
 959 342 l 1,9,-1
 622 695 l 1,10,-1
 298 342 l 1,11,-1
 179 477 l 1,0,-1
EndSplineSet
Validated: 1
EndChar

StartChar: divide
Encoding: 247 247 167
Width: 1205
Flags: HW
LayerCount: 2
Fore
SplineSet
593 1052 m 0,0,1
 569 1052 569 1052 546 1060.5 c 128,-1,2
 523 1069 523 1069 505.5 1084.5 c 128,-1,3
 488 1100 488 1100 477.5 1123 c 128,-1,4
 467 1146 467 1146 467 1175 c 0,5,6
 467 1206 467 1206 480.5 1233 c 128,-1,7
 494 1260 494 1260 515 1279.5 c 128,-1,8
 536 1299 536 1299 562.5 1310 c 128,-1,9
 589 1321 589 1321 616 1321 c 0,10,11
 682 1321 682 1321 712.5 1284.5 c 128,-1,12
 743 1248 743 1248 743 1197 c 0,13,14
 743 1164 743 1164 730 1137 c 128,-1,15
 717 1110 717 1110 696 1091.5 c 128,-1,16
 675 1073 675 1073 648 1062.5 c 128,-1,17
 621 1052 621 1052 593 1052 c 0,0,1
160 874 m 1,18,-1
 1045 874 l 1,19,-1
 1045 727 l 1,20,-1
 160 727 l 1,21,-1
 160 874 l 1,18,-1
467 398 m 0,22,23
 467 429 467 429 480.5 456 c 128,-1,24
 494 483 494 483 515 502.5 c 128,-1,25
 536 522 536 522 562.5 533 c 128,-1,26
 589 544 589 544 616 544 c 0,27,28
 682 544 682 544 712.5 507.5 c 128,-1,29
 743 471 743 471 743 420 c 0,30,31
 743 387 743 387 730 360 c 128,-1,32
 717 333 717 333 696 314.5 c 128,-1,33
 675 296 675 296 648 285.5 c 128,-1,34
 621 275 621 275 593 275 c 0,35,36
 569 275 569 275 546 283.5 c 128,-1,37
 523 292 523 292 505.5 307.5 c 128,-1,38
 488 323 488 323 477.5 346 c 128,-1,39
 467 369 467 369 467 398 c 0,22,23
EndSplineSet
Validated: 1
EndChar

StartChar: logicalnot
Encoding: 172 172 168
Width: 1196
Flags: HW
LayerCount: 2
Fore
SplineSet
160 872 m 1,0,-1
 1036 872 l 1,1,-1
 1036 343 l 1,2,-1
 872 343 l 1,3,-1
 872 744 l 1,4,-1
 160 744 l 1,5,-1
 160 872 l 1,0,-1
EndSplineSet
Validated: 1
EndChar

StartChar: mu
Encoding: 181 181 169
AltUni2: 0003bc.ffffffff.0
Width: 1271
Flags: HW
LayerCount: 2
Fore
SplineSet
398 -373 m 1,0,-1
 209 -373 l 1,1,-1
 209 977 l 1,2,-1
 106 1007 l 1,3,-1
 106 1084 l 1,4,-1
 363 1139 l 1,5,-1
 398 1121 l 1,6,-1
 398 415 l 1,7,8
 399 337 399 337 408.5 280.5 c 128,-1,9
 418 224 418 224 442.5 187.5 c 128,-1,10
 467 151 467 151 508.5 133.5 c 128,-1,11
 550 116 550 116 614 116 c 0,12,13
 659 116 659 116 702.5 128.5 c 128,-1,14
 746 141 746 141 783.5 158.5 c 128,-1,15
 821 176 821 176 849 195.5 c 128,-1,16
 877 215 877 215 890 229 c 1,17,-1
 890 968 l 1,18,-1
 765 1000 l 1,19,-1
 765 1082 l 1,20,-1
 1051 1139 l 1,21,-1
 1079 1122 l 1,22,-1
 1079 85 l 1,23,-1
 1199 85 l 1,24,-1
 1199 9 l 1,25,26
 1184 1 1184 1 1162 -6.5 c 128,-1,27
 1140 -14 1140 -14 1114.5 -20 c 128,-1,28
 1089 -26 1089 -26 1062.5 -30 c 128,-1,29
 1036 -34 1036 -34 1012 -34 c 0,30,31
 964 -34 964 -34 936.5 -13.5 c 128,-1,32
 909 7 909 7 909 52 c 2,33,-1
 909 134 l 1,34,35
 822 55 822 55 726.5 17 c 128,-1,36
 631 -21 631 -21 540 -21 c 0,37,38
 497 -21 497 -21 462 -16 c 128,-1,39
 427 -11 427 -11 398 -2 c 1,40,-1
 398 -373 l 1,0,-1
EndSplineSet
Validated: 524289
EndChar

StartChar: periodcentered
Encoding: 183 183 170
Width: 706
Flags: HW
LayerCount: 2
Fore
SplineSet
341 634 m 0,0,1
 317 634 317 634 294 642.5 c 128,-1,2
 271 651 271 651 253.5 666.5 c 128,-1,3
 236 682 236 682 225.5 705 c 128,-1,4
 215 728 215 728 215 757 c 0,5,6
 215 788 215 788 228.5 815 c 128,-1,7
 242 842 242 842 263 861.5 c 128,-1,8
 284 881 284 881 310.5 892 c 128,-1,9
 337 903 337 903 364 903 c 0,10,11
 430 903 430 903 460.5 866.5 c 128,-1,12
 491 830 491 830 491 779 c 0,13,14
 491 746 491 746 478 719 c 128,-1,15
 465 692 465 692 444 673.5 c 128,-1,16
 423 655 423 655 396 644.5 c 128,-1,17
 369 634 369 634 341 634 c 0,0,1
EndSplineSet
Validated: 524289
EndChar

StartChar: hyphen
Encoding: 45 45 171
Width: 1205
Flags: HW
LayerCount: 2
Fore
SplineSet
160 874 m 1,0,-1
 1045 874 l 1,1,-1
 1045 727 l 1,2,-1
 160 727 l 1,3,-1
 160 874 l 1,0,-1
EndSplineSet
Validated: 1
EndChar

StartChar: brokenbar
Encoding: 166 166 172
Width: 873
Flags: HW
LayerCount: 2
Fore
SplineSet
358 1780 m 1,0,-1
 531 1780 l 1,1,-1
 531 886 l 1,2,-1
 358 886 l 1,3,-1
 358 1780 l 1,0,-1
358 708 m 1,4,-1
 531 708 l 1,5,-1
 531 -186 l 1,6,-1
 358 -186 l 1,7,-1
 358 708 l 1,4,-1
EndSplineSet
Validated: 1
EndChar

StartChar: macron
Encoding: 175 175 173
Width: 959
Flags: HW
LayerCount: 2
Fore
SplineSet
194 1584 m 1,0,-1
 765 1584 l 1,1,-1
 765 1436 l 1,2,-1
 194 1436 l 1,3,-1
 194 1584 l 1,0,-1
EndSplineSet
Validated: 1
EndChar

StartChar: carondl
Encoding: 65539 -1 174
Width: 0
Flags: W
LayerCount: 2
Fore
SplineSet
92 1593 m 1,0,-1
 256 1593 l 1,1,-1
 193 1017 l 1,2,-1
 73 1017 l 1,3,-1
 92 1593 l 1,0,-1
EndSplineSet
Validated: 1
EndChar

